<svg id="Layer_1" data-name="Layer 1" xmlns="http://www.w3.org/2000/svg" viewBox="0 0 244.3 265.21"><title>noun_1210052_cc</title><path d="M141.7,244.4A102.6,102.6,0,1,1,244.3,141.8,102.68,102.68,0,0,1,141.7,244.4Zm0-195.3a92.6,92.6,0,1,0,92.6,92.6C234.4,90.7,192.8,49.1,141.7,49.1Z" transform="translate(0 -39.2)" style="fill:#3fc6cc"/><ellipse cx="103.9" cy="77.2" rx="7.9" ry="19.8" style="fill:#3fc6cc"/><ellipse cx="179.6" cy="77.2" rx="7.9" ry="19.8" style="fill:#3fc6cc"/><path d="M141.7,157.4c-7.1,0-14.3-2.4-14.3-6.9s7.2-6.9,14.3-6.9S156,146,156,150.5,148.9,157.4,141.7,157.4Zm0-9.8c-6.5,0-10.2,2.1-10.3,2.9.1.8,3.9,2.9,10.3,2.9s10.2-2,10.3-2.9S148.2,147.6,141.7,147.6Z" transform="translate(0 -39.2)" style="fill:#3fc6cc"/><rect x="94.01" y="95.37" width="4" height="9.1" transform="translate(-42.53 57.94) rotate(-44.99)" style="fill:#3fc6cc"/><rect x="92.38" y="101.03" width="4" height="12.9" transform="translate(-48.59 64.1) rotate(-47.04)" style="fill:#3fc6cc"/><rect x="182.94" y="97.88" width="9.1" height="4" transform="translate(-15.71 122.63) rotate(-45)" style="fill:#3fc6cc"/><rect x="182.62" y="105.57" width="12.9" height="4" transform="translate(-22.6 118.5) rotate(-42.96)" style="fill:#3fc6cc"/><path d="M141.7,199.9c-26.5,0-47.3-12.3-47.3-28h10c0,8.5,15.3,18,37.3,18,17.7,0,37.3-7.4,37.3-18h10C189,187.6,168.2,199.9,141.7,199.9Z" transform="translate(0 -39.2)" style="fill:#3fc6cc"/><g style="isolation:isolate"><path d="M2.63,295.88a.81.81,0,0,0-.69-.38.91.91,0,0,0-.45.1.85.85,0,0,0-.3.28,1.19,1.19,0,0,0-.17.39,2,2,0,0,0-.05.46,1.84,1.84,0,0,0,.05.44,1.18,1.18,0,0,0,.17.38.86.86,0,0,0,.3.27.91.91,0,0,0,.45.1.73.73,0,0,0,.56-.22,1,1,0,0,0,.25-.58h.76a1.82,1.82,0,0,1-.16.61,1.45,1.45,0,0,1-.33.46,1.42,1.42,0,0,1-.48.29,1.76,1.76,0,0,1-.6.1,1.84,1.84,0,0,1-.74-.14A1.58,1.58,0,0,1,.65,298a1.74,1.74,0,0,1-.34-.59,2.15,2.15,0,0,1-.12-.73A2.23,2.23,0,0,1,.31,296a1.78,1.78,0,0,1,.34-.6,1.58,1.58,0,0,1,.55-.4,1.8,1.8,0,0,1,.74-.15,1.8,1.8,0,0,1,.56.08,1.51,1.51,0,0,1,.47.25,1.34,1.34,0,0,1,.34.4,1.45,1.45,0,0,1,.17.55H2.73A.64.64,0,0,0,2.63,295.88Z" transform="translate(0 -39.2)"/><path d="M4.65,295.92v.48h0a.88.88,0,0,1,.13-.22A.89.89,0,0,1,5,296a1,1,0,0,1,.23-.11.86.86,0,0,1,.26,0l.16,0v.66l-.12,0H5.39a.75.75,0,0,0-.33.07.57.57,0,0,0-.22.18.72.72,0,0,0-.12.26,1.43,1.43,0,0,0,0,.33v1.17H4v-2.58Z" transform="translate(0 -39.2)"/><path d="M6.59,297.88a.73.73,0,0,0,.83,0,.45.45,0,0,0,.19-.23h.63a1.19,1.19,0,0,1-.46.67,1.36,1.36,0,0,1-.75.2,1.49,1.49,0,0,1-.55-.1,1.16,1.16,0,0,1-.42-.28,1.26,1.26,0,0,1-.26-.43,1.57,1.57,0,0,1-.09-.55,1.51,1.51,0,0,1,.1-.54,1.24,1.24,0,0,1,.69-.72,1.33,1.33,0,0,1,.54-.11,1.23,1.23,0,0,1,.58.13,1.15,1.15,0,0,1,.4.34,1.41,1.41,0,0,1,.23.49,1.82,1.82,0,0,1,.05.58H6.42A.72.72,0,0,0,6.59,297.88Zm.8-1.36a.5.5,0,0,0-.39-.14.62.62,0,0,0-.28.06.53.53,0,0,0-.18.14.52.52,0,0,0-.09.18.81.81,0,0,0,0,.17H7.57A.82.82,0,0,0,7.39,296.52Z" transform="translate(0 -39.2)"/><path d="M8.67,296.71a.82.82,0,0,1,.13-.42.84.84,0,0,1,.28-.26,1.2,1.2,0,0,1,.38-.14,2.18,2.18,0,0,1,.43,0l.4,0a1.2,1.2,0,0,1,.36.11.71.71,0,0,1,.27.22.62.62,0,0,1,.1.38v1.34a2.72,2.72,0,0,0,0,.33.6.6,0,0,0,.07.24h-.72a1,1,0,0,1,0-.12.94.94,0,0,1,0-.13.92.92,0,0,1-.4.25,1.6,1.6,0,0,1-.47.07,1.26,1.26,0,0,1-.35,0,.78.78,0,0,1-.28-.14.65.65,0,0,1-.19-.24.81.81,0,0,1-.07-.34.75.75,0,0,1,.08-.36.65.65,0,0,1,.2-.23.89.89,0,0,1,.28-.13l.32-.07.31,0,.27,0a.48.48,0,0,0,.19-.09.19.19,0,0,0,.06-.17.37.37,0,0,0,0-.18.27.27,0,0,0-.1-.1.4.4,0,0,0-.15-.05H9.85a.54.54,0,0,0-.33.09.4.4,0,0,0-.14.3Zm1.64.53-.11.06-.15,0-.16,0-.17,0-.16,0-.13.07a.32.32,0,0,0-.09.11.35.35,0,0,0,0,.17.34.34,0,0,0,0,.16.26.26,0,0,0,.1.1.39.39,0,0,0,.14.05h.17a.64.64,0,0,0,.32-.07.47.47,0,0,0,.17-.17.53.53,0,0,0,.07-.2,1.35,1.35,0,0,0,0-.16Z" transform="translate(0 -39.2)"/><path d="M13,295.92v.47h-.52v1.28a.24.24,0,0,0,.3.3H13v.55l-.2,0h-.22l-.31,0a.76.76,0,0,1-.26-.09.47.47,0,0,1-.18-.18.66.66,0,0,1-.06-.32v-1.53h-.43v-.47h.43v-.78h.71v.78Z" transform="translate(0 -39.2)"/><path d="M14.09,297.88a.73.73,0,0,0,.83,0,.45.45,0,0,0,.19-.23h.63a1.19,1.19,0,0,1-.46.67,1.36,1.36,0,0,1-.75.2,1.49,1.49,0,0,1-.55-.1,1.16,1.16,0,0,1-.42-.28,1.26,1.26,0,0,1-.26-.43,1.57,1.57,0,0,1-.09-.55,1.51,1.51,0,0,1,.1-.54A1.24,1.24,0,0,1,14,296a1.33,1.33,0,0,1,.54-.11,1.23,1.23,0,0,1,.58.13,1.15,1.15,0,0,1,.4.34,1.41,1.41,0,0,1,.23.49,1.82,1.82,0,0,1,.05.58H13.92A.72.72,0,0,0,14.09,297.88Zm.8-1.36a.5.5,0,0,0-.39-.14.62.62,0,0,0-.28.06.53.53,0,0,0-.18.14.52.52,0,0,0-.09.18.81.81,0,0,0,0,.17h1.15A.82.82,0,0,0,14.89,296.52Z" transform="translate(0 -39.2)"/><path d="M18,298.17a.73.73,0,0,1-.33.3,1.09,1.09,0,0,1-.46.09,1.1,1.1,0,0,1-.51-.11,1,1,0,0,1-.36-.3,1.38,1.38,0,0,1-.21-.44,1.86,1.86,0,0,1-.07-.52,1.74,1.74,0,0,1,.07-.5,1.31,1.31,0,0,1,.21-.43,1,1,0,0,1,.86-.41,1,1,0,0,1,.44.1.76.76,0,0,1,.33.29h0v-1.3h.71v3.57H18v-.33Zm0-1.28a.74.74,0,0,0-.1-.26.58.58,0,0,0-.19-.18.55.55,0,0,0-.29-.07.57.57,0,0,0-.29.07.56.56,0,0,0-.19.18.83.83,0,0,0-.1.26,1.44,1.44,0,0,0,0,.31,1.34,1.34,0,0,0,0,.3.81.81,0,0,0,.11.27.64.64,0,0,0,.19.19.53.53,0,0,0,.28.07.56.56,0,0,0,.29-.07.54.54,0,0,0,.19-.19.84.84,0,0,0,.1-.27,1.57,1.57,0,0,0,0-.31A1.54,1.54,0,0,0,18,296.89Z" transform="translate(0 -39.2)"/><path d="M21.35,294.93v1.3h0a.75.75,0,0,1,.35-.29,1.2,1.2,0,0,1,.46-.09,1,1,0,0,1,.73.33,1.25,1.25,0,0,1,.25.42,2,2,0,0,1,0,1.22,1.25,1.25,0,0,1-.25.42,1,1,0,0,1-.34.25,1,1,0,0,1-.38.08,1.35,1.35,0,0,1-.51-.09.64.64,0,0,1-.34-.3h0v.33h-.67v-3.57Zm1.15,2a.84.84,0,0,0-.11-.26.58.58,0,0,0-.19-.18.58.58,0,0,0-.54,0,.57.57,0,0,0-.19.18.81.81,0,0,0-.11.26,1.38,1.38,0,0,0,0,.32,1.35,1.35,0,0,0,0,.31.81.81,0,0,0,.11.27.57.57,0,0,0,.19.18.58.58,0,0,0,.54,0,.58.58,0,0,0,.19-.18.83.83,0,0,0,.11-.27,1.35,1.35,0,0,0,0-.31A1.38,1.38,0,0,0,22.5,296.89Z" transform="translate(0 -39.2)"/><path d="M24.65,299.27a1,1,0,0,1-.57.14h-.22l-.22,0v-.58l.2,0h.21a.28.28,0,0,0,.21-.11.35.35,0,0,0,.07-.21.43.43,0,0,0,0-.16l-.9-2.42h.75l.58,1.77h0l.56-1.77h.73L25,298.82A.87.87,0,0,1,24.65,299.27Z" transform="translate(0 -39.2)"/><path d="M27.37,294.93h.88l.83,1.41.83-1.41h.88l-1.32,2.2v1.37h-.79v-1.39Z" transform="translate(0 -39.2)"/><path d="M31.22,297.88a.73.73,0,0,0,.83,0,.45.45,0,0,0,.19-.23h.63a1.19,1.19,0,0,1-.46.67,1.36,1.36,0,0,1-.75.2,1.49,1.49,0,0,1-.55-.1,1.16,1.16,0,0,1-.42-.28,1.26,1.26,0,0,1-.26-.43,1.57,1.57,0,0,1-.09-.55,1.51,1.51,0,0,1,.1-.54,1.24,1.24,0,0,1,.69-.72,1.33,1.33,0,0,1,.54-.11,1.23,1.23,0,0,1,.58.13,1.15,1.15,0,0,1,.4.34,1.41,1.41,0,0,1,.23.49,1.82,1.82,0,0,1,.05.58H31A.72.72,0,0,0,31.22,297.88Zm.8-1.36a.5.5,0,0,0-.39-.14.62.62,0,0,0-.28.06.53.53,0,0,0-.18.14.52.52,0,0,0-.09.18.81.81,0,0,0,0,.17H32.2A.82.82,0,0,0,32,296.52Z" transform="translate(0 -39.2)"/><path d="M33.35,296.65a1.19,1.19,0,0,1,.69-.71,1.49,1.49,0,0,1,.55-.1,1.51,1.51,0,0,1,.55.1,1.18,1.18,0,0,1,.69.71,1.58,1.58,0,0,1,.1.56,1.56,1.56,0,0,1-.1.56,1.21,1.21,0,0,1-.27.43,1.18,1.18,0,0,1-.42.27,1.53,1.53,0,0,1-.55.1,1.51,1.51,0,0,1-.55-.1,1.18,1.18,0,0,1-.42-.27,1.21,1.21,0,0,1-.27-.43,1.56,1.56,0,0,1-.1-.56A1.58,1.58,0,0,1,33.35,296.65Zm.65.87a.8.8,0,0,0,.1.26.54.54,0,0,0,.19.19.58.58,0,0,0,.3.07.6.6,0,0,0,.3-.07.54.54,0,0,0,.19-.19.8.8,0,0,0,.1-.26,1.52,1.52,0,0,0,0-.3,1.54,1.54,0,0,0,0-.3.78.78,0,0,0-.1-.27.58.58,0,0,0-.19-.19.59.59,0,0,0-.3-.07.54.54,0,0,0-.49.26.78.78,0,0,0-.1.27,1.54,1.54,0,0,0,0,.3A1.52,1.52,0,0,0,34,297.51Z" transform="translate(0 -39.2)"/><path d="M38.14,298.5v-.36h0a.79.79,0,0,1-.35.33,1,1,0,0,1-.44.1,1.24,1.24,0,0,1-.47-.08.67.67,0,0,1-.29-.21.83.83,0,0,1-.15-.33,2.08,2.08,0,0,1,0-.44v-1.59h.71v1.46a.91.91,0,0,0,.1.48.39.39,0,0,0,.35.16.49.49,0,0,0,.42-.17,1,1,0,0,0,.13-.57v-1.35h.71v2.58Z" transform="translate(0 -39.2)"/><path d="M40.08,294.93v3.57h-.71v-3.57Z" transform="translate(0 -39.2)"/><path d="M42.89,294.93v1.48l1.4-1.48h1l-1.4,1.41,1.53,2.16h-1l-1.07-1.61-.45.46v1.15h-.78v-3.57Z" transform="translate(0 -39.2)"/><path d="M47.87,298.5l-.46-1.74h0L47,298.5h-.73l-.82-2.58h.75l.48,1.75h0l.43-1.75h.69l.44,1.75h0l.48-1.75h.73l-.81,2.58Z" transform="translate(0 -39.2)"/><path d="M49.73,296.65a1.19,1.19,0,0,1,.69-.71,1.49,1.49,0,0,1,.55-.1,1.51,1.51,0,0,1,.55.1,1.18,1.18,0,0,1,.69.71,1.58,1.58,0,0,1,.1.56,1.56,1.56,0,0,1-.1.56,1.21,1.21,0,0,1-.27.43,1.18,1.18,0,0,1-.42.27,1.53,1.53,0,0,1-.55.1,1.51,1.51,0,0,1-.55-.1,1.18,1.18,0,0,1-.42-.27,1.21,1.21,0,0,1-.27-.43,1.56,1.56,0,0,1-.1-.56A1.58,1.58,0,0,1,49.73,296.65Zm.65.87a.8.8,0,0,0,.1.26.54.54,0,0,0,.19.19.58.58,0,0,0,.3.07.6.6,0,0,0,.3-.07.54.54,0,0,0,.19-.19.8.8,0,0,0,.1-.26,1.52,1.52,0,0,0,0-.3,1.54,1.54,0,0,0,0-.3.78.78,0,0,0-.1-.27.58.58,0,0,0-.19-.19.59.59,0,0,0-.3-.07.54.54,0,0,0-.49.26.78.78,0,0,0-.1.27,1.54,1.54,0,0,0,0,.3A1.52,1.52,0,0,0,50.37,297.51Z" transform="translate(0 -39.2)"/><path d="M53.44,295.92v.36h0a.81.81,0,0,1,.35-.33,1,1,0,0,1,.44-.1,1.2,1.2,0,0,1,.47.08.69.69,0,0,1,.29.21.83.83,0,0,1,.15.33,2.08,2.08,0,0,1,0,.44v1.59h-.71V297a.91.91,0,0,0-.1-.48.39.39,0,0,0-.35-.16.49.49,0,0,0-.42.17,1,1,0,0,0-.13.57v1.36h-.71v-2.58Z" transform="translate(0 -39.2)"/></g><g style="isolation:isolate"><path d="M0,301.39v-.47H.42v-.2a.77.77,0,0,1,.22-.56.87.87,0,0,1,.65-.22h.38v.53l-.26,0a.27.27,0,0,0-.21.07.33.33,0,0,0-.06.23v.16h.49v.47H1.13v2.11H.42v-2.11Z" transform="translate(0 -39.2)"/><path d="M2.61,300.92v.48h0a.88.88,0,0,1,.13-.22A.89.89,0,0,1,3,301a1,1,0,0,1,.23-.11.86.86,0,0,1,.26,0l.16,0v.66l-.12,0H3.35a.75.75,0,0,0-.33.07.57.57,0,0,0-.22.18.72.72,0,0,0-.12.26,1.43,1.43,0,0,0,0,.33v1.17H1.94v-2.58Z" transform="translate(0 -39.2)"/><path d="M3.81,301.65a1.19,1.19,0,0,1,.69-.71,1.49,1.49,0,0,1,.55-.1,1.51,1.51,0,0,1,.55.1,1.18,1.18,0,0,1,.69.71,1.58,1.58,0,0,1,.1.56,1.56,1.56,0,0,1-.1.56,1.21,1.21,0,0,1-.27.43,1.18,1.18,0,0,1-.42.27,1.53,1.53,0,0,1-.55.1,1.51,1.51,0,0,1-.55-.1,1.18,1.18,0,0,1-.42-.27,1.21,1.21,0,0,1-.27-.43,1.56,1.56,0,0,1-.1-.56A1.58,1.58,0,0,1,3.81,301.65Zm.65.87a.8.8,0,0,0,.1.26.54.54,0,0,0,.19.19A.58.58,0,0,0,5,303a.6.6,0,0,0,.3-.07.54.54,0,0,0,.19-.19.8.8,0,0,0,.1-.26,1.52,1.52,0,0,0,0-.3,1.54,1.54,0,0,0,0-.3.78.78,0,0,0-.1-.27.58.58,0,0,0-.19-.19.59.59,0,0,0-.3-.07.54.54,0,0,0-.49.26.78.78,0,0,0-.1.27,1.54,1.54,0,0,0,0,.3A1.52,1.52,0,0,0,4.45,302.51Z" transform="translate(0 -39.2)"/><path d="M7.53,300.92v.35h0a1,1,0,0,1,.34-.31.91.91,0,0,1,.45-.11,1,1,0,0,1,.45.1.63.63,0,0,1,.31.33,1.1,1.1,0,0,1,.31-.3.84.84,0,0,1,.47-.13,1.38,1.38,0,0,1,.38,0,.78.78,0,0,1,.3.16.74.74,0,0,1,.19.29,1.16,1.16,0,0,1,.07.43v1.73H10.1V302c0-.09,0-.17,0-.25a.52.52,0,0,0-.06-.2.33.33,0,0,0-.13-.13.48.48,0,0,0-.24,0,.45.45,0,0,0-.24.06.42.42,0,0,0-.15.15.59.59,0,0,0-.07.21,1.61,1.61,0,0,0,0,.24v1.44H8.48V302c0-.08,0-.15,0-.23a.62.62,0,0,0,0-.21.31.31,0,0,0-.12-.15.46.46,0,0,0-.26-.06l-.13,0a.43.43,0,0,0-.16.08.5.5,0,0,0-.13.18.72.72,0,0,0-.06.31v1.5H6.86v-2.58Z" transform="translate(0 -39.2)"/><path d="M14.19,300.92v.47h-.52v1.28a.24.24,0,0,0,.3.3h.22v.55l-.2,0h-.22l-.31,0a.76.76,0,0,1-.26-.09.47.47,0,0,1-.18-.18.66.66,0,0,1-.06-.32v-1.53h-.43v-.47H13v-.78h.71v.78Z" transform="translate(0 -39.2)"/><path d="M15.23,299.93v1.35h0a.82.82,0,0,1,.34-.33.93.93,0,0,1,.41-.1,1.2,1.2,0,0,1,.47.08.69.69,0,0,1,.29.21.83.83,0,0,1,.15.33,2.08,2.08,0,0,1,0,.44v1.59h-.71V302a.91.91,0,0,0-.1-.48.39.39,0,0,0-.35-.16.49.49,0,0,0-.42.17,1,1,0,0,0-.13.57v1.36h-.71v-3.57Z" transform="translate(0 -39.2)"/><path d="M18.25,302.88a.73.73,0,0,0,.83,0,.45.45,0,0,0,.19-.23h.63a1.19,1.19,0,0,1-.46.67,1.36,1.36,0,0,1-.75.2,1.49,1.49,0,0,1-.55-.1,1.16,1.16,0,0,1-.42-.28,1.26,1.26,0,0,1-.26-.43,1.57,1.57,0,0,1-.09-.55,1.51,1.51,0,0,1,.1-.54,1.24,1.24,0,0,1,.69-.72,1.33,1.33,0,0,1,.54-.11,1.23,1.23,0,0,1,.58.13,1.15,1.15,0,0,1,.4.34,1.41,1.41,0,0,1,.23.49,1.82,1.82,0,0,1,.05.58H18.07A.72.72,0,0,0,18.25,302.88Zm.8-1.36a.5.5,0,0,0-.39-.14.62.62,0,0,0-.28.06.53.53,0,0,0-.18.14.52.52,0,0,0-.09.18.81.81,0,0,0,0,.17h1.15A.82.82,0,0,0,19.05,301.52Z" transform="translate(0 -39.2)"/><path d="M22.6,299.93l1.49,2.4h0v-2.4h.73v3.57h-.78l-1.49-2.39h0v2.39h-.73v-3.57Z" transform="translate(0 -39.2)"/><path d="M25.47,301.65a1.19,1.19,0,0,1,.69-.71,1.49,1.49,0,0,1,.55-.1,1.51,1.51,0,0,1,.55.1,1.18,1.18,0,0,1,.69.71,1.58,1.58,0,0,1,.1.56,1.56,1.56,0,0,1-.1.56,1.21,1.21,0,0,1-.27.43,1.18,1.18,0,0,1-.42.27,1.53,1.53,0,0,1-.55.1,1.51,1.51,0,0,1-.55-.1,1.18,1.18,0,0,1-.42-.27,1.21,1.21,0,0,1-.27-.43,1.56,1.56,0,0,1-.1-.56A1.58,1.58,0,0,1,25.47,301.65Zm.65.87a.8.8,0,0,0,.1.26.54.54,0,0,0,.19.19.58.58,0,0,0,.3.07A.6.6,0,0,0,27,303a.54.54,0,0,0,.19-.19.8.8,0,0,0,.1-.26,1.52,1.52,0,0,0,0-.3,1.54,1.54,0,0,0,0-.3.78.78,0,0,0-.1-.27.58.58,0,0,0-.19-.19.59.59,0,0,0-.3-.07.54.54,0,0,0-.49.26.78.78,0,0,0-.1.27,1.54,1.54,0,0,0,0,.3A1.52,1.52,0,0,0,26.11,302.51Z" transform="translate(0 -39.2)"/><path d="M30.26,303.5v-.36h0a.79.79,0,0,1-.35.33,1,1,0,0,1-.44.1,1.24,1.24,0,0,1-.47-.08.67.67,0,0,1-.29-.21.83.83,0,0,1-.15-.33,2.08,2.08,0,0,1,0-.44v-1.59h.71v1.46a.91.91,0,0,0,.1.48.39.39,0,0,0,.35.16.49.49,0,0,0,.42-.17,1,1,0,0,0,.13-.57v-1.35h.71v2.58Z" transform="translate(0 -39.2)"/><path d="M32.15,300.92v.36h0a.81.81,0,0,1,.35-.33,1,1,0,0,1,.44-.1,1.2,1.2,0,0,1,.47.08.69.69,0,0,1,.29.21.83.83,0,0,1,.15.33,2.08,2.08,0,0,1,0,.44v1.59h-.71V302a.91.91,0,0,0-.1-.48.39.39,0,0,0-.35-.16.49.49,0,0,0-.42.17,1,1,0,0,0-.13.57v1.36h-.71v-2.58Z" transform="translate(0 -39.2)"/><path d="M37.51,299.93a1.5,1.5,0,0,1,.57.1,1.08,1.08,0,0,1,.38.26,1,1,0,0,1,.21.37,1.36,1.36,0,0,1,0,.85,1,1,0,0,1-.21.37,1.06,1.06,0,0,1-.38.26,1.48,1.48,0,0,1-.57.1h-.83v1.28H35.9v-3.57Zm-.21,1.68.26,0a.6.6,0,0,0,.22-.08.42.42,0,0,0,.15-.16.57.57,0,0,0,.06-.27.58.58,0,0,0-.06-.28.43.43,0,0,0-.15-.16.62.62,0,0,0-.22-.08l-.26,0h-.61v1.07Z" transform="translate(0 -39.2)"/><path d="M39.84,300.92v.48h0a.88.88,0,0,1,.13-.22.89.89,0,0,1,.2-.18,1,1,0,0,1,.23-.11.86.86,0,0,1,.26,0l.16,0v.66l-.12,0h-.13a.75.75,0,0,0-.33.07.57.57,0,0,0-.22.18.72.72,0,0,0-.12.26,1.43,1.43,0,0,0,0,.33v1.17h-.71v-2.58Z" transform="translate(0 -39.2)"/><path d="M41,301.65a1.19,1.19,0,0,1,.69-.71,1.49,1.49,0,0,1,.55-.1,1.51,1.51,0,0,1,.55.1,1.18,1.18,0,0,1,.69.71,1.58,1.58,0,0,1,.1.56,1.56,1.56,0,0,1-.1.56,1.21,1.21,0,0,1-.27.43,1.18,1.18,0,0,1-.42.27,1.53,1.53,0,0,1-.55.1,1.51,1.51,0,0,1-.55-.1,1.18,1.18,0,0,1-.42-.27,1.21,1.21,0,0,1-.27-.43,1.56,1.56,0,0,1-.1-.56A1.58,1.58,0,0,1,41,301.65Zm.65.87a.8.8,0,0,0,.1.26A.54.54,0,0,0,42,303a.58.58,0,0,0,.3.07.6.6,0,0,0,.3-.07.54.54,0,0,0,.19-.19.8.8,0,0,0,.1-.26,1.52,1.52,0,0,0,0-.3,1.54,1.54,0,0,0,0-.3.78.78,0,0,0-.1-.27.58.58,0,0,0-.19-.19.59.59,0,0,0-.3-.07.54.54,0,0,0-.49.26.78.78,0,0,0-.1.27,1.54,1.54,0,0,0,0,.3A1.52,1.52,0,0,0,41.68,302.51Z" transform="translate(0 -39.2)"/><path d="M43.86,303.82a.42.42,0,0,0,.19,0c.06,0,.08-.09.08-.19v-2.67h.71v2.71a1.24,1.24,0,0,1,0,.34.54.54,0,0,1-.15.24.64.64,0,0,1-.28.14,1.76,1.76,0,0,1-.45,0l-.22,0v-.58Zm.27-3.31v-.58h.71v.58Z" transform="translate(0 -39.2)"/><path d="M46.22,302.88a.73.73,0,0,0,.83,0,.45.45,0,0,0,.19-.23h.63a1.19,1.19,0,0,1-.46.67,1.36,1.36,0,0,1-.75.2,1.49,1.49,0,0,1-.55-.1,1.16,1.16,0,0,1-.42-.28,1.26,1.26,0,0,1-.26-.43,1.57,1.57,0,0,1-.09-.55,1.51,1.51,0,0,1,.1-.54,1.24,1.24,0,0,1,.69-.72,1.33,1.33,0,0,1,.54-.11,1.23,1.23,0,0,1,.58.13,1.15,1.15,0,0,1,.4.34,1.41,1.41,0,0,1,.23.49,1.82,1.82,0,0,1,.05.58H46A.72.72,0,0,0,46.22,302.88Zm.8-1.36a.5.5,0,0,0-.39-.14.62.62,0,0,0-.28.06.53.53,0,0,0-.18.14.52.52,0,0,0-.09.18.81.81,0,0,0,0,.17H47.2A.82.82,0,0,0,47,301.52Z" transform="translate(0 -39.2)"/><path d="M49.57,301.38a.5.5,0,0,0-.28.08.61.61,0,0,0-.19.2.87.87,0,0,0-.1.27,1.45,1.45,0,0,0,0,.29,1.4,1.4,0,0,0,0,.29.88.88,0,0,0,.1.26.56.56,0,0,0,.18.19.5.5,0,0,0,.28.08.52.52,0,0,0,.39-.14.67.67,0,0,0,.17-.38h.69a1.17,1.17,0,0,1-.4.79,1.29,1.29,0,0,1-.84.27,1.43,1.43,0,0,1-.53-.1,1.19,1.19,0,0,1-.41-.27,1.24,1.24,0,0,1-.26-.42,1.44,1.44,0,0,1-.1-.53,1.73,1.73,0,0,1,.09-.56,1.26,1.26,0,0,1,.26-.45A1.17,1.17,0,0,1,49,301a1.4,1.4,0,0,1,.56-.11,1.62,1.62,0,0,1,.44.06,1.18,1.18,0,0,1,.38.18,1,1,0,0,1,.27.3,1,1,0,0,1,.12.43h-.7A.48.48,0,0,0,49.57,301.38Z" transform="translate(0 -39.2)"/><path d="M52.62,300.92v.47H52.1v1.28a.24.24,0,0,0,.3.3h.22v.55l-.2,0h-.22l-.31,0a.76.76,0,0,1-.26-.09.47.47,0,0,1-.18-.18.66.66,0,0,1-.06-.32v-1.53H51v-.47h.43v-.78h.71v.78Z" transform="translate(0 -39.2)"/></g></svg>