<?xml version="1.0" encoding="utf-8"?>
<!-- Generator: Adobe Illustrator 21.1.0, SVG Export Plug-In . SVG Version: 6.00 Build 0)  -->
<svg version="1.1"
	 id="Layer_1" xmlns:cc="http://creativecommons.org/ns#" xmlns:dc="http://purl.org/dc/elements/1.1/" xmlns:inkscape="http://www.inkscape.org/namespaces/inkscape" xmlns:rdf="http://www.w3.org/1999/02/22-rdf-syntax-ns#" xmlns:sodipodi="http://sodipodi.sourceforge.net/DTD/sodipodi-0.dtd" xmlns:svg="http://www.w3.org/2000/svg"
	 xmlns="http://www.w3.org/2000/svg" xmlns:xlink="http://www.w3.org/1999/xlink" x="0px" y="0px" viewBox="0 0 100 125"
	 style="enable-background:new 0 0 100 125;" xml:space="preserve">
<style type="text/css">
	.st0{fill:#3FC6CC;}
	.st1{font-family:'HelveticaNeue-Bold';}
	.st2{font-size:5px;}
	.st3{enable-background:new    ;}
</style>
<g transform="translate(0,-952.36218)">
	<path class="st0" d="M7.8,958.5c-1,0.1-1.8,1-1.8,2v65.9c0,1.1,0.9,2,2,2h44.5c3.2,3.1,7.6,5,12.4,5c3.7,0,7.2-1.1,10-3.1
		l15.5,15.5c0.7,0.9,1.9,1,2.8,0.3c0.9-0.7,1-1.9,0.3-2.8c-0.1-0.1-0.2-0.2-0.3-0.3L78,1027.7c3-3.2,4.9-7.5,4.9-12.3
		c0-7.3-4.5-13.7-10.8-16.5l6.1-13.5h7.7l-7.2,5.4c-0.9,0.6-1.1,1.9-0.5,2.8s1.9,1.1,2.8,0.5c0,0,0,0,0,0l12-9
		c0.9-0.7,1.1-1.9,0.4-2.8c-0.1-0.2-0.3-0.3-0.4-0.4l-12-9c-0.4-0.3-0.8-0.4-1.3-0.4c-1.1,0-2,1-1.9,2.1c0,0.6,0.3,1.2,0.8,1.6
		l7.2,5.4h-9c-0.1,0-0.1,0-0.2,0c-0.7,0.1-1.3,0.5-1.6,1.2l-6.8,15.2c-1.1-0.2-2.2-0.3-3.3-0.3c-7.5,0-14,4.7-16.7,11.2l-12.8-3.2
		c-0.5-0.1-1-0.1-1.5,0.2l-18,10c-1,0.5-1.3,1.7-0.8,2.7c0.5,1,1.7,1.3,2.7,0.8l0,0l17.3-9.6l11.9,3c-0.2,0.9-0.2,1.9-0.2,2.9
		c0,3.3,0.9,6.3,2.4,9H10v-63.9c0-1.1-0.9-2-2-2C8,958.5,7.9,958.5,7.8,958.5z M64.9,1001.5c0.6,0,1.1,0,1.7,0.1l-4.8,10.5l-9.6-2.4
		C54.3,1004.8,59.2,1001.5,64.9,1001.5L64.9,1001.5z M70.4,1002.6c5,2.1,8.5,7.1,8.5,12.8c0,7.7-6.2,14-14,14s-14-6.2-14-14
		c0-0.6,0-1.3,0.1-1.9l11.4,2.8c0.9,0.2,1.9-0.2,2.3-1.1L70.4,1002.6L70.4,1002.6z"/>
</g>
<text transform="matrix(1 0 0 1 0 115)" class="st1 st2">Created by johartcamp</text>
<g class="st3">
	<path d="M0,117.9v-0.5h0.4v-0.2c0-0.2,0.1-0.4,0.2-0.6c0.1-0.1,0.4-0.2,0.6-0.2c0.1,0,0.1,0,0.2,0s0.1,0,0.2,0v0.5
		c-0.1,0-0.2,0-0.3,0c-0.1,0-0.2,0-0.2,0.1c0,0-0.1,0.1-0.1,0.2v0.2h0.5v0.5H1.1v2.1H0.4v-2.1H0z"/>
	<path d="M2.6,117.4v0.5h0c0-0.1,0.1-0.2,0.1-0.2s0.1-0.1,0.2-0.2c0.1,0,0.2-0.1,0.2-0.1c0.1,0,0.2,0,0.3,0c0,0,0.1,0,0.2,0v0.7
		c0,0-0.1,0-0.1,0s-0.1,0-0.1,0c-0.1,0-0.2,0-0.3,0.1c-0.1,0-0.2,0.1-0.2,0.2c-0.1,0.1-0.1,0.2-0.1,0.3c0,0.1,0,0.2,0,0.3v1.2H1.9
		v-2.6H2.6z"/>
	<path d="M3.8,118.1c0.1-0.2,0.2-0.3,0.3-0.4s0.3-0.2,0.4-0.3c0.2-0.1,0.3-0.1,0.5-0.1c0.2,0,0.4,0,0.6,0.1c0.2,0.1,0.3,0.2,0.4,0.3
		s0.2,0.3,0.3,0.4s0.1,0.4,0.1,0.6s0,0.4-0.1,0.6c-0.1,0.2-0.2,0.3-0.3,0.4s-0.3,0.2-0.4,0.3s-0.3,0.1-0.6,0.1c-0.2,0-0.4,0-0.5-0.1
		c-0.2-0.1-0.3-0.2-0.4-0.3s-0.2-0.3-0.3-0.4c-0.1-0.2-0.1-0.4-0.1-0.6S3.7,118.3,3.8,118.1z M4.5,119c0,0.1,0.1,0.2,0.1,0.3
		c0,0.1,0.1,0.1,0.2,0.2s0.2,0.1,0.3,0.1s0.2,0,0.3-0.1c0.1,0,0.1-0.1,0.2-0.2s0.1-0.2,0.1-0.3s0-0.2,0-0.3s0-0.2,0-0.3
		c0-0.1-0.1-0.2-0.1-0.3c0-0.1-0.1-0.1-0.2-0.2c-0.1,0-0.2-0.1-0.3-0.1s-0.2,0-0.3,0.1c-0.1,0-0.1,0.1-0.2,0.2
		c0,0.1-0.1,0.2-0.1,0.3c0,0.1,0,0.2,0,0.3S4.4,118.9,4.5,119z"/>
	<path d="M7.5,117.4v0.3h0c0.1-0.1,0.2-0.2,0.3-0.3c0.1-0.1,0.3-0.1,0.5-0.1c0.2,0,0.3,0,0.4,0.1c0.1,0.1,0.2,0.2,0.3,0.3
		c0.1-0.1,0.2-0.2,0.3-0.3c0.1-0.1,0.3-0.1,0.5-0.1c0.1,0,0.3,0,0.4,0c0.1,0,0.2,0.1,0.3,0.2c0.1,0.1,0.1,0.2,0.2,0.3
		s0.1,0.3,0.1,0.4v1.7h-0.7v-1.5c0-0.1,0-0.2,0-0.2s0-0.1-0.1-0.2c0-0.1-0.1-0.1-0.1-0.1c-0.1,0-0.1,0-0.2,0c-0.1,0-0.2,0-0.2,0.1
		c-0.1,0-0.1,0.1-0.1,0.1s-0.1,0.1-0.1,0.2c0,0.1,0,0.2,0,0.2v1.4H8.5v-1.5c0-0.1,0-0.2,0-0.2c0-0.1,0-0.1,0-0.2
		c0-0.1-0.1-0.1-0.1-0.2c-0.1,0-0.1-0.1-0.3-0.1c0,0-0.1,0-0.1,0c-0.1,0-0.1,0-0.2,0.1s-0.1,0.1-0.1,0.2c0,0.1-0.1,0.2-0.1,0.3v1.5
		H6.9v-2.6H7.5z"/>
	<path d="M14.2,117.4v0.5h-0.5v1.3c0,0.1,0,0.2,0.1,0.2s0.1,0.1,0.2,0.1c0,0,0.1,0,0.1,0c0,0,0.1,0,0.1,0v0.5c-0.1,0-0.1,0-0.2,0
		c-0.1,0-0.1,0-0.2,0c-0.1,0-0.2,0-0.3,0c-0.1,0-0.2,0-0.3-0.1c-0.1,0-0.1-0.1-0.2-0.2c0-0.1-0.1-0.2-0.1-0.3v-1.5h-0.4v-0.5H13
		v-0.8h0.7v0.8H14.2z"/>
	<path d="M15.2,116.4v1.3h0c0.1-0.2,0.2-0.3,0.3-0.3c0.1-0.1,0.3-0.1,0.4-0.1c0.2,0,0.3,0,0.5,0.1c0.1,0.1,0.2,0.1,0.3,0.2
		c0.1,0.1,0.1,0.2,0.1,0.3s0,0.3,0,0.4v1.6h-0.7v-1.5c0-0.2,0-0.4-0.1-0.5c-0.1-0.1-0.2-0.2-0.4-0.2c-0.2,0-0.3,0.1-0.4,0.2
		c-0.1,0.1-0.1,0.3-0.1,0.6v1.4h-0.7v-3.6H15.2z"/>
	<path d="M18.2,119.4c0.1,0.1,0.3,0.2,0.5,0.2c0.1,0,0.3,0,0.4-0.1c0.1-0.1,0.2-0.1,0.2-0.2h0.6c-0.1,0.3-0.3,0.5-0.5,0.7
		c-0.2,0.1-0.5,0.2-0.8,0.2c-0.2,0-0.4,0-0.5-0.1c-0.2-0.1-0.3-0.2-0.4-0.3c-0.1-0.1-0.2-0.3-0.3-0.4c-0.1-0.2-0.1-0.3-0.1-0.5
		c0-0.2,0-0.4,0.1-0.5c0.1-0.2,0.2-0.3,0.3-0.4c0.1-0.1,0.3-0.2,0.4-0.3c0.2-0.1,0.3-0.1,0.5-0.1c0.2,0,0.4,0,0.6,0.1
		c0.2,0.1,0.3,0.2,0.4,0.3c0.1,0.1,0.2,0.3,0.2,0.5c0,0.2,0.1,0.4,0.1,0.6h-1.9C18.1,119.1,18.1,119.3,18.2,119.4z M19.1,118
		c-0.1-0.1-0.2-0.1-0.4-0.1c-0.1,0-0.2,0-0.3,0.1c-0.1,0-0.1,0.1-0.2,0.1s-0.1,0.1-0.1,0.2c0,0.1,0,0.1,0,0.2h1.2
		C19.2,118.2,19.1,118.1,19.1,118z"/>
	<path d="M22.6,116.4l1.5,2.4h0v-2.4h0.7v3.6h-0.8l-1.5-2.4h0v2.4h-0.7v-3.6H22.6z"/>
	<path d="M25.5,118.1c0.1-0.2,0.2-0.3,0.3-0.4s0.3-0.2,0.4-0.3c0.2-0.1,0.3-0.1,0.5-0.1c0.2,0,0.4,0,0.6,0.1
		c0.2,0.1,0.3,0.2,0.4,0.3s0.2,0.3,0.3,0.4s0.1,0.4,0.1,0.6s0,0.4-0.1,0.6c-0.1,0.2-0.2,0.3-0.3,0.4s-0.3,0.2-0.4,0.3
		s-0.3,0.1-0.6,0.1c-0.2,0-0.4,0-0.5-0.1c-0.2-0.1-0.3-0.2-0.4-0.3s-0.2-0.3-0.3-0.4c-0.1-0.2-0.1-0.4-0.1-0.6
		S25.4,118.3,25.5,118.1z M26.1,119c0,0.1,0.1,0.2,0.1,0.3c0,0.1,0.1,0.1,0.2,0.2s0.2,0.1,0.3,0.1s0.2,0,0.3-0.1
		c0.1,0,0.1-0.1,0.2-0.2s0.1-0.2,0.1-0.3s0-0.2,0-0.3s0-0.2,0-0.3c0-0.1-0.1-0.2-0.1-0.3c0-0.1-0.1-0.1-0.2-0.2
		c-0.1,0-0.2-0.1-0.3-0.1s-0.2,0-0.3,0.1c-0.1,0-0.1,0.1-0.2,0.2c0,0.1-0.1,0.2-0.1,0.3c0,0.1,0,0.2,0,0.3S26.1,118.9,26.1,119z"/>
	<path d="M30.3,120v-0.4h0c-0.1,0.2-0.2,0.3-0.4,0.3c-0.1,0.1-0.3,0.1-0.4,0.1c-0.2,0-0.3,0-0.5-0.1s-0.2-0.1-0.3-0.2
		s-0.1-0.2-0.1-0.3s0-0.3,0-0.4v-1.6h0.7v1.5c0,0.2,0,0.4,0.1,0.5c0.1,0.1,0.2,0.2,0.4,0.2c0.2,0,0.3-0.1,0.4-0.2
		c0.1-0.1,0.1-0.3,0.1-0.6v-1.4h0.7v2.6H30.3z"/>
	<path d="M32.1,117.4v0.4h0c0.1-0.2,0.2-0.3,0.4-0.3c0.1-0.1,0.3-0.1,0.4-0.1c0.2,0,0.3,0,0.5,0.1c0.1,0.1,0.2,0.1,0.3,0.2
		c0.1,0.1,0.1,0.2,0.1,0.3s0,0.3,0,0.4v1.6h-0.7v-1.5c0-0.2,0-0.4-0.1-0.5c-0.1-0.1-0.2-0.2-0.4-0.2c-0.2,0-0.3,0.1-0.4,0.2
		c-0.1,0.1-0.1,0.3-0.1,0.6v1.4h-0.7v-2.6H32.1z"/>
	<path d="M37.5,116.4c0.2,0,0.4,0,0.6,0.1c0.2,0.1,0.3,0.2,0.4,0.3c0.1,0.1,0.2,0.2,0.2,0.4s0.1,0.3,0.1,0.4c0,0.1,0,0.3-0.1,0.4
		c0,0.1-0.1,0.3-0.2,0.4c-0.1,0.1-0.2,0.2-0.4,0.3c-0.2,0.1-0.3,0.1-0.6,0.1h-0.8v1.3h-0.8v-3.6H37.5z M37.3,118.1
		c0.1,0,0.2,0,0.3,0c0.1,0,0.2,0,0.2-0.1c0.1,0,0.1-0.1,0.2-0.2c0-0.1,0.1-0.2,0.1-0.3s0-0.2-0.1-0.3c0-0.1-0.1-0.1-0.2-0.2
		c-0.1,0-0.1-0.1-0.2-0.1c-0.1,0-0.2,0-0.3,0h-0.6v1.1H37.3z"/>
	<path d="M39.8,117.4v0.5h0c0-0.1,0.1-0.2,0.1-0.2s0.1-0.1,0.2-0.2c0.1,0,0.2-0.1,0.2-0.1c0.1,0,0.2,0,0.3,0c0,0,0.1,0,0.2,0v0.7
		c0,0-0.1,0-0.1,0s-0.1,0-0.1,0c-0.1,0-0.2,0-0.3,0.1c-0.1,0-0.2,0.1-0.2,0.2c-0.1,0.1-0.1,0.2-0.1,0.3c0,0.1,0,0.2,0,0.3v1.2h-0.7
		v-2.6H39.8z"/>
	<path d="M41,118.1c0.1-0.2,0.2-0.3,0.3-0.4s0.3-0.2,0.4-0.3c0.2-0.1,0.3-0.1,0.5-0.1c0.2,0,0.4,0,0.6,0.1c0.2,0.1,0.3,0.2,0.4,0.3
		s0.2,0.3,0.3,0.4s0.1,0.4,0.1,0.6s0,0.4-0.1,0.6c-0.1,0.2-0.2,0.3-0.3,0.4s-0.3,0.2-0.4,0.3s-0.3,0.1-0.6,0.1c-0.2,0-0.4,0-0.5-0.1
		c-0.2-0.1-0.3-0.2-0.4-0.3s-0.2-0.3-0.3-0.4c-0.1-0.2-0.1-0.4-0.1-0.6S41,118.3,41,118.1z M41.7,119c0,0.1,0.1,0.2,0.1,0.3
		c0,0.1,0.1,0.1,0.2,0.2s0.2,0.1,0.3,0.1s0.2,0,0.3-0.1c0.1,0,0.1-0.1,0.2-0.2s0.1-0.2,0.1-0.3s0-0.2,0-0.3s0-0.2,0-0.3
		c0-0.1-0.1-0.2-0.1-0.3c0-0.1-0.1-0.1-0.2-0.2c-0.1,0-0.2-0.1-0.3-0.1s-0.2,0-0.3,0.1c-0.1,0-0.1,0.1-0.2,0.2
		c0,0.1-0.1,0.2-0.1,0.3c0,0.1,0,0.2,0,0.3S41.7,118.9,41.7,119z"/>
	<path d="M43.9,120.3c0.1,0,0.1,0,0.2,0s0.1-0.1,0.1-0.2v-2.7h0.7v2.7c0,0.1,0,0.2,0,0.3s-0.1,0.2-0.1,0.2c-0.1,0.1-0.2,0.1-0.3,0.1
		s-0.3,0-0.4,0c-0.1,0-0.2,0-0.2,0v-0.6C43.8,120.3,43.8,120.3,43.9,120.3z M44.1,117v-0.6h0.7v0.6H44.1z"/>
	<path d="M46.2,119.4c0.1,0.1,0.3,0.2,0.5,0.2c0.1,0,0.3,0,0.4-0.1c0.1-0.1,0.2-0.1,0.2-0.2h0.6c-0.1,0.3-0.3,0.5-0.5,0.7
		c-0.2,0.1-0.5,0.2-0.8,0.2c-0.2,0-0.4,0-0.5-0.1c-0.2-0.1-0.3-0.2-0.4-0.3c-0.1-0.1-0.2-0.3-0.3-0.4c-0.1-0.2-0.1-0.3-0.1-0.5
		c0-0.2,0-0.4,0.1-0.5c0.1-0.2,0.2-0.3,0.3-0.4c0.1-0.1,0.3-0.2,0.4-0.3c0.2-0.1,0.3-0.1,0.5-0.1c0.2,0,0.4,0,0.6,0.1
		c0.2,0.1,0.3,0.2,0.4,0.3c0.1,0.1,0.2,0.3,0.2,0.5c0,0.2,0.1,0.4,0.1,0.6H46C46.1,119.1,46.1,119.3,46.2,119.4z M47,118
		c-0.1-0.1-0.2-0.1-0.4-0.1c-0.1,0-0.2,0-0.3,0.1c-0.1,0-0.1,0.1-0.2,0.1s-0.1,0.1-0.1,0.2c0,0.1,0,0.1,0,0.2h1.2
		C47.2,118.2,47.1,118.1,47,118z"/>
	<path d="M49.6,117.9c-0.1,0-0.2,0-0.3,0.1c-0.1,0.1-0.1,0.1-0.2,0.2c0,0.1-0.1,0.2-0.1,0.3c0,0.1,0,0.2,0,0.3c0,0.1,0,0.2,0,0.3
		s0.1,0.2,0.1,0.3s0.1,0.1,0.2,0.2s0.2,0.1,0.3,0.1c0.2,0,0.3,0,0.4-0.1c0.1-0.1,0.1-0.2,0.2-0.4h0.7c0,0.3-0.2,0.6-0.4,0.8
		c-0.2,0.2-0.5,0.3-0.8,0.3c-0.2,0-0.4,0-0.5-0.1c-0.2-0.1-0.3-0.2-0.4-0.3c-0.1-0.1-0.2-0.3-0.3-0.4c-0.1-0.2-0.1-0.3-0.1-0.5
		c0-0.2,0-0.4,0.1-0.6c0.1-0.2,0.1-0.3,0.3-0.4s0.3-0.2,0.4-0.3c0.2-0.1,0.3-0.1,0.6-0.1c0.2,0,0.3,0,0.4,0.1c0.1,0,0.3,0.1,0.4,0.2
		c0.1,0.1,0.2,0.2,0.3,0.3s0.1,0.3,0.1,0.4h-0.7C50,118,49.9,117.9,49.6,117.9z"/>
	<path d="M52.6,117.4v0.5h-0.5v1.3c0,0.1,0,0.2,0.1,0.2c0,0,0.1,0.1,0.2,0.1c0,0,0.1,0,0.1,0c0,0,0.1,0,0.1,0v0.5
		c-0.1,0-0.1,0-0.2,0c-0.1,0-0.1,0-0.2,0c-0.1,0-0.2,0-0.3,0c-0.1,0-0.2,0-0.3-0.1c-0.1,0-0.1-0.1-0.2-0.2c0-0.1-0.1-0.2-0.1-0.3
		v-1.5H51v-0.5h0.4v-0.8h0.7v0.8H52.6z"/>
</g>
</svg>
