<svg id="Layer_1" data-name="Layer 1" xmlns="http://www.w3.org/2000/svg" viewBox="0 0 52.63 42.41"><title>noun_231174_cc</title><path d="M15,15.5a.5.5,0,0,1-.35-.15l-3-3A.5.5,0,0,1,11.5,12V5a.5.5,0,0,1,1,0v6.79l2.85,2.85a.5.5,0,0,1-.35.85Z" transform="translate(0 -2.5)" style="fill:#3fc6cc"/><path d="M12,21.5a9.53,9.53,0,0,1-8.92-6.26A.5.5,0,0,1,4,14.9,8.49,8.49,0,0,0,20.5,12a.5.5,0,0,1,1,0A9.51,9.51,0,0,1,12,21.5Z" transform="translate(0 -2.5)" style="fill:#3fc6cc"/><path d="M3,12.5a.5.5,0,0,1-.5-.5A9.49,9.49,0,0,1,20.92,8.76.5.5,0,0,1,20,9.1,8.49,8.49,0,0,0,3.5,12,.5.5,0,0,1,3,12.5Z" transform="translate(0 -2.5)" style="fill:#3fc6cc"/><path d="M21,13" transform="translate(0 -2.5)" style="fill:#3fc6cc"/><path d="M3,13.5a.5.5,0,0,1-.35-.15l-2-2a.5.5,0,1,1,.71-.71L3,12.29l1.65-1.65a.5.5,0,1,1,.71.71l-2,2A.5.5,0,0,1,3,13.5Z" transform="translate(0 -2.5)" style="fill:#3fc6cc"/><path d="M23,13.5a.5.5,0,0,1-.35-.15L21,11.71l-1.65,1.65a.5.5,0,1,1-.71-.71l2-2a.5.5,0,0,1,.71,0l2,2a.5.5,0,0,1-.35.85Z" transform="translate(0 -2.5)" style="fill:#3fc6cc"/><g style="isolation:isolate"><path d="M2.63,36.38A.81.81,0,0,0,1.94,36a.91.91,0,0,0-.45.1.85.85,0,0,0-.3.28,1.19,1.19,0,0,0-.17.39,2,2,0,0,0-.05.46,1.84,1.84,0,0,0,.05.44,1.18,1.18,0,0,0,.17.38.86.86,0,0,0,.3.27.91.91,0,0,0,.45.1.73.73,0,0,0,.56-.22,1,1,0,0,0,.25-.58h.76a1.82,1.82,0,0,1-.16.61,1.45,1.45,0,0,1-.33.46,1.42,1.42,0,0,1-.48.29,1.76,1.76,0,0,1-.6.1,1.84,1.84,0,0,1-.74-.14,1.58,1.58,0,0,1-.55-.39A1.74,1.74,0,0,1,.31,38a2.15,2.15,0,0,1-.12-.73,2.23,2.23,0,0,1,.12-.74,1.78,1.78,0,0,1,.34-.6,1.58,1.58,0,0,1,.55-.4,1.8,1.8,0,0,1,.74-.15,1.8,1.8,0,0,1,.56.08,1.51,1.51,0,0,1,.47.25,1.34,1.34,0,0,1,.34.4,1.45,1.45,0,0,1,.17.55H2.73A.64.64,0,0,0,2.63,36.38Z" transform="translate(0 -2.5)"/><path d="M4.65,36.42v.48h0a.88.88,0,0,1,.13-.22A.89.89,0,0,1,5,36.5a1,1,0,0,1,.23-.11.86.86,0,0,1,.26,0l.16,0V37l-.12,0H5.39a.75.75,0,0,0-.33.07.57.57,0,0,0-.22.18.72.72,0,0,0-.12.26,1.43,1.43,0,0,0,0,.33V39H4V36.42Z" transform="translate(0 -2.5)"/><path d="M6.59,38.38a.73.73,0,0,0,.83,0,.45.45,0,0,0,.19-.23h.63a1.19,1.19,0,0,1-.46.67,1.36,1.36,0,0,1-.75.2,1.49,1.49,0,0,1-.55-.1,1.16,1.16,0,0,1-.42-.28,1.26,1.26,0,0,1-.26-.43,1.57,1.57,0,0,1-.09-.55,1.51,1.51,0,0,1,.1-.54,1.24,1.24,0,0,1,.69-.72A1.33,1.33,0,0,1,7,36.34a1.23,1.23,0,0,1,.58.13,1.15,1.15,0,0,1,.4.34,1.41,1.41,0,0,1,.23.49,1.82,1.82,0,0,1,.05.58H6.42A.72.72,0,0,0,6.59,38.38ZM7.39,37A.5.5,0,0,0,7,36.88a.62.62,0,0,0-.28.06.53.53,0,0,0-.18.14.52.52,0,0,0-.09.18.81.81,0,0,0,0,.17H7.57A.82.82,0,0,0,7.39,37Z" transform="translate(0 -2.5)"/><path d="M8.67,37.21a.82.82,0,0,1,.13-.42.84.84,0,0,1,.28-.26,1.2,1.2,0,0,1,.38-.14,2.18,2.18,0,0,1,.43,0l.4,0a1.2,1.2,0,0,1,.36.11.71.71,0,0,1,.27.22.62.62,0,0,1,.1.38v1.34a2.72,2.72,0,0,0,0,.33.6.6,0,0,0,.07.24h-.72a1,1,0,0,1,0-.12.94.94,0,0,1,0-.13.92.92,0,0,1-.4.25,1.6,1.6,0,0,1-.47.07,1.26,1.26,0,0,1-.35,0,.78.78,0,0,1-.28-.14.65.65,0,0,1-.19-.24.81.81,0,0,1-.07-.34.75.75,0,0,1,.08-.36.65.65,0,0,1,.2-.23.89.89,0,0,1,.28-.13l.32-.07.31,0,.27,0a.48.48,0,0,0,.19-.09.19.19,0,0,0,.06-.17.37.37,0,0,0,0-.18.27.27,0,0,0-.1-.1.4.4,0,0,0-.15-.05H9.85a.54.54,0,0,0-.33.09.4.4,0,0,0-.14.3Zm1.64.53-.11.06-.15,0-.16,0-.17,0-.16,0L9.43,38a.32.32,0,0,0-.09.11.35.35,0,0,0,0,.17.34.34,0,0,0,0,.16.26.26,0,0,0,.1.1.39.39,0,0,0,.14.05h.17a.64.64,0,0,0,.32-.07.47.47,0,0,0,.17-.17.53.53,0,0,0,.07-.2,1.35,1.35,0,0,0,0-.16Z" transform="translate(0 -2.5)"/><path d="M13,36.42v.47h-.52v1.28a.24.24,0,0,0,.3.3H13V39l-.2,0h-.22l-.31,0a.76.76,0,0,1-.26-.09.47.47,0,0,1-.18-.18.66.66,0,0,1-.06-.32V36.89h-.43v-.47h.43v-.78h.71v.78Z" transform="translate(0 -2.5)"/><path d="M14.09,38.38a.73.73,0,0,0,.83,0,.44.44,0,0,0,.19-.23h.63a1.18,1.18,0,0,1-.46.67,1.36,1.36,0,0,1-.75.2A1.5,1.5,0,0,1,14,39a1.16,1.16,0,0,1-.41-.28,1.27,1.27,0,0,1-.26-.43,1.6,1.6,0,0,1-.09-.55,1.49,1.49,0,0,1,.1-.54,1.25,1.25,0,0,1,.27-.43,1.26,1.26,0,0,1,.42-.29,1.33,1.33,0,0,1,.54-.11,1.23,1.23,0,0,1,.57.13,1.13,1.13,0,0,1,.4.34,1.4,1.4,0,0,1,.23.49,1.84,1.84,0,0,1,0,.58H13.92A.72.72,0,0,0,14.09,38.38Zm.8-1.36a.5.5,0,0,0-.39-.14.62.62,0,0,0-.28.06.53.53,0,0,0-.28.32.84.84,0,0,0,0,.17h1.16A.82.82,0,0,0,14.89,37Z" transform="translate(0 -2.5)"/><path d="M18,38.67a.74.74,0,0,1-.33.3,1.09,1.09,0,0,1-.46.09,1.1,1.1,0,0,1-.51-.11,1,1,0,0,1-.36-.3,1.39,1.39,0,0,1-.21-.44,1.84,1.84,0,0,1-.07-.52,1.72,1.72,0,0,1,.07-.5,1.31,1.31,0,0,1,.21-.43,1.09,1.09,0,0,1,.36-.3,1.08,1.08,0,0,1,.5-.11,1,1,0,0,1,.44.1.76.76,0,0,1,.33.29h0v-1.3h.71V39H18v-.33Zm0-1.28a.74.74,0,0,0-.1-.26.59.59,0,0,0-.19-.18.55.55,0,0,0-.29-.07.57.57,0,0,0-.29.07.55.55,0,0,0-.19.18.81.81,0,0,0-.11.26,1.44,1.44,0,0,0,0,.31,1.36,1.36,0,0,0,0,.3.81.81,0,0,0,.11.27.64.64,0,0,0,.2.19.53.53,0,0,0,.28.07.56.56,0,0,0,.29-.07.54.54,0,0,0,.19-.19A.84.84,0,0,0,18,38a1.53,1.53,0,0,0,0-.31A1.51,1.51,0,0,0,18,37.39Z" transform="translate(0 -2.5)"/><path d="M21.36,35.43v1.3h0a.75.75,0,0,1,.35-.29,1.2,1.2,0,0,1,.46-.09,1,1,0,0,1,.73.33,1.24,1.24,0,0,1,.25.42,2,2,0,0,1,0,1.22,1.24,1.24,0,0,1-.25.42,1,1,0,0,1-.34.25,1,1,0,0,1-.38.08,1.36,1.36,0,0,1-.51-.09.64.64,0,0,1-.34-.3h0V39h-.68V35.43Zm1.15,2a.81.81,0,0,0-.11-.26.56.56,0,0,0-.19-.18.52.52,0,0,0-.27-.07.53.53,0,0,0-.27.07.58.58,0,0,0-.19.18.84.84,0,0,0-.11.26,1.38,1.38,0,0,0,0,.32,1.35,1.35,0,0,0,0,.31.83.83,0,0,0,.11.27.58.58,0,0,0,.19.18.53.53,0,0,0,.27.07.52.52,0,0,0,.27-.07.56.56,0,0,0,.19-.18A.81.81,0,0,0,22.5,38a1.35,1.35,0,0,0,0-.31A1.38,1.38,0,0,0,22.5,37.39Z" transform="translate(0 -2.5)"/><path d="M24.65,39.77a1,1,0,0,1-.57.14h-.22l-.22,0v-.58l.2,0h.21a.28.28,0,0,0,.21-.11.35.35,0,0,0,.07-.21.42.42,0,0,0,0-.16l-.91-2.42h.76l.58,1.77h0l.57-1.77h.73L25,39.32A.87.87,0,0,1,24.65,39.77Z" transform="translate(0 -2.5)"/><path d="M27.71,36v-.58h.71V36Zm.71.4V39h-.71V36.42Z" transform="translate(0 -2.5)"/><path d="M30.21,36.88a.5.5,0,0,0-.28.08.61.61,0,0,0-.19.2.87.87,0,0,0-.1.27,1.49,1.49,0,0,0,0,.29,1.44,1.44,0,0,0,0,.29.87.87,0,0,0,.1.26.56.56,0,0,0,.18.19.51.51,0,0,0,.28.08.52.52,0,0,0,.39-.14.67.67,0,0,0,.17-.38h.69a1.17,1.17,0,0,1-.4.79,1.3,1.3,0,0,1-.85.27,1.42,1.42,0,0,1-.53-.1,1.2,1.2,0,0,1-.41-.27,1.23,1.23,0,0,1-.26-.42,1.42,1.42,0,0,1-.1-.53,1.72,1.72,0,0,1,.09-.56,1.26,1.26,0,0,1,.26-.45,1.17,1.17,0,0,1,.41-.29,1.41,1.41,0,0,1,.56-.11,1.62,1.62,0,0,1,.44.06,1.17,1.17,0,0,1,.38.18,1,1,0,0,1,.27.3,1,1,0,0,1,.12.43h-.7A.48.48,0,0,0,30.21,36.88Z" transform="translate(0 -2.5)"/><path d="M31.86,37.15a1.19,1.19,0,0,1,.69-.71,1.49,1.49,0,0,1,.55-.1,1.51,1.51,0,0,1,.55.1,1.18,1.18,0,0,1,.69.71,1.58,1.58,0,0,1,.09.56,1.56,1.56,0,0,1-.09.56,1.21,1.21,0,0,1-.27.43,1.17,1.17,0,0,1-.42.27,1.53,1.53,0,0,1-.55.1,1.51,1.51,0,0,1-.55-.1,1.18,1.18,0,0,1-.42-.27,1.22,1.22,0,0,1-.27-.43,1.58,1.58,0,0,1-.09-.56A1.6,1.6,0,0,1,31.86,37.15Zm.65.87a.8.8,0,0,0,.1.26.54.54,0,0,0,.19.19.58.58,0,0,0,.3.07.6.6,0,0,0,.3-.07.55.55,0,0,0,.2-.19.8.8,0,0,0,.1-.26,1.48,1.48,0,0,0,0-.3,1.51,1.51,0,0,0,0-.3.78.78,0,0,0-.1-.27.58.58,0,0,0-.2-.19.59.59,0,0,0-.3-.07.54.54,0,0,0-.49.26.78.78,0,0,0-.1.27,1.51,1.51,0,0,0,0,.3A1.48,1.48,0,0,0,32.5,38Z" transform="translate(0 -2.5)"/><path d="M35.57,36.42v.36h0a.81.81,0,0,1,.35-.33,1,1,0,0,1,.44-.1,1.2,1.2,0,0,1,.47.08.69.69,0,0,1,.29.21.81.81,0,0,1,.15.33,2,2,0,0,1,0,.44V39h-.71V37.54a.9.9,0,0,0-.1-.48.38.38,0,0,0-.35-.16.49.49,0,0,0-.42.17,1,1,0,0,0-.13.57V39H34.9V36.42Z" transform="translate(0 -2.5)"/><path d="M40,36.08l-.14.79h0a.89.89,0,0,1,.31-.21,1.16,1.16,0,0,1,.84,0,1,1,0,0,1,.34.25,1.12,1.12,0,0,1,.21.38,1.43,1.43,0,0,1,.07.46,1.22,1.22,0,0,1-.1.5,1.26,1.26,0,0,1-.69.67,1.3,1.3,0,0,1-.5.09,1.72,1.72,0,0,1-.49-.07,1.2,1.2,0,0,1-.41-.21,1,1,0,0,1-.29-.35,1.07,1.07,0,0,1-.11-.48h.71a.58.58,0,0,0,.18.38.56.56,0,0,0,.39.14.54.54,0,0,0,.25-.06.59.59,0,0,0,.19-.15.67.67,0,0,0,.12-.21.77.77,0,0,0,0-.25.78.78,0,0,0,0-.25.6.6,0,0,0-.12-.21.57.57,0,0,0-.19-.14.61.61,0,0,0-.25,0,.63.63,0,0,0-.31.07.72.72,0,0,0-.22.21h-.64l.34-1.93h2v.58Z" transform="translate(0 -2.5)"/><path d="M41.84,38.19v-.65l1.52-2H44v2.11h.46v.58H44V39h-.68v-.81Zm1.46-1.8-.91,1.22h.92V36.39Z" transform="translate(0 -2.5)"/></g><g style="isolation:isolate"><path d="M0,41.89v-.47H.42v-.2a.77.77,0,0,1,.22-.56.87.87,0,0,1,.65-.22h.38V41L1.4,41A.27.27,0,0,0,1.2,41a.33.33,0,0,0-.06.23v.16h.49v.47H1.13V44H.42V41.89Z" transform="translate(0 -2.5)"/><path d="M2.61,41.42v.48h0a.88.88,0,0,1,.13-.22A.89.89,0,0,1,3,41.5a1,1,0,0,1,.23-.11.86.86,0,0,1,.26,0l.16,0V42l-.12,0H3.35a.75.75,0,0,0-.33.07.57.57,0,0,0-.22.18.72.72,0,0,0-.12.26,1.43,1.43,0,0,0,0,.33V44H1.94V41.42Z" transform="translate(0 -2.5)"/><path d="M3.81,42.15a1.19,1.19,0,0,1,.69-.71,1.49,1.49,0,0,1,.55-.1,1.51,1.51,0,0,1,.55.1,1.18,1.18,0,0,1,.69.71,1.58,1.58,0,0,1,.1.56,1.56,1.56,0,0,1-.1.56A1.21,1.21,0,0,1,6,43.7,1.18,1.18,0,0,1,5.6,44a1.53,1.53,0,0,1-.55.1A1.51,1.51,0,0,1,4.5,44a1.18,1.18,0,0,1-.42-.27,1.21,1.21,0,0,1-.27-.43,1.56,1.56,0,0,1-.1-.56A1.58,1.58,0,0,1,3.81,42.15Zm.65.87a.8.8,0,0,0,.1.26.54.54,0,0,0,.19.19.58.58,0,0,0,.3.07.6.6,0,0,0,.3-.07.54.54,0,0,0,.19-.19.8.8,0,0,0,.1-.26,1.52,1.52,0,0,0,0-.3,1.54,1.54,0,0,0,0-.3.78.78,0,0,0-.1-.27A.58.58,0,0,0,5.35,42a.59.59,0,0,0-.3-.07.54.54,0,0,0-.49.26.78.78,0,0,0-.1.27,1.54,1.54,0,0,0,0,.3A1.52,1.52,0,0,0,4.45,43Z" transform="translate(0 -2.5)"/><path d="M7.53,41.42v.35h0a1,1,0,0,1,.34-.31.91.91,0,0,1,.45-.11,1,1,0,0,1,.45.1.63.63,0,0,1,.31.33,1.1,1.1,0,0,1,.31-.3.84.84,0,0,1,.47-.13,1.38,1.38,0,0,1,.38,0,.78.78,0,0,1,.3.16.74.74,0,0,1,.19.29,1.16,1.16,0,0,1,.07.43V44H10.1V42.54c0-.09,0-.17,0-.25a.52.52,0,0,0-.06-.2A.33.33,0,0,0,9.91,42a.48.48,0,0,0-.24,0,.45.45,0,0,0-.24.06.42.42,0,0,0-.15.15.59.59,0,0,0-.07.21,1.61,1.61,0,0,0,0,.24V44H8.48V42.55c0-.08,0-.15,0-.23a.62.62,0,0,0,0-.21A.31.31,0,0,0,8.31,42a.46.46,0,0,0-.26-.06l-.13,0a.43.43,0,0,0-.16.08.5.5,0,0,0-.13.18.72.72,0,0,0-.06.31V44H6.86V41.42Z" transform="translate(0 -2.5)"/><path d="M14.19,41.42v.47h-.52v1.28a.24.24,0,0,0,.3.3h.22V44L14,44h-.22l-.31,0a.76.76,0,0,1-.26-.09.48.48,0,0,1-.18-.18.67.67,0,0,1-.06-.32V41.89h-.43v-.47H13v-.78h.71v.78Z" transform="translate(0 -2.5)"/><path d="M15.23,40.43v1.35h0a.82.82,0,0,1,.34-.33.93.93,0,0,1,.41-.1,1.2,1.2,0,0,1,.47.08.7.7,0,0,1,.29.21.83.83,0,0,1,.15.33,2.09,2.09,0,0,1,0,.44V44h-.71V42.54a.9.9,0,0,0-.1-.48.39.39,0,0,0-.35-.16.49.49,0,0,0-.42.17,1,1,0,0,0-.13.57V44h-.71V40.43Z" transform="translate(0 -2.5)"/><path d="M18.25,43.38a.73.73,0,0,0,.83,0,.45.45,0,0,0,.19-.23h.63a1.19,1.19,0,0,1-.46.67,1.36,1.36,0,0,1-.75.2,1.49,1.49,0,0,1-.55-.1,1.15,1.15,0,0,1-.42-.28,1.26,1.26,0,0,1-.26-.43,1.57,1.57,0,0,1-.09-.55,1.51,1.51,0,0,1,.09-.54,1.28,1.28,0,0,1,.27-.43,1.26,1.26,0,0,1,.42-.29,1.33,1.33,0,0,1,.54-.11,1.23,1.23,0,0,1,.58.13,1.15,1.15,0,0,1,.4.34,1.4,1.4,0,0,1,.23.49,1.81,1.81,0,0,1,0,.58H18.07A.72.72,0,0,0,18.25,43.38Zm.8-1.36a.5.5,0,0,0-.39-.14.61.61,0,0,0-.28.06.53.53,0,0,0-.18.14.51.51,0,0,0-.09.18.85.85,0,0,0,0,.17h1.16A.83.83,0,0,0,19.05,42Z" transform="translate(0 -2.5)"/><path d="M22.6,40.43l1.49,2.4h0v-2.4h.74V44h-.79l-1.49-2.39h0V44h-.74V40.43Z" transform="translate(0 -2.5)"/><path d="M25.47,42.15a1.19,1.19,0,0,1,.69-.71,1.48,1.48,0,0,1,.55-.1,1.5,1.5,0,0,1,.55.1,1.2,1.2,0,0,1,.42.28,1.23,1.23,0,0,1,.27.43,1.6,1.6,0,0,1,.09.56,1.58,1.58,0,0,1-.09.56,1.24,1.24,0,0,1-.27.43,1.17,1.17,0,0,1-.42.27,1.52,1.52,0,0,1-.55.1,1.5,1.5,0,0,1-.55-.1,1.17,1.17,0,0,1-.42-.27,1.21,1.21,0,0,1-.27-.43,1.56,1.56,0,0,1-.09-.56A1.58,1.58,0,0,1,25.47,42.15Zm.65.87a.8.8,0,0,0,.1.26.56.56,0,0,0,.19.19.58.58,0,0,0,.3.07.6.6,0,0,0,.3-.07.55.55,0,0,0,.2-.19.8.8,0,0,0,.1-.26,1.48,1.48,0,0,0,0-.3,1.51,1.51,0,0,0,0-.3.78.78,0,0,0-.1-.27A.58.58,0,0,0,27,42a.59.59,0,0,0-.3-.07.57.57,0,0,0-.3.07.59.59,0,0,0-.19.19.78.78,0,0,0-.1.27,1.51,1.51,0,0,0,0,.3A1.48,1.48,0,0,0,26.12,43Z" transform="translate(0 -2.5)"/><path d="M30.26,44v-.36h0a.79.79,0,0,1-.35.33,1,1,0,0,1-.44.1A1.25,1.25,0,0,1,29,44a.67.67,0,0,1-.29-.21.83.83,0,0,1-.15-.33,2,2,0,0,1,0-.44V41.42h.71v1.46a.9.9,0,0,0,.1.48.39.39,0,0,0,.35.16.49.49,0,0,0,.42-.17,1,1,0,0,0,.13-.57V41.42h.71V44Z" transform="translate(0 -2.5)"/><path d="M32.15,41.42v.36h0a.81.81,0,0,1,.35-.33,1,1,0,0,1,.44-.1,1.2,1.2,0,0,1,.47.08.68.68,0,0,1,.29.21.84.84,0,0,1,.15.33,2.15,2.15,0,0,1,0,.44V44h-.71V42.54a.91.91,0,0,0-.1-.48.39.39,0,0,0-.36-.16.49.49,0,0,0-.42.17,1,1,0,0,0-.13.57V44h-.71V41.42Z" transform="translate(0 -2.5)"/><path d="M37.51,40.43a1.49,1.49,0,0,1,.57.1,1.07,1.07,0,0,1,.38.26,1,1,0,0,1,.21.37,1.35,1.35,0,0,1,0,.85,1,1,0,0,1-.21.37,1.05,1.05,0,0,1-.38.26,1.47,1.47,0,0,1-.57.1h-.83V44H35.9V40.43Zm-.21,1.68.26,0a.59.59,0,0,0,.22-.08.42.42,0,0,0,.15-.16.56.56,0,0,0,.06-.27.56.56,0,0,0-.06-.28.42.42,0,0,0-.15-.16.61.61,0,0,0-.22-.08l-.26,0h-.61v1.07Z" transform="translate(0 -2.5)"/><path d="M39.84,41.42v.48h0a.9.9,0,0,1,.33-.4,1,1,0,0,1,.23-.11.86.86,0,0,1,.26,0l.16,0V42l-.12,0h-.13a.75.75,0,0,0-.33.07.57.57,0,0,0-.22.18.71.71,0,0,0-.12.26,1.43,1.43,0,0,0,0,.33V44h-.71V41.42Z" transform="translate(0 -2.5)"/><path d="M41,42.15a1.19,1.19,0,0,1,.27-.43,1.22,1.22,0,0,1,.42-.28,1.49,1.49,0,0,1,.55-.1,1.51,1.51,0,0,1,.55.1,1.18,1.18,0,0,1,.69.71,1.58,1.58,0,0,1,.1.56,1.56,1.56,0,0,1-.1.56,1.22,1.22,0,0,1-.27.43,1.19,1.19,0,0,1-.42.27,1.53,1.53,0,0,1-.55.1,1.51,1.51,0,0,1-.55-.1,1.17,1.17,0,0,1-.69-.7,1.54,1.54,0,0,1-.1-.56A1.56,1.56,0,0,1,41,42.15Zm.64.87a.8.8,0,0,0,.1.26.54.54,0,0,0,.19.19.58.58,0,0,0,.3.07.6.6,0,0,0,.3-.07.54.54,0,0,0,.19-.19.8.8,0,0,0,.1-.26,1.55,1.55,0,0,0,0-.3,1.58,1.58,0,0,0,0-.3.78.78,0,0,0-.1-.27.58.58,0,0,0-.19-.19.59.59,0,0,0-.3-.07.54.54,0,0,0-.49.26.78.78,0,0,0-.1.27,1.58,1.58,0,0,0,0,.3A1.55,1.55,0,0,0,41.68,43Z" transform="translate(0 -2.5)"/><path d="M43.87,44.32a.41.41,0,0,0,.19,0c.06,0,.08-.09.08-.19V41.42h.71v2.71a1.2,1.2,0,0,1,0,.34.53.53,0,0,1-.14.24.63.63,0,0,1-.28.14,1.76,1.76,0,0,1-.45,0l-.22,0V44.3ZM44.14,41v-.58h.71V41Z" transform="translate(0 -2.5)"/><path d="M46.22,43.38a.73.73,0,0,0,.83,0,.45.45,0,0,0,.19-.23h.63a1.19,1.19,0,0,1-.46.67,1.36,1.36,0,0,1-.75.2,1.49,1.49,0,0,1-.55-.1,1.15,1.15,0,0,1-.42-.28,1.26,1.26,0,0,1-.26-.43,1.57,1.57,0,0,1-.09-.55,1.51,1.51,0,0,1,.09-.54,1.28,1.28,0,0,1,.27-.43,1.26,1.26,0,0,1,.42-.29,1.33,1.33,0,0,1,.54-.11,1.23,1.23,0,0,1,.58.13,1.15,1.15,0,0,1,.4.34,1.4,1.4,0,0,1,.23.49,1.81,1.81,0,0,1,0,.58H46A.72.72,0,0,0,46.22,43.38ZM47,42a.5.5,0,0,0-.39-.14.61.61,0,0,0-.28.06.53.53,0,0,0-.18.14.51.51,0,0,0-.09.18.85.85,0,0,0,0,.17H47.2A.83.83,0,0,0,47,42Z" transform="translate(0 -2.5)"/><path d="M49.57,41.88a.5.5,0,0,0-.28.08.59.59,0,0,0-.19.2.87.87,0,0,0-.1.27,1.49,1.49,0,0,0,0,.29A1.44,1.44,0,0,0,49,43a.9.9,0,0,0,.1.26.56.56,0,0,0,.18.19.5.5,0,0,0,.28.08.52.52,0,0,0,.39-.14.67.67,0,0,0,.17-.38h.69a1.17,1.17,0,0,1-.4.79,1.29,1.29,0,0,1-.84.27A1.42,1.42,0,0,1,49,44a1.19,1.19,0,0,1-.41-.27,1.23,1.23,0,0,1-.26-.42,1.44,1.44,0,0,1-.1-.53,1.72,1.72,0,0,1,.09-.56,1.26,1.26,0,0,1,.26-.45,1.17,1.17,0,0,1,.42-.29,1.4,1.4,0,0,1,.56-.11,1.63,1.63,0,0,1,.44.06,1.18,1.18,0,0,1,.38.18,1,1,0,0,1,.27.3,1,1,0,0,1,.12.43h-.7A.47.47,0,0,0,49.57,41.88Z" transform="translate(0 -2.5)"/><path d="M52.63,41.42v.47H52.1v1.28a.24.24,0,0,0,.3.3h.22V44l-.2,0h-.22l-.31,0a.76.76,0,0,1-.26-.09.48.48,0,0,1-.18-.18.67.67,0,0,1-.06-.32V41.89H51v-.47h.43v-.78h.71v.78Z" transform="translate(0 -2.5)"/></g></svg>