<svg id="Layer_1" data-name="Layer 1" xmlns="http://www.w3.org/2000/svg" viewBox="0 0 67 87.91"><title>noun_1327070_cc</title><path d="M50,29.3a1,1,0,0,0-.8-.7l-9.9-1.4-4.4-9a1,1,0,0,0-1.8,0l-4.4,9-9.9,1.4a1,1,0,0,0-.8.7.91.91,0,0,0,.3,1l7.2,7-1.7,9.9a1,1,0,0,0,.4,1,1.07,1.07,0,0,0,1.1.1l8.9-4.7,8.9,4.7a1.11,1.11,0,0,0,1.1-.1,1,1,0,0,0,.4-1l-1.7-9.9,7.2-7A1.73,1.73,0,0,0,50,29.3Zm-9.1,6.9a1.4,1.4,0,0,0-.3.9L42,45.5l-7.5-4a.75.75,0,0,0-.9,0l-7.5,4,1.4-8.4a1,1,0,0,0-.3-.9l-6.1-5.9,8.4-1.2c.3,0,.6-.3.8-.5L34.1,21l3.8,7.6a.79.79,0,0,0,.8.5l8.4,1.2Z" transform="translate(0 -1)" style="fill:#3fc6cc"/><path d="M34,13.3A20.7,20.7,0,1,0,54.7,34,20.74,20.74,0,0,0,34,13.3Zm0,39.4A18.7,18.7,0,1,1,52.7,34,18.74,18.74,0,0,1,34,52.7Z" transform="translate(0 -1)" style="fill:#3fc6cc"/><path d="M51.1,18l11.5-2.1a1,1,0,0,0,.8-.7,1.16,1.16,0,0,0-.2-1l-2.1-2.1,5.6-5.6a1,1,0,0,0,0-1.4L63,1.3a1,1,0,0,0-1.4,0L56,6.9,53.9,4.8a.8.8,0,0,0-1-.2,1,1,0,0,0-.7.8L50,16.9a.81.81,0,0,0,.3.9A.78.78,0,0,0,51.1,18ZM53.7,7.6l1.5,1.5a1,1,0,0,0,1.4,0l5.6-5.6,2.3,2.3-5.6,5.6a1,1,0,0,0,0,1.4l1.5,1.5-8.2,1.5Z" transform="translate(0 -1)" style="fill:#3fc6cc"/><path d="M16.9,50,5.3,52.1a1,1,0,0,0-.8.7,1.16,1.16,0,0,0,.2,1l2.1,2.1L1.2,61.5a1,1,0,0,0,0,1.4L5,66.7a1.08,1.08,0,0,0,.7.3.91.91,0,0,0,.7-.3L12,61.1l2.1,2.1a.78.78,0,0,0,1,.2,1,1,0,0,0,.7-.8L18,51.1a.81.81,0,0,0-.3-.9A.78.78,0,0,0,16.9,50ZM14.3,60.4l-1.5-1.5a1,1,0,0,0-1.4,0L5.8,64.5,3.5,62.2l5.6-5.6a1,1,0,0,0,0-1.4L7.6,53.7l8.2-1.5Z" transform="translate(0 -1)" style="fill:#3fc6cc"/><path d="M61.1,55.9l2.1-2.1a.78.78,0,0,0,.2-1,1,1,0,0,0-.8-.7L51.1,50a.81.81,0,0,0-.9.3,1.4,1.4,0,0,0-.3.9L52,62.7a1,1,0,0,0,.7.8,1.16,1.16,0,0,0,1-.2l2.1-2.1,5.6,5.6a1,1,0,0,0,1.4,0L66.5,63a1,1,0,0,0,0-1.4Zm1.1,8.7L56.6,59a1.08,1.08,0,0,0-.7-.3.91.91,0,0,0-.7.3l-1.5,1.5-1.5-8.2,8.2,1.5-1.5,1.5a1,1,0,0,0,0,1.4l5.6,5.6Z" transform="translate(0 -1)" style="fill:#3fc6cc"/><path d="M6.9,12.1,4.8,14.2a.78.78,0,0,0-.2,1,1,1,0,0,0,.8.7L16.9,18h.2a.91.91,0,0,0,.7-.3,1.4,1.4,0,0,0,.3-.9L15.9,5.3a1,1,0,0,0-.7-.8,1.16,1.16,0,0,0-1,.2L12.1,6.8,6.5,1.3a1,1,0,0,0-1.4,0L1.3,5a1.14,1.14,0,0,0-.3.8.91.91,0,0,0,.3.7ZM5.7,3.4,11.3,9a1,1,0,0,0,1.4,0l1.5-1.5,1.5,8.2L7.5,14.2,9,12.7a1,1,0,0,0,0-1.4L3.4,5.8Z" transform="translate(0 -1)" style="fill:#3fc6cc"/><g style="isolation:isolate"><path d="M2.63,80.38A.81.81,0,0,0,1.94,80a.91.91,0,0,0-.45.1.85.85,0,0,0-.3.28,1.19,1.19,0,0,0-.17.39,2,2,0,0,0-.05.46,1.84,1.84,0,0,0,.05.44,1.18,1.18,0,0,0,.17.38.86.86,0,0,0,.3.27.91.91,0,0,0,.45.1.73.73,0,0,0,.56-.22,1,1,0,0,0,.25-.58h.76a1.82,1.82,0,0,1-.16.61,1.45,1.45,0,0,1-.33.46,1.42,1.42,0,0,1-.48.29,1.76,1.76,0,0,1-.6.1,1.84,1.84,0,0,1-.74-.14,1.58,1.58,0,0,1-.55-.39A1.74,1.74,0,0,1,.31,82a2.15,2.15,0,0,1-.12-.73,2.23,2.23,0,0,1,.12-.74,1.78,1.78,0,0,1,.34-.6,1.58,1.58,0,0,1,.55-.4,1.8,1.8,0,0,1,.74-.15,1.8,1.8,0,0,1,.56.08,1.51,1.51,0,0,1,.47.25,1.34,1.34,0,0,1,.34.4,1.45,1.45,0,0,1,.17.55H2.73A.64.64,0,0,0,2.63,80.38Z" transform="translate(0 -1)"/><path d="M4.65,80.42v.48h0a.88.88,0,0,1,.13-.22A.89.89,0,0,1,5,80.5a1,1,0,0,1,.23-.11.86.86,0,0,1,.26,0l.16,0V81l-.12,0H5.39a.75.75,0,0,0-.33.07.57.57,0,0,0-.22.18.72.72,0,0,0-.12.26,1.43,1.43,0,0,0,0,.33V83H4V80.42Z" transform="translate(0 -1)"/><path d="M6.59,82.38a.73.73,0,0,0,.83,0,.45.45,0,0,0,.19-.23h.63a1.19,1.19,0,0,1-.46.67,1.36,1.36,0,0,1-.75.2,1.49,1.49,0,0,1-.55-.1,1.16,1.16,0,0,1-.42-.28,1.26,1.26,0,0,1-.26-.43,1.57,1.57,0,0,1-.09-.55,1.51,1.51,0,0,1,.1-.54,1.24,1.24,0,0,1,.69-.72A1.33,1.33,0,0,1,7,80.34a1.23,1.23,0,0,1,.58.13,1.15,1.15,0,0,1,.4.34,1.41,1.41,0,0,1,.23.49,1.82,1.82,0,0,1,.05.58H6.42A.72.72,0,0,0,6.59,82.38ZM7.39,81A.5.5,0,0,0,7,80.88a.62.62,0,0,0-.28.06.53.53,0,0,0-.18.14.52.52,0,0,0-.09.18.81.81,0,0,0,0,.17H7.57A.82.82,0,0,0,7.39,81Z" transform="translate(0 -1)"/><path d="M8.67,81.21a.82.82,0,0,1,.13-.42.84.84,0,0,1,.28-.26,1.2,1.2,0,0,1,.38-.14,2.18,2.18,0,0,1,.43,0l.4,0a1.2,1.2,0,0,1,.36.11.71.71,0,0,1,.27.22.62.62,0,0,1,.1.38v1.34a2.72,2.72,0,0,0,0,.33.6.6,0,0,0,.07.24h-.72a1,1,0,0,1,0-.12.94.94,0,0,1,0-.13.92.92,0,0,1-.4.25,1.6,1.6,0,0,1-.47.07,1.26,1.26,0,0,1-.35,0,.78.78,0,0,1-.28-.14.65.65,0,0,1-.19-.24.81.81,0,0,1-.07-.34.75.75,0,0,1,.08-.36.65.65,0,0,1,.2-.23.89.89,0,0,1,.28-.13l.32-.07.31,0,.27,0a.48.48,0,0,0,.19-.09.19.19,0,0,0,.06-.17.37.37,0,0,0,0-.18.27.27,0,0,0-.1-.1.4.4,0,0,0-.15-.05H9.85a.54.54,0,0,0-.33.09.4.4,0,0,0-.14.3Zm1.64.53-.11.06-.15,0-.16,0-.17,0-.16,0L9.43,82a.32.32,0,0,0-.09.11.35.35,0,0,0,0,.17.34.34,0,0,0,0,.16.26.26,0,0,0,.1.1.39.39,0,0,0,.14.05h.17a.64.64,0,0,0,.32-.07.47.47,0,0,0,.17-.17.53.53,0,0,0,.07-.2,1.35,1.35,0,0,0,0-.16Z" transform="translate(0 -1)"/><path d="M13,80.42v.47h-.52v1.28a.24.24,0,0,0,.3.3H13V83l-.2,0h-.22l-.31,0a.76.76,0,0,1-.26-.09.47.47,0,0,1-.18-.18.66.66,0,0,1-.06-.32V80.89h-.43v-.47h.43v-.78h.71v.78Z" transform="translate(0 -1)"/><path d="M14.09,82.38a.73.73,0,0,0,.83,0,.45.45,0,0,0,.19-.23h.63a1.19,1.19,0,0,1-.46.67,1.36,1.36,0,0,1-.75.2A1.49,1.49,0,0,1,14,83a1.16,1.16,0,0,1-.42-.28,1.26,1.26,0,0,1-.26-.43,1.57,1.57,0,0,1-.09-.55,1.51,1.51,0,0,1,.1-.54,1.24,1.24,0,0,1,.69-.72,1.33,1.33,0,0,1,.54-.11,1.23,1.23,0,0,1,.58.13,1.15,1.15,0,0,1,.4.34,1.41,1.41,0,0,1,.23.49,1.82,1.82,0,0,1,.05.58H13.92A.72.72,0,0,0,14.09,82.38Zm.8-1.36a.5.5,0,0,0-.39-.14.62.62,0,0,0-.28.06.53.53,0,0,0-.18.14.52.52,0,0,0-.09.18.81.81,0,0,0,0,.17h1.15A.82.82,0,0,0,14.89,81Z" transform="translate(0 -1)"/><path d="M18,82.67a.73.73,0,0,1-.33.3,1.09,1.09,0,0,1-.46.09,1.1,1.1,0,0,1-.51-.11,1,1,0,0,1-.36-.3,1.38,1.38,0,0,1-.21-.44,1.86,1.86,0,0,1-.07-.52,1.74,1.74,0,0,1,.07-.5,1.31,1.31,0,0,1,.21-.43,1,1,0,0,1,.86-.41,1,1,0,0,1,.44.1.76.76,0,0,1,.33.29h0v-1.3h.71V83H18v-.33Zm0-1.28a.74.74,0,0,0-.1-.26.58.58,0,0,0-.19-.18.55.55,0,0,0-.29-.07.57.57,0,0,0-.29.07.56.56,0,0,0-.19.18.83.83,0,0,0-.1.26,1.44,1.44,0,0,0,0,.31,1.34,1.34,0,0,0,0,.3.81.81,0,0,0,.11.27.64.64,0,0,0,.19.19.53.53,0,0,0,.28.07.56.56,0,0,0,.29-.07.54.54,0,0,0,.19-.19A.84.84,0,0,0,18,82a1.57,1.57,0,0,0,0-.31A1.54,1.54,0,0,0,18,81.39Z" transform="translate(0 -1)"/><path d="M21.35,79.43v1.3h0a.75.75,0,0,1,.35-.29,1.2,1.2,0,0,1,.46-.09,1,1,0,0,1,.73.33,1.25,1.25,0,0,1,.25.42,2,2,0,0,1,0,1.22,1.25,1.25,0,0,1-.25.42,1,1,0,0,1-.34.25,1,1,0,0,1-.38.08,1.35,1.35,0,0,1-.51-.09.64.64,0,0,1-.34-.3h0V83h-.67V79.43Zm1.15,2a.84.84,0,0,0-.11-.26.58.58,0,0,0-.19-.18.58.58,0,0,0-.54,0,.57.57,0,0,0-.19.18.81.81,0,0,0-.11.26,1.38,1.38,0,0,0,0,.32,1.35,1.35,0,0,0,0,.31.81.81,0,0,0,.11.27.57.57,0,0,0,.19.18.58.58,0,0,0,.54,0,.58.58,0,0,0,.19-.18A.83.83,0,0,0,22.5,82a1.35,1.35,0,0,0,0-.31A1.38,1.38,0,0,0,22.5,81.39Z" transform="translate(0 -1)"/><path d="M24.65,83.77a1,1,0,0,1-.57.14h-.22l-.22,0v-.58l.2,0h.21a.28.28,0,0,0,.21-.11.35.35,0,0,0,.07-.21.43.43,0,0,0,0-.16l-.9-2.42h.75l.58,1.77h0l.56-1.77h.73L25,83.32A.87.87,0,0,1,24.65,83.77Z" transform="translate(0 -1)"/><path d="M28.53,83l-1.16-3.57h.81L29,81.94h0l.8-2.51h.81L29.42,83Z" transform="translate(0 -1)"/><path d="M31.32,82.38a.73.73,0,0,0,.83,0,.45.45,0,0,0,.19-.23H33a1.19,1.19,0,0,1-.46.67,1.36,1.36,0,0,1-.75.2,1.49,1.49,0,0,1-.55-.1,1.16,1.16,0,0,1-.42-.28,1.26,1.26,0,0,1-.26-.43,1.57,1.57,0,0,1-.09-.55,1.51,1.51,0,0,1,.1-.54,1.24,1.24,0,0,1,.69-.72,1.33,1.33,0,0,1,.54-.11,1.23,1.23,0,0,1,.58.13,1.15,1.15,0,0,1,.4.34,1.41,1.41,0,0,1,.23.49,1.82,1.82,0,0,1,.05.58H31.14A.72.72,0,0,0,31.32,82.38Zm.8-1.36a.5.5,0,0,0-.39-.14.62.62,0,0,0-.28.06.53.53,0,0,0-.18.14.52.52,0,0,0-.09.18.81.81,0,0,0,0,.17H32.3A.82.82,0,0,0,32.12,81Z" transform="translate(0 -1)"/><path d="M34.66,80.88a.5.5,0,0,0-.28.08.61.61,0,0,0-.19.2.87.87,0,0,0-.1.27,1.45,1.45,0,0,0,0,.29,1.4,1.4,0,0,0,0,.29.88.88,0,0,0,.1.26.56.56,0,0,0,.18.19.5.5,0,0,0,.28.08.52.52,0,0,0,.39-.14.67.67,0,0,0,.17-.38h.69a1.17,1.17,0,0,1-.4.79,1.29,1.29,0,0,1-.85.27,1.43,1.43,0,0,1-.53-.1,1.19,1.19,0,0,1-.41-.27,1.24,1.24,0,0,1-.26-.42,1.44,1.44,0,0,1-.1-.53,1.73,1.73,0,0,1,.09-.56,1.26,1.26,0,0,1,.26-.45,1.17,1.17,0,0,1,.42-.29,1.4,1.4,0,0,1,.56-.11,1.62,1.62,0,0,1,.44.06,1.17,1.17,0,0,1,.38.18,1,1,0,0,1,.27.3,1,1,0,0,1,.12.43h-.7A.48.48,0,0,0,34.66,80.88Z" transform="translate(0 -1)"/><path d="M37.72,80.42v.47H37.2v1.28a.24.24,0,0,0,.3.3h.22V83l-.2,0H37.3L37,83a.76.76,0,0,1-.26-.09.46.46,0,0,1-.18-.18.67.67,0,0,1-.06-.32V80.89h-.43v-.47h.43v-.78h.71v.78Z" transform="translate(0 -1)"/><path d="M38.07,81.15a1.19,1.19,0,0,1,.69-.71,1.49,1.49,0,0,1,.55-.1,1.51,1.51,0,0,1,.55.1,1.18,1.18,0,0,1,.69.71,1.58,1.58,0,0,1,.09.56,1.56,1.56,0,0,1-.09.56,1.21,1.21,0,0,1-.27.43,1.17,1.17,0,0,1-.42.27,1.53,1.53,0,0,1-.55.1,1.51,1.51,0,0,1-.55-.1,1.18,1.18,0,0,1-.42-.27,1.22,1.22,0,0,1-.27-.43,1.58,1.58,0,0,1-.09-.56A1.6,1.6,0,0,1,38.07,81.15Zm.65.87a.8.8,0,0,0,.1.26.54.54,0,0,0,.19.19.58.58,0,0,0,.3.07.6.6,0,0,0,.3-.07.55.55,0,0,0,.2-.19.8.8,0,0,0,.1-.26,1.48,1.48,0,0,0,0-.3,1.51,1.51,0,0,0,0-.3.78.78,0,0,0-.1-.27.58.58,0,0,0-.2-.19.59.59,0,0,0-.3-.07.54.54,0,0,0-.49.26.78.78,0,0,0-.1.27,1.51,1.51,0,0,0,0,.3A1.48,1.48,0,0,0,38.72,82Z" transform="translate(0 -1)"/><path d="M41.79,80.42v.48h0a.88.88,0,0,1,.13-.22.9.9,0,0,1,.2-.18,1,1,0,0,1,.24-.11.85.85,0,0,1,.26,0l.15,0V81l-.12,0h-.13a.74.74,0,0,0-.33.07.58.58,0,0,0-.22.18.72.72,0,0,0-.12.26,1.43,1.43,0,0,0,0,.33V83h-.71V80.42Z" transform="translate(0 -1)"/><path d="M43.66,82.36a.42.42,0,0,0,.12.13.53.53,0,0,0,.17.08l.2,0,.16,0,.15-.05a.34.34,0,0,0,.11-.1.26.26,0,0,0,0-.16c0-.11-.07-.19-.21-.24a4.09,4.09,0,0,0-.59-.16l-.3-.08a1,1,0,0,1-.26-.12.61.61,0,0,1-.19-.19.55.55,0,0,1-.07-.29.79.79,0,0,1,.1-.41.72.72,0,0,1,.26-.25,1.12,1.12,0,0,1,.36-.13,2.19,2.19,0,0,1,.41,0,2.07,2.07,0,0,1,.41,0,1.11,1.11,0,0,1,.35.13.82.82,0,0,1,.26.25.85.85,0,0,1,.12.4h-.68a.31.31,0,0,0-.15-.28.7.7,0,0,0-.33-.07H44l-.13,0a.26.26,0,0,0-.1.07.19.19,0,0,0,0,.13.2.2,0,0,0,.07.16.55.55,0,0,0,.18.1l.26.07.29.07.3.08a1,1,0,0,1,.26.13.65.65,0,0,1,.19.21.6.6,0,0,1,.07.3.79.79,0,0,1-.37.71,1.08,1.08,0,0,1-.38.15,2.2,2.2,0,0,1-.43,0,2.14,2.14,0,0,1-.44,0,1.14,1.14,0,0,1-.38-.15.85.85,0,0,1-.27-.28.87.87,0,0,1-.12-.43h.67A.38.38,0,0,0,43.66,82.36Z" transform="translate(0 -1)"/><path d="M48.31,79.43l.83,2.46h0l.79-2.46h1.11V83h-.74V80.47h0L49.43,83h-.6L48,80.5h0V83h-.74V79.43Z" transform="translate(0 -1)"/><path d="M51.64,81.21a.82.82,0,0,1,.13-.42.84.84,0,0,1,.28-.26,1.2,1.2,0,0,1,.38-.14,2.18,2.18,0,0,1,.43,0l.4,0a1.21,1.21,0,0,1,.36.11.72.72,0,0,1,.27.22.62.62,0,0,1,.1.38v1.34a2.63,2.63,0,0,0,0,.33.58.58,0,0,0,.07.24h-.72a.9.9,0,0,1,0-.12.94.94,0,0,1,0-.13.92.92,0,0,1-.4.25,1.6,1.6,0,0,1-.47.07,1.27,1.27,0,0,1-.35,0,.78.78,0,0,1-.28-.14.65.65,0,0,1-.19-.24.81.81,0,0,1-.07-.34.75.75,0,0,1,.08-.36.66.66,0,0,1,.2-.23.89.89,0,0,1,.28-.13l.32-.07.32,0,.27,0a.48.48,0,0,0,.19-.09.19.19,0,0,0,.06-.17.37.37,0,0,0,0-.18.28.28,0,0,0-.1-.1.41.41,0,0,0-.15-.05h-.18a.54.54,0,0,0-.33.09.4.4,0,0,0-.14.3Zm1.64.53a.33.33,0,0,1-.11.06l-.15,0-.16,0-.17,0-.16,0L52.4,82a.33.33,0,0,0-.09.11.35.35,0,0,0,0,.17.33.33,0,0,0,0,.16.26.26,0,0,0,.09.1.39.39,0,0,0,.14.05h.17a.63.63,0,0,0,.32-.07.47.47,0,0,0,.17-.17.54.54,0,0,0,.07-.2,1.44,1.44,0,0,0,0-.16Z" transform="translate(0 -1)"/><path d="M55.21,80.42v.48h0a.9.9,0,0,1,.33-.4,1,1,0,0,1,.23-.11.86.86,0,0,1,.26,0l.16,0V81l-.12,0h-.13a.75.75,0,0,0-.33.07.57.57,0,0,0-.22.18.71.71,0,0,0-.12.26,1.43,1.43,0,0,0,0,.33V83h-.71V80.42Z" transform="translate(0 -1)"/><path d="M57.26,79.43v1.92l.89-.93H59l-1,1L59.1,83h-.86l-.71-1.16-.27.27V83h-.71V79.43Z" transform="translate(0 -1)"/><path d="M60.11,82.38a.73.73,0,0,0,.83,0,.45.45,0,0,0,.19-.23h.63a1.19,1.19,0,0,1-.46.67,1.36,1.36,0,0,1-.75.2A1.48,1.48,0,0,1,60,83a1.16,1.16,0,0,1-.42-.28,1.25,1.25,0,0,1-.26-.43,1.55,1.55,0,0,1-.09-.55,1.53,1.53,0,0,1,.09-.54,1.24,1.24,0,0,1,.69-.72,1.33,1.33,0,0,1,.54-.11,1.23,1.23,0,0,1,.58.13,1.16,1.16,0,0,1,.4.34,1.41,1.41,0,0,1,.23.49,1.81,1.81,0,0,1,.05.58H59.94A.72.72,0,0,0,60.11,82.38Zm.8-1.36a.5.5,0,0,0-.39-.14.62.62,0,0,0-.28.06.54.54,0,0,0-.18.14.5.5,0,0,0-.09.18.78.78,0,0,0,0,.17h1.15A.82.82,0,0,0,60.92,81Z" transform="translate(0 -1)"/><path d="M63.64,80.42v.47h-.52v1.28a.24.24,0,0,0,.3.3h.22V83l-.2,0h-.22l-.31,0a.76.76,0,0,1-.26-.09.48.48,0,0,1-.18-.18.67.67,0,0,1-.06-.32V80.89H62v-.47h.43v-.78h.71v.78Z" transform="translate(0 -1)"/></g><g style="isolation:isolate"><path d="M0,85.89v-.47H.42v-.2a.77.77,0,0,1,.22-.56.87.87,0,0,1,.65-.22h.38V85L1.4,85A.27.27,0,0,0,1.2,85a.33.33,0,0,0-.06.23v.16h.49v.47H1.13V88H.42V85.89Z" transform="translate(0 -1)"/><path d="M2.61,85.42v.48h0a.88.88,0,0,1,.13-.22A.89.89,0,0,1,3,85.5a1,1,0,0,1,.23-.11.86.86,0,0,1,.26,0l.16,0V86l-.12,0H3.35a.75.75,0,0,0-.33.07.57.57,0,0,0-.22.18.72.72,0,0,0-.12.26,1.43,1.43,0,0,0,0,.33V88H1.94V85.42Z" transform="translate(0 -1)"/><path d="M3.81,86.15a1.19,1.19,0,0,1,.69-.71,1.49,1.49,0,0,1,.55-.1,1.51,1.51,0,0,1,.55.1,1.18,1.18,0,0,1,.69.71,1.58,1.58,0,0,1,.1.56,1.56,1.56,0,0,1-.1.56A1.21,1.21,0,0,1,6,87.7,1.18,1.18,0,0,1,5.6,88a1.53,1.53,0,0,1-.55.1A1.51,1.51,0,0,1,4.5,88a1.18,1.18,0,0,1-.42-.27,1.21,1.21,0,0,1-.27-.43,1.56,1.56,0,0,1-.1-.56A1.58,1.58,0,0,1,3.81,86.15Zm.65.87a.8.8,0,0,0,.1.26.54.54,0,0,0,.19.19.58.58,0,0,0,.3.07.6.6,0,0,0,.3-.07.54.54,0,0,0,.19-.19.8.8,0,0,0,.1-.26,1.52,1.52,0,0,0,0-.3,1.54,1.54,0,0,0,0-.3.78.78,0,0,0-.1-.27A.58.58,0,0,0,5.35,86a.59.59,0,0,0-.3-.07.54.54,0,0,0-.49.26.78.78,0,0,0-.1.27,1.54,1.54,0,0,0,0,.3A1.52,1.52,0,0,0,4.45,87Z" transform="translate(0 -1)"/><path d="M7.53,85.42v.35h0a1,1,0,0,1,.34-.31.91.91,0,0,1,.45-.11,1,1,0,0,1,.45.1.63.63,0,0,1,.31.33,1.1,1.1,0,0,1,.31-.3.84.84,0,0,1,.47-.13,1.38,1.38,0,0,1,.38,0,.78.78,0,0,1,.3.16.74.74,0,0,1,.19.29,1.16,1.16,0,0,1,.07.43V88H10.1V86.54c0-.09,0-.17,0-.25a.52.52,0,0,0-.06-.2A.33.33,0,0,0,9.91,86a.48.48,0,0,0-.24,0,.45.45,0,0,0-.24.06.42.42,0,0,0-.15.15.59.59,0,0,0-.07.21,1.61,1.61,0,0,0,0,.24V88H8.48V86.55c0-.08,0-.15,0-.23a.62.62,0,0,0,0-.21A.31.31,0,0,0,8.31,86a.46.46,0,0,0-.26-.06l-.13,0a.43.43,0,0,0-.16.08.5.5,0,0,0-.13.18.72.72,0,0,0-.06.31V88H6.86V85.42Z" transform="translate(0 -1)"/><path d="M14.19,85.42v.47h-.52v1.28a.24.24,0,0,0,.3.3h.22V88L14,88h-.22l-.31,0a.76.76,0,0,1-.26-.09.47.47,0,0,1-.18-.18.66.66,0,0,1-.06-.32V85.89h-.43v-.47H13v-.78h.71v.78Z" transform="translate(0 -1)"/><path d="M15.23,84.43v1.35h0a.82.82,0,0,1,.34-.33.93.93,0,0,1,.41-.1,1.2,1.2,0,0,1,.47.08.69.69,0,0,1,.29.21.83.83,0,0,1,.15.33,2.08,2.08,0,0,1,0,.44V88h-.71V86.54a.91.91,0,0,0-.1-.48.39.39,0,0,0-.35-.16.49.49,0,0,0-.42.17,1,1,0,0,0-.13.57V88h-.71V84.43Z" transform="translate(0 -1)"/><path d="M18.25,87.38a.73.73,0,0,0,.83,0,.45.45,0,0,0,.19-.23h.63a1.19,1.19,0,0,1-.46.67,1.36,1.36,0,0,1-.75.2,1.49,1.49,0,0,1-.55-.1,1.16,1.16,0,0,1-.42-.28,1.26,1.26,0,0,1-.26-.43,1.57,1.57,0,0,1-.09-.55,1.51,1.51,0,0,1,.1-.54,1.24,1.24,0,0,1,.69-.72,1.33,1.33,0,0,1,.54-.11,1.23,1.23,0,0,1,.58.13,1.15,1.15,0,0,1,.4.34,1.41,1.41,0,0,1,.23.49,1.82,1.82,0,0,1,.05.58H18.07A.72.72,0,0,0,18.25,87.38Zm.8-1.36a.5.5,0,0,0-.39-.14.62.62,0,0,0-.28.06.53.53,0,0,0-.18.14.52.52,0,0,0-.09.18.81.81,0,0,0,0,.17h1.15A.82.82,0,0,0,19.05,86Z" transform="translate(0 -1)"/><path d="M22.6,84.43l1.49,2.4h0v-2.4h.73V88h-.78l-1.49-2.39h0V88h-.73V84.43Z" transform="translate(0 -1)"/><path d="M25.47,86.15a1.19,1.19,0,0,1,.69-.71,1.49,1.49,0,0,1,.55-.1,1.51,1.51,0,0,1,.55.1,1.18,1.18,0,0,1,.69.71,1.58,1.58,0,0,1,.1.56,1.56,1.56,0,0,1-.1.56,1.21,1.21,0,0,1-.27.43,1.18,1.18,0,0,1-.42.27,1.53,1.53,0,0,1-.55.1,1.51,1.51,0,0,1-.55-.1,1.18,1.18,0,0,1-.42-.27,1.21,1.21,0,0,1-.27-.43,1.56,1.56,0,0,1-.1-.56A1.58,1.58,0,0,1,25.47,86.15Zm.65.87a.8.8,0,0,0,.1.26.54.54,0,0,0,.19.19.58.58,0,0,0,.3.07.6.6,0,0,0,.3-.07.54.54,0,0,0,.19-.19.8.8,0,0,0,.1-.26,1.52,1.52,0,0,0,0-.3,1.54,1.54,0,0,0,0-.3.78.78,0,0,0-.1-.27A.58.58,0,0,0,27,86a.59.59,0,0,0-.3-.07.54.54,0,0,0-.49.26.78.78,0,0,0-.1.27,1.54,1.54,0,0,0,0,.3A1.52,1.52,0,0,0,26.11,87Z" transform="translate(0 -1)"/><path d="M30.26,88v-.36h0a.79.79,0,0,1-.35.33,1,1,0,0,1-.44.1A1.24,1.24,0,0,1,29,88a.67.67,0,0,1-.29-.21.83.83,0,0,1-.15-.33,2.08,2.08,0,0,1,0-.44V85.42h.71v1.46a.91.91,0,0,0,.1.48.39.39,0,0,0,.35.16.49.49,0,0,0,.42-.17,1,1,0,0,0,.13-.57V85.42h.71V88Z" transform="translate(0 -1)"/><path d="M32.15,85.42v.36h0a.81.81,0,0,1,.35-.33,1,1,0,0,1,.44-.1,1.2,1.2,0,0,1,.47.08.69.69,0,0,1,.29.21.83.83,0,0,1,.15.33,2.08,2.08,0,0,1,0,.44V88h-.71V86.54a.91.91,0,0,0-.1-.48.39.39,0,0,0-.35-.16.49.49,0,0,0-.42.17,1,1,0,0,0-.13.57V88h-.71V85.42Z" transform="translate(0 -1)"/><path d="M37.51,84.43a1.49,1.49,0,0,1,.57.1,1.07,1.07,0,0,1,.38.26,1,1,0,0,1,.21.37,1.35,1.35,0,0,1,0,.85,1,1,0,0,1-.21.37,1.05,1.05,0,0,1-.38.26,1.47,1.47,0,0,1-.57.1h-.83V88H35.9V84.43Zm-.21,1.68.26,0a.59.59,0,0,0,.22-.08.42.42,0,0,0,.15-.16.56.56,0,0,0,.06-.27.56.56,0,0,0-.06-.28.42.42,0,0,0-.15-.16.61.61,0,0,0-.22-.08l-.26,0h-.61v1.07Z" transform="translate(0 -1)"/><path d="M39.84,85.42v.48h0a.9.9,0,0,1,.33-.4,1,1,0,0,1,.23-.11.86.86,0,0,1,.26,0l.16,0V86l-.12,0h-.13a.75.75,0,0,0-.33.07.57.57,0,0,0-.22.18.71.71,0,0,0-.12.26,1.43,1.43,0,0,0,0,.33V88h-.71V85.42Z" transform="translate(0 -1)"/><path d="M41,86.15a1.19,1.19,0,0,1,.27-.43,1.22,1.22,0,0,1,.42-.28,1.49,1.49,0,0,1,.55-.1,1.51,1.51,0,0,1,.55.1,1.18,1.18,0,0,1,.69.71,1.58,1.58,0,0,1,.1.56,1.56,1.56,0,0,1-.1.56,1.22,1.22,0,0,1-.27.43,1.19,1.19,0,0,1-.42.27,1.53,1.53,0,0,1-.55.1,1.51,1.51,0,0,1-.55-.1,1.17,1.17,0,0,1-.69-.7,1.54,1.54,0,0,1-.1-.56A1.56,1.56,0,0,1,41,86.15Zm.64.87a.8.8,0,0,0,.1.26.54.54,0,0,0,.19.19.58.58,0,0,0,.3.07.6.6,0,0,0,.3-.07.54.54,0,0,0,.19-.19.8.8,0,0,0,.1-.26,1.55,1.55,0,0,0,0-.3,1.58,1.58,0,0,0,0-.3.78.78,0,0,0-.1-.27.58.58,0,0,0-.19-.19.59.59,0,0,0-.3-.07.54.54,0,0,0-.49.26.78.78,0,0,0-.1.27,1.58,1.58,0,0,0,0,.3A1.55,1.55,0,0,0,41.68,87Z" transform="translate(0 -1)"/><path d="M43.87,88.32a.41.41,0,0,0,.19,0c.06,0,.08-.09.08-.19V85.42h.71v2.71a1.2,1.2,0,0,1,0,.34.53.53,0,0,1-.14.24.63.63,0,0,1-.28.14,1.76,1.76,0,0,1-.45,0l-.22,0V88.3ZM44.14,85v-.58h.71V85Z" transform="translate(0 -1)"/><path d="M46.22,87.38a.73.73,0,0,0,.83,0,.45.45,0,0,0,.19-.23h.63a1.19,1.19,0,0,1-.46.67,1.36,1.36,0,0,1-.75.2,1.49,1.49,0,0,1-.55-.1,1.15,1.15,0,0,1-.42-.28,1.26,1.26,0,0,1-.26-.43,1.57,1.57,0,0,1-.09-.55,1.51,1.51,0,0,1,.09-.54,1.28,1.28,0,0,1,.27-.43,1.26,1.26,0,0,1,.42-.29,1.33,1.33,0,0,1,.54-.11,1.23,1.23,0,0,1,.58.13,1.15,1.15,0,0,1,.4.34,1.4,1.4,0,0,1,.23.49,1.81,1.81,0,0,1,0,.58H46A.72.72,0,0,0,46.22,87.38ZM47,86a.5.5,0,0,0-.39-.14.61.61,0,0,0-.28.06.53.53,0,0,0-.18.14.51.51,0,0,0-.09.18.85.85,0,0,0,0,.17H47.2A.83.83,0,0,0,47,86Z" transform="translate(0 -1)"/><path d="M49.57,85.88a.5.5,0,0,0-.28.08.59.59,0,0,0-.19.2.87.87,0,0,0-.1.27,1.49,1.49,0,0,0,0,.29A1.44,1.44,0,0,0,49,87a.9.9,0,0,0,.1.26.56.56,0,0,0,.18.19.5.5,0,0,0,.28.08.52.52,0,0,0,.39-.14.67.67,0,0,0,.17-.38h.69a1.17,1.17,0,0,1-.4.79,1.29,1.29,0,0,1-.84.27A1.42,1.42,0,0,1,49,88a1.19,1.19,0,0,1-.41-.27,1.23,1.23,0,0,1-.26-.42,1.44,1.44,0,0,1-.1-.53,1.72,1.72,0,0,1,.09-.56,1.26,1.26,0,0,1,.26-.45,1.17,1.17,0,0,1,.42-.29,1.4,1.4,0,0,1,.56-.11,1.63,1.63,0,0,1,.44.06,1.18,1.18,0,0,1,.38.18,1,1,0,0,1,.27.3,1,1,0,0,1,.12.43h-.7A.47.47,0,0,0,49.57,85.88Z" transform="translate(0 -1)"/><path d="M52.63,85.42v.47H52.1v1.28a.24.24,0,0,0,.3.3h.22V88l-.2,0h-.22l-.31,0a.76.76,0,0,1-.26-.09.48.48,0,0,1-.18-.18.67.67,0,0,1-.06-.32V85.89H51v-.47h.43v-.78h.71v.78Z" transform="translate(0 -1)"/></g></svg>