<svg id="Layer_1" data-name="Layer 1" xmlns="http://www.w3.org/2000/svg" viewBox="0 0 254.7603 112.4416"><title>title</title><path d="M.7,87.72v-.46H7.26v.46h-3v8.11H3.71V87.72Z" transform="translate(-0.4297 -0.25)" style="fill:#fff"/><path d="M8.22,87.26v3.72h0a2,2,0,0,1,.34-.62,2.27,2.27,0,0,1,1.16-.75,2.64,2.64,0,0,1,.71-.1,2.8,2.8,0,0,1,.92.13,1.8,1.8,0,0,1,.62.35,1.66,1.66,0,0,1,.38.49,2.28,2.28,0,0,1,.2.55,3.3,3.3,0,0,1,.07.53v4.27h-.46V91.35a1.74,1.74,0,0,0-.21-.67,1.53,1.53,0,0,0-.53-.55,1.8,1.8,0,0,0-1-.23,2.18,2.18,0,0,0-.94.19,2,2,0,0,0-.7.53,2.37,2.37,0,0,0-.44.82,3.41,3.41,0,0,0-.15,1v3.34H7.76V87.26Z" transform="translate(-0.4297 -0.25)" style="fill:#fff"/><path d="M14.16,92.81v.12a3.67,3.67,0,0,0,.14,1,2.61,2.61,0,0,0,.43.86,2,2,0,0,0,.71.59,2.18,2.18,0,0,0,1,.22,2.12,2.12,0,0,0,1.47-.49,2.54,2.54,0,0,0,.75-1.35h.46a2.77,2.77,0,0,1-.88,1.66,2.68,2.68,0,0,1-1.79.58,2.73,2.73,0,0,1-1.19-.25,2.43,2.43,0,0,1-.85-.67,2.84,2.84,0,0,1-.51-1,4.49,4.49,0,0,1-.17-1.25,4.36,4.36,0,0,1,.17-1.24,3.1,3.1,0,0,1,.52-1,2.58,2.58,0,0,1,.87-.72,2.65,2.65,0,0,1,1.23-.27,2.61,2.61,0,0,1,1.15.24,2.4,2.4,0,0,1,.83.65,2.92,2.92,0,0,1,.51,1,3.86,3.86,0,0,1,.17,1.17v.27Zm4.54-.4a3.69,3.69,0,0,0-.17-1,2.35,2.35,0,0,0-.43-.79,2.13,2.13,0,0,0-.69-.55,2,2,0,0,0-.92-.2,2.13,2.13,0,0,0-1.68.76,2.44,2.44,0,0,0-.45.8,3.75,3.75,0,0,0-.19.94Z" transform="translate(-0.4297 -0.25)" style="fill:#fff"/><path d="M22.88,90.06v-.4H24V88.39a1.33,1.33,0,0,1,.11-.56,1,1,0,0,1,.29-.38,1.28,1.28,0,0,1,.43-.22,1.85,1.85,0,0,1,.52-.07,3.24,3.24,0,0,1,.54.06v.4a3.23,3.23,0,0,0-.54-.06,1.12,1.12,0,0,0-.64.17.78.78,0,0,0-.26.69v1.24h1.28v.4H24.44v5.77H24V90.06Z" transform="translate(-0.4297 -0.25)" style="fill:#fff"/><path d="M26.56,88.5V87.26H27V88.5Zm0,7.33V89.67H27v6.17Z" transform="translate(-0.4297 -0.25)" style="fill:#fff"/><path d="M28.92,91.03h0a1.48,1.48,0,0,1,.31-.56,2.13,2.13,0,0,1,.54-.46,2.66,2.66,0,0,1,.71-.29,2.9,2.9,0,0,1,.81-.09v.46a2.15,2.15,0,0,0-.82.07,2,2,0,0,0-.88.53,4,4,0,0,0-.29.35,1.69,1.69,0,0,0-.21.37,2.32,2.32,0,0,0-.13.46,3.93,3.93,0,0,0-.06.6v3.37h-.46V89.67h.46Z" transform="translate(-0.4297 -0.25)" style="fill:#fff"/><path d="M32,93.78a1.82,1.82,0,0,0,1.26,1.68,2.45,2.45,0,0,0,.78.12,4.11,4.11,0,0,0,.64-.05,2.24,2.24,0,0,0,.64-.2,1.31,1.31,0,0,0,.49-.4,1.06,1.06,0,0,0,.19-.65,1,1,0,0,0-.31-.78,2.18,2.18,0,0,0-.79-.41,8.15,8.15,0,0,0-1-.23,5.23,5.23,0,0,1-1-.27,2.09,2.09,0,0,1-.79-.51,1.36,1.36,0,0,1-.31-1,1.34,1.34,0,0,1,.2-.76,1.51,1.51,0,0,1,.52-.49,2.4,2.4,0,0,1,.71-.26,4.1,4.1,0,0,1,.79-.08,3.59,3.59,0,0,1,.9.11,2,2,0,0,1,.73.35,1.67,1.67,0,0,1,.48.61,2.11,2.11,0,0,1,.17.9h-.46a1.72,1.72,0,0,0-.14-.72,1.25,1.25,0,0,0-.38-.49,1.68,1.68,0,0,0-.58-.28,2.8,2.8,0,0,0-.74-.04,3.46,3.46,0,0,0-.63.06,1.85,1.85,0,0,0-.57.2,1.29,1.29,0,0,0-.41.37.93.93,0,0,0-.16.55.94.94,0,0,0,.18.6,1.28,1.28,0,0,0,.47.37,3.25,3.25,0,0,0,.66.22l.74.17c.3.06.59.12.86.2a2.42,2.42,0,0,1,.7.31,1.42,1.42,0,0,1,.46.51,1.67,1.67,0,0,1,.17.79,1.4,1.4,0,0,1-.23.83,1.75,1.75,0,0,1-.58.52,2.47,2.47,0,0,1-.77.28,4.65,4.65,0,0,1-.83.08,3.33,3.33,0,0,1-1-.14,2.19,2.19,0,0,1-.79-.42,2,2,0,0,1-.53-.69,2.33,2.33,0,0,1-.2-.95Z" transform="translate(-0.4297 -0.25)" style="fill:#fff"/><path d="M39.84,90.06H38.5v4.31a1.67,1.67,0,0,0,.08.59.68.68,0,0,0,.26.33.91.91,0,0,0,.42.14,4.0911,4.0911,0,0,0,.57,0v.4a4.3494,4.3494,0,0,1-.68,0,1.36,1.36,0,0,1-.58-.18,1.06,1.06,0,0,1-.4-.45,1.7,1.7,0,0,1-.12-.83V90.06H36.9v-.4H38V87.75h.46v1.92H39.8Z" transform="translate(-0.4297 -0.25)" style="fill:#fff"/><path d="M48.25,91.71a1.28,1.28,0,0,0-.46-.87,1.5,1.5,0,0,0-1-.29,2,2,0,0,0-.56.09,1.34,1.34,0,0,0-.55.34,1.88,1.88,0,0,0-.42.68,3.23,3.23,0,0,0-.17,1.15,3.34,3.34,0,0,0,.09.77,2.11,2.11,0,0,0,.29.68,1.58,1.58,0,0,0,.51.49,1.46,1.46,0,0,0,.76.19,1.38,1.38,0,0,0,1-.37,1.73,1.73,0,0,0,.49-1H49.6a3,3,0,0,1-.92,1.85,2.8,2.8,0,0,1-1.93.64,3.17,3.17,0,0,1-1.29-.25,2.73,2.73,0,0,1-.94-.67,2.83,2.83,0,0,1-.58-1,3.94,3.94,0,0,1-.2-1.27A4.35,4.35,0,0,1,44,91.49a3,3,0,0,1,.58-1.06,2.7,2.7,0,0,1,1-.71,3.22,3.22,0,0,1,1.34-.26,3.74,3.74,0,0,1,1,.14,2.73,2.73,0,0,1,.87.41,2.21,2.21,0,0,1,.62.7,2.39,2.39,0,0,1,.29,1Z" transform="translate(-0.4297 -0.25)" style="fill:#fff"/><path d="M53.58,96a3.38,3.38,0,0,1-1.33-.25,2.84,2.84,0,0,1-1-.68,2.9,2.9,0,0,1-.61-1,4.22,4.22,0,0,1,0-2.63,2.9,2.9,0,0,1,.61-1,2.84,2.84,0,0,1,1-.68,3.7,3.7,0,0,1,2.65,0,2.84,2.84,0,0,1,1,.68,2.91,2.91,0,0,1,.61,1,4.22,4.22,0,0,1,0,2.63,2.91,2.91,0,0,1-.61,1,2.84,2.84,0,0,1-1,.68A3.38,3.38,0,0,1,53.58,96Zm0-1.08a1.57,1.57,0,0,0,.79-.19,1.66,1.66,0,0,0,.55-.5,2.19,2.19,0,0,0,.32-.7,3.17,3.17,0,0,0,0-1.59,2.11,2.11,0,0,0-.32-.7,1.69,1.69,0,0,0-.55-.5,1.73,1.73,0,0,0-1.58,0,1.69,1.69,0,0,0-.55.5,2.11,2.11,0,0,0-.32.7,3.17,3.17,0,0,0,0,1.59,2.19,2.19,0,0,0,.32.7,1.66,1.66,0,0,0,.55.5,1.57,1.57,0,0,0,.79.2Z" transform="translate(-0.4297 -0.25)" style="fill:#fff"/><path d="M57.85,89.63h1.3v.91h0a2.29,2.29,0,0,1,.82-.81,2.17,2.17,0,0,1,1.12-.29,2.32,2.32,0,0,1,1.61.53,2,2,0,0,1,.59,1.58v4.26H61.93V91.93a1.67,1.67,0,0,0-.31-1.06,1.13,1.13,0,0,0-.9-.33,1.49,1.49,0,0,0-.62.13,1.36,1.36,0,0,0-.47.35,1.65,1.65,0,0,0-.3.52,1.86,1.86,0,0,0-.11.64v3.66H57.85Z" transform="translate(-0.4297 -0.25)" style="fill:#fff"/><path d="M64.74,89.63H66v.91h0a2.29,2.29,0,0,1,.82-.81A2.18,2.18,0,0,1,68,89.46a2.32,2.32,0,0,1,1.61.53,2,2,0,0,1,.59,1.58v4.26H68.82v-3.9a1.69,1.69,0,0,0-.31-1.06,1.14,1.14,0,0,0-.9-.33,1.49,1.49,0,0,0-.62.13,1.35,1.35,0,0,0-.47.35,1.65,1.65,0,0,0-.3.52,1.88,1.88,0,0,0-.11.64v3.66H64.74Z" transform="translate(-0.4297 -0.25)" style="fill:#fff"/><path d="M72.69,93.09a2.37,2.37,0,0,0,.1.7,1.71,1.71,0,0,0,.31.59,1.48,1.48,0,0,0,.52.4,1.71,1.71,0,0,0,.74.15,1.64,1.64,0,0,0,1-.26,1.52,1.52,0,0,0,.55-.77h1.3a2.58,2.58,0,0,1-1,1.57,2.75,2.75,0,0,1-.83.41,3.36,3.36,0,0,1-1,.14,3.28,3.28,0,0,1-1.3-.24,2.68,2.68,0,0,1-1-.67,2.85,2.85,0,0,1-.59-1,4.16,4.16,0,0,1-.2-1.32,3.71,3.71,0,0,1,.21-1.25,3.22,3.22,0,0,1,.6-1,2.9065,2.9065,0,0,1,3.5-.69,2.88,2.88,0,0,1,1,.81,3.28,3.28,0,0,1,.56,1.16,3.57,3.57,0,0,1,.09,1.35Zm3.19-.9a2.19,2.19,0,0,0-.14-.62,1.66,1.66,0,0,0-.31-.52,1.57,1.57,0,0,0-.48-.36,1.42,1.42,0,0,0-.63-.14,1.64,1.64,0,0,0-.65.13,1.48,1.48,0,0,0-.5.35,1.72,1.72,0,0,0-.34.52,1.82,1.82,0,0,0-.14.65Z" transform="translate(-0.4297 -0.25)" style="fill:#fff"/><path d="M82.49,91.71a1.28,1.28,0,0,0-.46-.87,1.51,1.51,0,0,0-1-.29,2,2,0,0,0-.56.09,1.34,1.34,0,0,0-.47.29,1.88,1.88,0,0,0-.42.68,3.25,3.25,0,0,0-.17,1.15,3.34,3.34,0,0,0,.09.77,2.12,2.12,0,0,0,.29.68,1.56,1.56,0,0,0,.51.49,1.45,1.45,0,0,0,.7.23,1.38,1.38,0,0,0,1-.37,1.73,1.73,0,0,0,.49-1h1.37a3,3,0,0,1-.92,1.85,2.8,2.8,0,0,1-1.93.64,3.18,3.18,0,0,1-1.29-.25,2.74,2.74,0,0,1-.94-.67,2.86,2.86,0,0,1-.58-1,3.94,3.94,0,0,1-.2-1.27,4.32,4.32,0,0,1,.19-1.31,3,3,0,0,1,.58-1.06,2.7,2.7,0,0,1,1-.71,3.23,3.23,0,0,1,1.34-.26,3.74,3.74,0,0,1,1,.14,2.73,2.73,0,0,1,.86.41,2.21,2.21,0,0,1,.62.7,2.39,2.39,0,0,1,.29,1Z" transform="translate(-0.4297 -0.25)" style="fill:#fff"/><path d="M84.35,89.63h1V87.77h1.37v1.86H88v1H86.75v3.3a3.37,3.37,0,0,0,0,.37.65.65,0,0,0,.08.26.4.4,0,0,0,.2.16,1,1,0,0,0,.36.05h.29a1.41,1.41,0,0,0,.29,0v1.06h-.88a3.06,3.06,0,0,1-.87-.1,1.17,1.17,0,0,1-.52-.3,1,1,0,0,1-.25-.5,3.74,3.74,0,0,1-.08-.68v-3.6h-1Z" transform="translate(-0.4297 -0.25)" style="fill:#fff"/><path d="M90,93.09a2.4,2.4,0,0,0,.1.7,1.71,1.71,0,0,0,.31.59,1.48,1.48,0,0,0,.52.4,1.71,1.71,0,0,0,.74.15,1.65,1.65,0,0,0,1-.26,1.52,1.52,0,0,0,.55-.77h1.3a2.55,2.55,0,0,1-.37.9,2.58,2.58,0,0,1-.64.67,2.75,2.75,0,0,1-.83.41,3.36,3.36,0,0,1-1,.14,3.28,3.28,0,0,1-1.3-.24,2.68,2.68,0,0,1-1-.67,2.85,2.85,0,0,1-.59-1,4.19,4.19,0,0,1-.2-1.32,3.74,3.74,0,0,1,.21-1.25,3.18,3.18,0,0,1,.6-1,2.9065,2.9065,0,0,1,3.5-.69,2.89,2.89,0,0,1,1,.81,3.28,3.28,0,0,1,.56,1.16,3.53,3.53,0,0,1,.09,1.35Zm3.19-.9a2.22,2.22,0,0,0-.14-.62,1.68,1.68,0,0,0-.31-.52,1.55,1.55,0,0,0-.48-.36,1.41,1.41,0,0,0-.63-.14,1.65,1.65,0,0,0-.65.13,1.52,1.52,0,0,0-.5.35,1.73,1.73,0,0,0-.34.52,1.82,1.82,0,0,0-.14.65Z" transform="translate(-0.4297 -0.25)" style="fill:#fff"/><path d="M101.48,95.83h-1.3v-.84h0a1.63,1.63,0,0,1-.8.77,2.72,2.72,0,0,1-1.12.23,3,3,0,0,1-1.28-.26,2.55,2.55,0,0,1-.91-.7,3,3,0,0,1-.54-1,4.58,4.58,0,0,1-.18-1.3,4.15,4.15,0,0,1,.23-1.45,2.89,2.89,0,0,1,.61-1,2.33,2.33,0,0,1,.86-.58,2.75,2.75,0,0,1,1-.19,3.4005,3.4005,0,0,1,.59.05,2.62,2.62,0,0,1,.58.17,2.29,2.29,0,0,1,.51.31,1.68,1.68,0,0,1,.39.44h0V87.26h1.37Zm-4.78-3a3.06,3.06,0,0,0,.1.78,2.13,2.13,0,0,0,.31.68,1.52,1.52,0,0,0,1.3.66,1.54,1.54,0,0,0,.79-.19,1.63,1.63,0,0,0,.54-.5,2.27,2.27,0,0,0,.31-.7,3.13,3.13,0,0,0,.1-.8,2.51,2.51,0,0,0-.46-1.61,1.52,1.52,0,0,0-1.25-.58,1.55,1.55,0,0,0-.81.2,1.67,1.67,0,0,0-.54.52,2.16,2.16,0,0,0-.3.72,3.78,3.78,0,0,0-.08.79Z" transform="translate(-0.4297 -0.25)" style="fill:#fff"/><path d="M106.27,89.67h.46v1.26h0a1.65,1.65,0,0,1,.25-.55,2,2,0,0,1,.44-.45,2.1,2.1,0,0,1,.58-.3,2.05,2.05,0,0,1,.67-.11,2.32,2.32,0,0,1,.77.11,1.85,1.85,0,0,1,.55.3,1.51,1.51,0,0,1,.36.42,1.6,1.6,0,0,1,.18.47h0a2.25,2.25,0,0,1,.74-1,2.05,2.05,0,0,1,1.22-.33,2.3,2.3,0,0,1,.77.13,1.63,1.63,0,0,1,.61.38,1.75,1.75,0,0,1,.4.65,2.73,2.73,0,0,1,.14.94V95.8H114V91.61a2,2,0,0,0-.18-.92,1.45,1.45,0,0,0-.43-.51,1.22,1.22,0,0,0-.49-.22,2.39,2.39,0,0,0-.38,0,2,2,0,0,0-.77.14,1.65,1.65,0,0,0-.61.43,2,2,0,0,0-.4.71,3,3,0,0,0-.14,1v3.65h-.46V91.61a2,2,0,0,0-.17-.92,1.38,1.38,0,0,0-.41-.51,1.24,1.24,0,0,0-.48-.22,2.23,2.23,0,0,0-.39,0,1.92,1.92,0,0,0-1.31.54,2.06,2.06,0,0,0-.47.71,2.64,2.64,0,0,0-.18,1v3.65h-.46Z" transform="translate(-0.4297 -0.25)" style="fill:#fff"/><path d="M115.92,88.5V87.26h.46V88.5Zm0,7.33V89.67h.46v6.17Z" transform="translate(-0.4297 -0.25)" style="fill:#fff"/><path d="M118.28,91.03h0a1.51,1.51,0,0,1,.31-.56,2.16,2.16,0,0,1,.54-.46,2.68,2.68,0,0,1,.71-.29,2.89,2.89,0,0,1,.81-.09v.46a2.15,2.15,0,0,0-.82.07,2,2,0,0,0-.88.53,4.17,4.17,0,0,0-.29.35,1.69,1.69,0,0,0-.21.37,2.26,2.26,0,0,0-.13.46,3.9291,3.9291,0,0,0-.06.6v3.37h-.46V89.67h.46Z" transform="translate(-0.4297 -0.25)" style="fill:#fff"/><path d="M121.62,91.03h0a1.51,1.51,0,0,1,.31-.56,2.16,2.16,0,0,1,.54-.46,2.68,2.68,0,0,1,.71-.29,2.89,2.89,0,0,1,.81-.09v.46a2.15,2.15,0,0,0-.82.07,2,2,0,0,0-.88.53,4.17,4.17,0,0,0-.29.35,1.69,1.69,0,0,0-.21.37,2.26,2.26,0,0,0-.13.46,3.9291,3.9291,0,0,0-.06.6v3.37h-.46V89.67h.46Z" transform="translate(-0.4297 -0.25)" style="fill:#fff"/><path d="M124.07,92.75a4.06,4.06,0,0,1,.19-1.24,3.11,3.11,0,0,1,.55-1,2.6,2.6,0,0,1,.89-.7,3,3,0,0,1,2.42,0,2.59,2.59,0,0,1,.89.7,3.13,3.13,0,0,1,.55,1,4.06,4.06,0,0,1,.19,1.24,4.11,4.11,0,0,1-.19,1.25,3.06,3.06,0,0,1-.55,1,2.62,2.62,0,0,1-.89.7,3,3,0,0,1-2.42,0,2.63,2.63,0,0,1-.89-.7,3,3,0,0,1-.55-1A4.11,4.11,0,0,1,124.07,92.75Zm.46,0a3.59,3.59,0,0,0,.16,1.06,2.86,2.86,0,0,0,.46.91,2.21,2.21,0,0,0,.74.63,2.34,2.34,0,0,0,2,0,2.21,2.21,0,0,0,.74-.63,2.87,2.87,0,0,0,.46-.91,3.69,3.69,0,0,0,0-2.12,2.88,2.88,0,0,0-.46-.91,2.21,2.21,0,0,0-.74-.63,2.34,2.34,0,0,0-2,0,2.21,2.21,0,0,0-.74.63,2.86,2.86,0,0,0-.46.91,3.6,3.6,0,0,0-.17,1.06Z" transform="translate(-0.4297 -0.25)" style="fill:#fff"/><path d="M131.25,91.03h0a1.51,1.51,0,0,1,.31-.56,2.16,2.16,0,0,1,.54-.46,2.68,2.68,0,0,1,.71-.29,2.89,2.89,0,0,1,.81-.09v.46a2.15,2.15,0,0,0-.82.07,2,2,0,0,0-.88.53,4.17,4.17,0,0,0-.29.35,1.69,1.69,0,0,0-.21.37,2.2594,2.2594,0,0,0-.13.46,3.93,3.93,0,0,0-.06.6v3.37h-.46V89.67h.46Z" transform="translate(-0.4297 -0.25)" style="fill:#fff"/><path d="M141.56,94.61h0a1.92,1.92,0,0,1-.31.52,2.2,2.2,0,0,1-.5.44,2.48,2.48,0,0,1-.67.3,2.91,2.91,0,0,1-.82.11,2.41,2.41,0,0,1-1.52-.43,1.57,1.57,0,0,1-.54-1.31,1.54,1.54,0,0,1,.76-1.42,2.31,2.31,0,0,1,.73-.28,7.0987,7.0987,0,0,1,.77-.12l.71-.06a4.16,4.16,0,0,0,.77-.11,1,1,0,0,0,.43-.22.62.62,0,0,0,.18-.35,3.43,3.43,0,0,0,0-.54,1.13,1.13,0,0,0-.1-.47,1,1,0,0,0-.3-.38,1.48,1.48,0,0,0-.53-.26,2.84,2.84,0,0,0-.79-.1,2.07,2.07,0,0,0-1.34.41,1.61,1.61,0,0,0-.56,1.24h-.46a2,2,0,0,1,.65-1.53,2.6,2.6,0,0,1,1.72-.51,2.47,2.47,0,0,1,1.63.44,1.44,1.44,0,0,1,.51,1.15v3.85a.9105.9105,0,0,0,0,.24.37.37,0,0,0,.12.17.38.38,0,0,0,.24.07h.34v.38a1.43,1.43,0,0,1-.37,0,1.1,1.1,0,0,1-.44-.07.57.57,0,0,1-.25-.19.7.7,0,0,1-.11-.28,2.0009,2.0009,0,0,1,0-.35Zm0-2.28a.87.87,0,0,1-.51.28,6.2691,6.2691,0,0,1-.76.11l-.77.07a3.8737,3.8737,0,0,0-.67.1,1.94,1.94,0,0,0-.61.22,1.24,1.24,0,0,0-.44.43,1.31,1.31,0,0,0-.17.7,1.19,1.19,0,0,0,.43,1,1.91,1.91,0,0,0,1.19.33,2.34,2.34,0,0,0,1.24-.28,2.18,2.18,0,0,0,.7-.65,2,2,0,0,0,.31-.71,3.0017,3.0017,0,0,0,.07-.46Z" transform="translate(-0.4297 -0.25)" style="fill:#fff"/><path d="M143.47,89.67h.46v1.32h0a2,2,0,0,1,.34-.62,2.3463,2.3463,0,0,1,1.16-.75,2.63,2.63,0,0,1,.71-.1,2.81,2.81,0,0,1,.92.13,1.8,1.8,0,0,1,.62.35,1.7,1.7,0,0,1,.38.49,2.24,2.24,0,0,1,.2.55,3.19,3.19,0,0,1,.07.53v4.27h-.46V91.35a1.75,1.75,0,0,0-.21-.67,1.53,1.53,0,0,0-.53-.55,1.8,1.8,0,0,0-1-.23,2.17,2.17,0,0,0-.94.19,2,2,0,0,0-.7.53,2.37,2.37,0,0,0-.44.82,3.41,3.41,0,0,0-.15,1v3.34h-.46Z" transform="translate(-0.4297 -0.25)" style="fill:#fff"/><path d="M154.46,94.51h0a2.8,2.8,0,0,1-1,1.1,2.87,2.87,0,0,1-2.6.1,2.38,2.38,0,0,1-.83-.71,3.06,3.06,0,0,1-.48-1,4.89,4.89,0,0,1,0-2.5,2.92,2.92,0,0,1,.51-1,2.45,2.45,0,0,1,.86-.68,2.73,2.73,0,0,1,1.21-.25,2.66,2.66,0,0,1,.73.1,2.58,2.58,0,0,1,.67.29,2.11,2.11,0,0,1,.88,1.13h0V87.26h.46v8.57h-.46Zm-2.29,1.07a2,2,0,0,0,1-.24,2.18,2.18,0,0,0,.71-.64,2.82,2.82,0,0,0,.42-.91,3.6414,3.6414,0,0,0,0-2,3,3,0,0,0-.41-.91,2.05,2.05,0,0,0-.71-.64,2.1,2.1,0,0,0-1-.24,2.16,2.16,0,0,0-1,.23,2.06,2.06,0,0,0-.71.63,2.62,2.62,0,0,0-.41.91,4.49,4.49,0,0,0-.13,1.07,4,4,0,0,0,.14,1,2.81,2.81,0,0,0,.42.91,2.06,2.06,0,0,0,.71.63,2.13,2.13,0,0,0,.97.2Z" transform="translate(-0.4297 -0.25)" style="fill:#fff"/><path d="M161.24,95.31h0l1.68-5.64h.61l1.69,5.64h0L167,89.67h.5l-2,6.17H165l-1.69-5.59h0l-1.7,5.59H161l-2-6.17h.49Z" transform="translate(-0.4297 -0.25)" style="fill:#fff"/><path d="M172.24,94.61h0a1.92,1.92,0,0,1-.31.52,2.2,2.2,0,0,1-.5.44,2.48,2.48,0,0,1-.67.3,2.91,2.91,0,0,1-.82.11,2.41,2.41,0,0,1-1.52-.43,1.57,1.57,0,0,1-.54-1.31,1.54,1.54,0,0,1,.76-1.42,2.31,2.31,0,0,1,.73-.28,7.0987,7.0987,0,0,1,.77-.12l.71-.06a4.16,4.16,0,0,0,.77-.11,1,1,0,0,0,.43-.22.62.62,0,0,0,.18-.35,3.43,3.43,0,0,0,0-.54,1.13,1.13,0,0,0-.1-.47,1,1,0,0,0-.3-.38,1.48,1.48,0,0,0-.53-.26,2.84,2.84,0,0,0-.79-.1,2.07,2.07,0,0,0-1.34.41,1.61,1.61,0,0,0-.56,1.24h-.46a2,2,0,0,1,.65-1.53,2.6,2.6,0,0,1,1.72-.51,2.47,2.47,0,0,1,1.63.44,1.44,1.44,0,0,1,.51,1.15v3.85a.9105.9105,0,0,0,0,.24.37.37,0,0,0,.12.17.38.38,0,0,0,.24.07h.34v.38a1.43,1.43,0,0,1-.37,0,1.1,1.1,0,0,1-.44-.07.57.57,0,0,1-.25-.19.7.7,0,0,1-.11-.28,2.0009,2.0009,0,0,1,0-.35Zm0-2.28a.87.87,0,0,1-.51.28,6.2691,6.2691,0,0,1-.76.11l-.77.07a3.8737,3.8737,0,0,0-.67.1,1.94,1.94,0,0,0-.61.22,1.24,1.24,0,0,0-.44.43,1.31,1.31,0,0,0-.17.7,1.19,1.19,0,0,0,.43,1,1.91,1.91,0,0,0,1.19.33,2.34,2.34,0,0,0,1.24-.28,2.18,2.18,0,0,0,.7-.65,2,2,0,0,0,.31-.71,3.0017,3.0017,0,0,0,.07-.46Z" transform="translate(-0.4297 -0.25)" style="fill:#fff"/><path d="M176.42,90.06h-1.34v4.31a1.67,1.67,0,0,0,.08.59.68.68,0,0,0,.26.33.91.91,0,0,0,.42.14,4.07,4.07,0,0,0,.57,0v.4a4.3493,4.3493,0,0,1-.68,0,1.36,1.36,0,0,1-.58-.18,1.06,1.06,0,0,1-.4-.45,1.71,1.71,0,0,1-.13-.83V90.06h-1.14v-.4h1.14V87.75h.46v1.92h1.34Z" transform="translate(-0.4297 -0.25)" style="fill:#fff"/><path d="M177.26,92.81v.12a3.63,3.63,0,0,0,.14,1,2.63,2.63,0,0,0,.43.86,2,2,0,0,0,.71.59,2.18,2.18,0,0,0,1,.22,2.12,2.12,0,0,0,1.47-.49,2.54,2.54,0,0,0,.75-1.35h.46a2.77,2.77,0,0,1-.88,1.66,2.68,2.68,0,0,1-1.79.58,2.73,2.73,0,0,1-1.19-.25,2.44,2.44,0,0,1-.85-.67,2.85,2.85,0,0,1-.51-1,4.49,4.49,0,0,1-.17-1.25,4.43,4.43,0,0,1,.17-1.24,3.12,3.12,0,0,1,.52-1,2.57,2.57,0,0,1,.87-.72,2.65,2.65,0,0,1,1.23-.27,2.61,2.61,0,0,1,1.15.24,2.4,2.4,0,0,1,.83.65,2.92,2.92,0,0,1,.51,1,3.83,3.83,0,0,1,.17,1.17v.27Zm4.54-.4a3.69,3.69,0,0,0-.17-1,2.37,2.37,0,0,0-.43-.79,2.13,2.13,0,0,0-.69-.55,2,2,0,0,0-.92-.2,2.17,2.17,0,0,0-1,.21,2.21,2.21,0,0,0-.71.55,2.45,2.45,0,0,0-.44.8,3.75,3.75,0,0,0-.19.94Z" transform="translate(-0.4297 -0.25)" style="fill:#fff"/><path d="M183.78,91.03h0a1.51,1.51,0,0,1,.31-.56,2.16,2.16,0,0,1,.54-.46,2.68,2.68,0,0,1,.71-.29,2.89,2.89,0,0,1,.81-.09v.46a2.15,2.15,0,0,0-.82.07,2,2,0,0,0-.88.53,4.17,4.17,0,0,0-.29.35,1.69,1.69,0,0,0-.21.37,2.2594,2.2594,0,0,0-.13.46,3.93,3.93,0,0,0-.06.6v3.37h-.46V89.67h.46Z" transform="translate(-0.4297 -0.25)" style="fill:#fff"/><path d="M190.1,87.26h.44v3.67h0a1.94,1.94,0,0,1,.37-.63,2.35,2.35,0,0,1,.55-.46,2.48,2.48,0,0,1,.67-.28,3,3,0,0,1,.75-.09,2.71,2.71,0,0,1,1.18.24,2.37,2.37,0,0,1,.84.66,2.8,2.8,0,0,1,.5,1,4.29,4.29,0,0,1,.16,1.21,4.36,4.36,0,0,1-.3,1.77,2.83,2.83,0,0,1-.72,1,2.19,2.19,0,0,1-.88.47,3.37,3.37,0,0,1-.78.11,2.53,2.53,0,0,1-1-.19,2.57,2.57,0,0,1-.7-.45,2.21,2.21,0,0,1-.42-.51,2.0607,2.0607,0,0,1-.18-.37h0v1.38h-.44Zm2.81,8.32a1.92,1.92,0,0,0,1-.26,2.13,2.13,0,0,0,.69-.69,3.08,3.08,0,0,0,.38-1,4.77,4.77,0,0,0,.12-1.06,3.59,3.59,0,0,0-.14-1,2.63,2.63,0,0,0-.42-.86,2.16,2.16,0,0,0-.7-.61,2,2,0,0,0-1-.23,2.49,2.49,0,0,0-1,.2,2,2,0,0,0-.73.56,2.44,2.44,0,0,0-.43.85,3.76,3.76,0,0,0-.14,1.07,4.64,4.64,0,0,0,.13,1.1,2.89,2.89,0,0,0,.42,1,2.07,2.07,0,0,0,1.81.92Z" transform="translate(-0.4297 -0.25)" style="fill:#fff"/><path d="M196.38,92.75a4.06,4.06,0,0,1,.19-1.24,3.11,3.11,0,0,1,.55-1,2.6,2.6,0,0,1,.89-.7,3,3,0,0,1,2.42,0,2.59,2.59,0,0,1,.89.7,3.13,3.13,0,0,1,.55,1,4.06,4.06,0,0,1,.19,1.24,4.11,4.11,0,0,1-.19,1.25,3.06,3.06,0,0,1-.55,1,2.62,2.62,0,0,1-.89.7,3,3,0,0,1-2.42,0,2.63,2.63,0,0,1-.89-.7,3,3,0,0,1-.55-1A4.11,4.11,0,0,1,196.38,92.75Zm.46,0a3.59,3.59,0,0,0,.16,1.06,2.86,2.86,0,0,0,.46.91,2.21,2.21,0,0,0,.74.63,2.34,2.34,0,0,0,2,0,2.21,2.21,0,0,0,.74-.63,2.87,2.87,0,0,0,.46-.91,3.69,3.69,0,0,0,0-2.12,2.88,2.88,0,0,0-.46-.91,2.21,2.21,0,0,0-.74-.63,2.34,2.34,0,0,0-2,0,2.21,2.21,0,0,0-.74.63,2.86,2.86,0,0,0-.46.91,3.6,3.6,0,0,0-.17,1.06Z" transform="translate(-0.4297 -0.25)" style="fill:#fff"/><path d="M205.38,90.06H204v4.31a1.67,1.67,0,0,0,.08.59.68.68,0,0,0,.26.33.91.91,0,0,0,.42.14,4.07,4.07,0,0,0,.57,0v.4a4.3493,4.3493,0,0,1-.68,0,1.36,1.36,0,0,1-.58-.18,1.06,1.06,0,0,1-.4-.45,1.71,1.71,0,0,1-.13-.83V90.06H202.4v-.4h1.14V87.75H204v1.92h1.34Z" transform="translate(-0.4297 -0.25)" style="fill:#fff"/><path d="M208.48,90.06h-1.34v4.31a1.67,1.67,0,0,0,.08.59.68.68,0,0,0,.26.33.91.91,0,0,0,.42.14,4.07,4.07,0,0,0,.57,0v.4a4.3493,4.3493,0,0,1-.68,0,1.36,1.36,0,0,1-.58-.18,1.06,1.06,0,0,1-.4-.45,1.71,1.71,0,0,1-.13-.83V90.06h-1.14v-.4h1.14V87.75h.46v1.92h1.34Z" transform="translate(-0.4297 -0.25)" style="fill:#fff"/><path d="M209.89,87.26v8.57h-.46V87.26Z" transform="translate(-0.4297 -0.25)" style="fill:#fff"/><path d="M211.51,92.81v.12a3.63,3.63,0,0,0,.14,1,2.63,2.63,0,0,0,.43.86,2,2,0,0,0,.71.59,2.18,2.18,0,0,0,1,.22,2.12,2.12,0,0,0,1.47-.49,2.54,2.54,0,0,0,.75-1.35h.46a2.77,2.77,0,0,1-.88,1.66,2.68,2.68,0,0,1-1.79.58,2.73,2.73,0,0,1-1.19-.25,2.44,2.44,0,0,1-.85-.67,2.85,2.85,0,0,1-.51-1,4.49,4.49,0,0,1-.17-1.25,4.43,4.43,0,0,1,.17-1.24,3.12,3.12,0,0,1,.52-1,2.57,2.57,0,0,1,.87-.72,2.65,2.65,0,0,1,1.23-.27,2.61,2.61,0,0,1,1.15.24,2.4,2.4,0,0,1,.83.65,2.92,2.92,0,0,1,.51,1,3.83,3.83,0,0,1,.17,1.17v.27Zm4.54-.4a3.69,3.69,0,0,0-.17-1,2.37,2.37,0,0,0-.43-.79,2.13,2.13,0,0,0-.69-.55,2,2,0,0,0-.92-.2,2.17,2.17,0,0,0-1,.21,2.21,2.21,0,0,0-.71.55,2.45,2.45,0,0,0-.44.8,3.75,3.75,0,0,0-.19.94Z" transform="translate(-0.4297 -0.25)" style="fill:#fff"/><path d="M225.55,91.57a1.81,1.81,0,0,0-.21-.72,1.62,1.62,0,0,0-.45-.52,2,2,0,0,0-.64-.31,2.76,2.76,0,0,0-.79-.11,2.15,2.15,0,0,0-1,.23,2.24,2.24,0,0,0-.74.62,2.83,2.83,0,0,0-.46.89,3.43,3.43,0,0,0-.16,1,4.37,4.37,0,0,0,.14,1.15,2.6,2.6,0,0,0,.44.92,2.06,2.06,0,0,0,.74.61,2.37,2.37,0,0,0,1,.22,2.14,2.14,0,0,0,1.45-.54,2,2,0,0,0,.46-.61,2.45,2.45,0,0,0,.24-.77h.46a2.89,2.89,0,0,1-.3,1,2.43,2.43,0,0,1-.58.73,2.51,2.51,0,0,1-.79.45,3.08,3.08,0,0,1-2.23-.11,2.47,2.47,0,0,1-.88-.73,3.1,3.1,0,0,1-.5-1.05,4.72,4.72,0,0,1-.16-1.24,4,4,0,0,1,.19-1.22,3,3,0,0,1,.55-1,2.6,2.6,0,0,1,.89-.68,2.79,2.79,0,0,1,1.21-.25,3.39,3.39,0,0,1,.94.13,2.45,2.45,0,0,1,.78.38,2,2,0,0,1,.56.64,2.28,2.28,0,0,1,.26.91Z" transform="translate(-0.4297 -0.25)" style="fill:#fff"/><path d="M226.84,92.75a4.06,4.06,0,0,1,.19-1.24,3.11,3.11,0,0,1,.55-1,2.6,2.6,0,0,1,.89-.7,3,3,0,0,1,2.42,0,2.59,2.59,0,0,1,.89.7,3.13,3.13,0,0,1,.55,1,4.06,4.06,0,0,1,.19,1.24,4.11,4.11,0,0,1-.19,1.25,3.06,3.06,0,0,1-.55,1,2.62,2.62,0,0,1-.89.7,3,3,0,0,1-2.42,0,2.63,2.63,0,0,1-.89-.7,3,3,0,0,1-.55-1A4.11,4.11,0,0,1,226.84,92.75Zm.46,0a3.59,3.59,0,0,0,.16,1.06,2.86,2.86,0,0,0,.46.91,2.21,2.21,0,0,0,.74.63,2.34,2.34,0,0,0,2,0,2.21,2.21,0,0,0,.74-.63,2.87,2.87,0,0,0,.46-.91,3.69,3.69,0,0,0,0-2.12,2.88,2.88,0,0,0-.46-.91,2.21,2.21,0,0,0-.74-.63,2.34,2.34,0,0,0-2,0,2.21,2.21,0,0,0-.74.63,2.86,2.86,0,0,0-.46.91A3.6,3.6,0,0,0,227.3,92.75Z" transform="translate(-0.4297 -0.25)" style="fill:#fff"/><path d="M233.58,89.67H234v1.26h0a1.65,1.65,0,0,1,.25-.55,2,2,0,0,1,.44-.45,2.1,2.1,0,0,1,.58-.3,2.05,2.05,0,0,1,.67-.11,2.32,2.32,0,0,1,.77.11,1.85,1.85,0,0,1,.55.3,1.51,1.51,0,0,1,.36.42,1.6,1.6,0,0,1,.18.47h0a2.25,2.25,0,0,1,.74-1,2.05,2.05,0,0,1,1.22-.33,2.3,2.3,0,0,1,.77.13,1.63,1.63,0,0,1,.61.38,1.75,1.75,0,0,1,.4.65,2.73,2.73,0,0,1,.14.94V95.8h-.46V91.61a2,2,0,0,0-.18-.92,1.45,1.45,0,0,0-.43-.51,1.22,1.22,0,0,0-.49-.22,2.39,2.39,0,0,0-.38,0,2,2,0,0,0-.77.14,1.65,1.65,0,0,0-.61.43,2,2,0,0,0-.4.71,3,3,0,0,0-.14,1v3.65h-.46V91.61a2,2,0,0,0-.17-.92,1.38,1.38,0,0,0-.41-.51,1.24,1.24,0,0,0-.48-.22,2.23,2.23,0,0,0-.39,0,1.92,1.92,0,0,0-1.31.54,2.06,2.06,0,0,0-.47.71,2.64,2.64,0,0,0-.18,1v3.65h-.46Z" transform="translate(-0.4297 -0.25)" style="fill:#fff"/><path d="M243.23,87.26h.44v3.67h0a1.94,1.94,0,0,1,.37-.63,2.35,2.35,0,0,1,.55-.46,2.48,2.48,0,0,1,.67-.28,3,3,0,0,1,.75-.09,2.71,2.71,0,0,1,1.18.24,2.37,2.37,0,0,1,.84.66,2.8,2.8,0,0,1,.5,1,4.29,4.29,0,0,1,.16,1.21,4.36,4.36,0,0,1-.3,1.77,2.83,2.83,0,0,1-.72,1,2.19,2.19,0,0,1-.88.47,3.37,3.37,0,0,1-.78.11,2.53,2.53,0,0,1-1-.19,2.57,2.57,0,0,1-.7-.45,2.21,2.21,0,0,1-.42-.51,2.0607,2.0607,0,0,1-.18-.37h0v1.38h-.44Zm2.81,8.32a1.92,1.92,0,0,0,1-.26,2.13,2.13,0,0,0,.69-.69,3.08,3.08,0,0,0,.38-1,4.77,4.77,0,0,0,.12-1.06,3.59,3.59,0,0,0-.14-1,2.63,2.63,0,0,0-.42-.86,2.16,2.16,0,0,0-.7-.61,2,2,0,0,0-1-.23,2.49,2.49,0,0,0-1,.2,2,2,0,0,0-.73.56,2.44,2.44,0,0,0-.43.85,3.76,3.76,0,0,0-.14,1.07,4.64,4.64,0,0,0,.13,1.1,2.89,2.89,0,0,0,.42,1,2.07,2.07,0,0,0,1.81.92Z" transform="translate(-0.4297 -0.25)" style="fill:#fff"/><path d="M249.51,92.75a4.06,4.06,0,0,1,.19-1.24,3.11,3.11,0,0,1,.55-1,2.6,2.6,0,0,1,.89-.7,3,3,0,0,1,2.42,0,2.59,2.59,0,0,1,.89.7,3.13,3.13,0,0,1,.55,1,4.06,4.06,0,0,1,.19,1.24A4.11,4.11,0,0,1,255,94a3.06,3.06,0,0,1-.55,1,2.62,2.62,0,0,1-.89.7,3,3,0,0,1-2.42,0,2.63,2.63,0,0,1-.89-.7,3,3,0,0,1-.55-1A4.11,4.11,0,0,1,249.51,92.75Zm.46,0a3.59,3.59,0,0,0,.16,1.06,2.86,2.86,0,0,0,.46.91,2.21,2.21,0,0,0,.74.63,2.34,2.34,0,0,0,2,0,2.21,2.21,0,0,0,.74-.63,2.87,2.87,0,0,0,.46-.91,3.69,3.69,0,0,0,0-2.12,2.88,2.88,0,0,0-.46-.91,2.21,2.21,0,0,0-.74-.63,2.34,2.34,0,0,0-2,0,2.21,2.21,0,0,0-.74.63,2.86,2.86,0,0,0-.46.91,3.6,3.6,0,0,0-.13,1.06Z" transform="translate(-0.4297 -0.25)" style="fill:#fff"/><path d="M3.8,104.46H2.46v4.31a1.65,1.65,0,0,0,.08.59.66.66,0,0,0,.26.33.91.91,0,0,0,.42.14,4.0794,4.0794,0,0,0,.57,0v.4a4.3607,4.3607,0,0,1-.68,0,1.36,1.36,0,0,1-.58-.18,1.05,1.05,0,0,1-.4-.45,1.7,1.7,0,0,1-.13-.83v-4.31H.86v-.4H2v-1.92h.46v1.92H3.8Z" transform="translate(-0.4297 -0.25)" style="fill:#fff"/><path d="M5.1,101.66v3.72h0a2,2,0,0,1,.34-.62,2.27,2.27,0,0,1,1.16-.75,2.63,2.63,0,0,1,.71-.1,2.8,2.8,0,0,1,.92.13,1.8,1.8,0,0,1,.62.35,1.66,1.66,0,0,1,.38.49,2.24,2.24,0,0,1,.2.55,3.19,3.19,0,0,1,.07.53v4.27H9.07v-3.9a5.66,5.66,0,0,0,0-.58,1.77,1.77,0,0,0-.21-.67,1.54,1.54,0,0,0-.53-.55,1.8,1.8,0,0,0-1-.23,2.17,2.17,0,0,0-.94.19,2,2,0,0,0-.7.53,2.37,2.37,0,0,0-.44.82,3.44,3.44,0,0,0-.15,1v3.34H4.64v-8.57Z" transform="translate(-0.4297 -0.25)" style="fill:#fff"/><path d="M15,109.01h0a1.94,1.94,0,0,1-.31.52,2.24,2.24,0,0,1-.5.44,2.51,2.51,0,0,1-.67.3,2.92,2.92,0,0,1-.82.11,2.41,2.41,0,0,1-1.52-.43,1.57,1.57,0,0,1-.54-1.31,1.55,1.55,0,0,1,.76-1.42,2.33,2.33,0,0,1,.73-.28,7.08,7.08,0,0,1,.77-.12l.71-.06a4.15,4.15,0,0,0,.77-.11,1,1,0,0,0,.43-.22.62.62,0,0,0,.18-.35,3.32,3.32,0,0,0,0-.54,1.15,1.15,0,0,0-.1-.47,1,1,0,0,0-.3-.38,1.5,1.5,0,0,0-.53-.26,2.85,2.85,0,0,0-.79-.1,2.07,2.07,0,0,0-1.34.41,1.61,1.61,0,0,0-.56,1.24h-.46a2,2,0,0,1,.65-1.53,2.6,2.6,0,0,1,1.72-.51,2.47,2.47,0,0,1,1.63.44,1.44,1.44,0,0,1,.51,1.15v3.85a.87.87,0,0,0,0,.24.36.36,0,0,0,.12.17.38.38,0,0,0,.24.07h.34v.38a1.42,1.42,0,0,1-.37,0,1.1,1.1,0,0,1-.44-.07.57.57,0,0,1-.25-.19.71.71,0,0,1-.11-.28,2,2,0,0,1,0-.35Zm0-2.28a.88.88,0,0,1-.51.28,6.251,6.251,0,0,1-.76.11l-.77.07a2.2984,2.2984,0,0,0-.67.1,1.94,1.94,0,0,0-.61.22,1.24,1.24,0,0,0-.44.43,1.31,1.31,0,0,0-.17.7,1.19,1.19,0,0,0,.43,1,1.91,1.91,0,0,0,1.19.33,2.34,2.34,0,0,0,1.24-.28,2.18,2.18,0,0,0,.7-.65,2,2,0,0,0,.31-.71,3.19,3.19,0,0,0,.06-.4Z" transform="translate(-0.4297 -0.25)" style="fill:#fff"/><path d="M19.14,104.46H17.8v4.31a1.65,1.65,0,0,0,.08.59.66.66,0,0,0,.26.33.91.91,0,0,0,.42.14,4.0793,4.0793,0,0,0,.57,0v.4a4.3607,4.3607,0,0,1-.68,0,1.36,1.36,0,0,1-.58-.18,1.05,1.05,0,0,1-.4-.45,1.7,1.7,0,0,1-.13-.83v-4.31H16.2v-.4h1.14v-1.92h.46v1.92h1.34Z" transform="translate(-0.4297 -0.25)" style="fill:#fff"/><path d="M23.77,101.66v3.72h0a2,2,0,0,1,.34-.62,2.27,2.27,0,0,1,1.16-.75,2.63,2.63,0,0,1,.73-.08,2.8,2.8,0,0,1,.92.13,1.8,1.8,0,0,1,.62.35,1.66,1.66,0,0,1,.38.49,2.24,2.24,0,0,1,.2.55,3.19,3.19,0,0,1,.07.53v4.27h-.46v-3.9a5.66,5.66,0,0,0,0-.58,1.77,1.77,0,0,0-.21-.67,1.54,1.54,0,0,0-.53-.55,1.8,1.8,0,0,0-1-.23,2.17,2.17,0,0,0-.94.19,2,2,0,0,0-.7.53,2.37,2.37,0,0,0-.44.82,3.44,3.44,0,0,0-.15,1v3.34H23.3v-8.57Z" transform="translate(-0.4297 -0.25)" style="fill:#fff"/><path d="M29.71,107.21v.07a3.63,3.63,0,0,0,.14,1,2.65,2.65,0,0,0,.43.86,2,2,0,0,0,.71.59,2.17,2.17,0,0,0,1,.22,2.11,2.11,0,0,0,1.47-.49,2.54,2.54,0,0,0,.75-1.35h.46a2.76,2.76,0,0,1-.88,1.66,2.67,2.67,0,0,1-1.79.58,2.73,2.73,0,0,1-1.19-.25,2.43,2.43,0,0,1-.85-.67,2.85,2.85,0,0,1-.51-1,4.53,4.53,0,0,1-.17-1.25,4.43,4.43,0,0,1,.17-1.24,3.12,3.12,0,0,1,.52-1,2.58,2.58,0,0,1,.87-.72,2.65,2.65,0,0,1,1.23-.27,2.61,2.61,0,0,1,1.15.24,2.4,2.4,0,0,1,.83.65,2.92,2.92,0,0,1,.51,1,3.83,3.83,0,0,1,.17,1.17v.27Zm4.54-.4a3.69,3.69,0,0,0-.17-1,2.37,2.37,0,0,0-.43-.79,2.13,2.13,0,0,0-.69-.55,2,2,0,0,0-.92-.2,2.16,2.16,0,0,0-1,.21,2.21,2.21,0,0,0-.71.55,2.51,2.51,0,0,0-.45.8,3.75,3.75,0,0,0-.19.94Z" transform="translate(-0.4297 -0.25)" style="fill:#fff"/><path d="M36.33,101.66v8.57h-.46v-8.57Z" transform="translate(-0.4297 -0.25)" style="fill:#fff"/><path d="M38.34,105.48h0a2.32,2.32,0,0,1,.24-.5,2.1,2.1,0,0,1,.44-.51,2.36,2.36,0,0,1,1.56-.55,2.69,2.69,0,0,1,1.23.26,2.5,2.5,0,0,1,.87.71,3,3,0,0,1,.51,1,4.5,4.5,0,0,1,.17,1.24,4.69,4.69,0,0,1-.17,1.3,2.85,2.85,0,0,1-.51,1,2.35,2.35,0,0,1-.87.67,3,3,0,0,1-1.23.24,2.75,2.75,0,0,1-1.37-.34,2,2,0,0,1-.88-1.09h0v3.49H37.9v-8.38h.44Zm2.27,4.5a2.22,2.22,0,0,0,1-.23,2.06,2.06,0,0,0,.72-.61,2.69,2.69,0,0,0,.42-.89,4.25,4.25,0,0,0,0-2.12,2.88,2.88,0,0,0-.41-.91,2.1,2.1,0,0,0-.72-.65,2.41,2.41,0,0,0-2.11,0,2,2,0,0,0-.7.64,2.69,2.69,0,0,0-.39.91,4.62,4.62,0,0,0-.12,1.06,5.1,5.1,0,0,0,.11,1.06,2.57,2.57,0,0,0,.37.9,1.87,1.87,0,0,0,.7.62A2.29,2.29,0,0,0,40.61,109.98Z" transform="translate(-0.4297 -0.25)" style="fill:#fff"/><path d="M44.67,108.18a1.88,1.88,0,0,0,.19.76,1.82,1.82,0,0,0,1.07.92,2.45,2.45,0,0,0,.78.12,4.1,4.1,0,0,0,.64-.05,2.24,2.24,0,0,0,.64-.2,1.32,1.32,0,0,0,.49-.4,1.07,1.07,0,0,0,.19-.65,1,1,0,0,0-.31-.78,2.17,2.17,0,0,0-.79-.41,8.15,8.15,0,0,0-1-.23,5.22,5.22,0,0,1-1-.27,2.08,2.08,0,0,1-.79-.51,1.36,1.36,0,0,1-.31-1,1.34,1.34,0,0,1,.21-.76,1.5,1.5,0,0,1,.52-.49,2.39,2.39,0,0,1,.71-.26,4.11,4.11,0,0,1,.79-.08,3.59,3.59,0,0,1,.9.11,2,2,0,0,1,.73.35,1.65,1.65,0,0,1,.48.61,2.09,2.09,0,0,1,.17.9h-.46a1.72,1.72,0,0,0-.14-.72,1.26,1.26,0,0,0-.38-.49,1.69,1.69,0,0,0-.58-.28,2.8,2.8,0,0,0-.72-.09,3.47,3.47,0,0,0-.63.06,1.85,1.85,0,0,0-.57.2,1.29,1.29,0,0,0-.41.37.93.93,0,0,0-.16.55.94.94,0,0,0,.18.6,1.27,1.27,0,0,0,.47.37,3.27,3.27,0,0,0,.66.22l.74.17a7.42,7.42,0,0,1,.86.2,2.43,2.43,0,0,1,.7.31,1.42,1.42,0,0,1,.46.6,1.66,1.66,0,0,1,.17.79,1.41,1.41,0,0,1-.23.83,1.75,1.75,0,0,1-.58.52,2.47,2.47,0,0,1-.77.28,4.66,4.66,0,0,1-.83.08,3.32,3.32,0,0,1-1-.14,2.2,2.2,0,0,1-.79-.42,2,2,0,0,1-.53-.69,2.33,2.33,0,0,1-.2-.95Z" transform="translate(-0.4297 -0.25)" style="fill:#fff"/><path d="M53.59,101.66H54v5.68l3.8-3.28h.66l-2.7,2.3,2.89,3.86h-.62L55.4,106.7,54,107.93v2.33h-.46Z" transform="translate(-0.4297 -0.25)" style="fill:#fff"/><path d="M59.15,107.21v.07a3.63,3.63,0,0,0,.14,1,2.63,2.63,0,0,0,.43.86,2,2,0,0,0,.71.59,2.17,2.17,0,0,0,1,.22,2.12,2.12,0,0,0,1.47-.49,2.54,2.54,0,0,0,.75-1.35h.46a2.76,2.76,0,0,1-.88,1.66,2.68,2.68,0,0,1-1.79.58,2.73,2.73,0,0,1-1.19-.25,2.42,2.42,0,0,1-.85-.67,2.87,2.87,0,0,1-.51-1,4.53,4.53,0,0,1-.17-1.25,4.39,4.39,0,0,1,.17-1.24,3.12,3.12,0,0,1,.52-1,2.58,2.58,0,0,1,.87-.72,2.65,2.65,0,0,1,1.23-.27,2.61,2.61,0,0,1,1.15.24,2.41,2.41,0,0,1,.83.65,3,3,0,0,1,.51,1,3.86,3.86,0,0,1,.17,1.17v.27Zm4.54-.4a3.69,3.69,0,0,0-.17-1,2.33,2.33,0,0,0-.43-.79,2.11,2.11,0,0,0-.69-.55,2,2,0,0,0-.92-.2,2.16,2.16,0,0,0-1,.21,2.2,2.2,0,0,0-.71.55,2.47,2.47,0,0,0-.45.8,3.71,3.71,0,0,0-.19.94Z" transform="translate(-0.4297 -0.25)" style="fill:#fff"/><path d="M65.38,107.21v.07a3.63,3.63,0,0,0,.14,1,2.65,2.65,0,0,0,.43.86,2,2,0,0,0,.71.59,2.17,2.17,0,0,0,1,.22,2.11,2.11,0,0,0,1.47-.49,2.54,2.54,0,0,0,.75-1.35h.46a2.76,2.76,0,0,1-.88,1.66,2.67,2.67,0,0,1-1.79.58,2.73,2.73,0,0,1-1.19-.25,2.43,2.43,0,0,1-.85-.67,2.85,2.85,0,0,1-.51-1,4.53,4.53,0,0,1-.17-1.25,4.43,4.43,0,0,1,.17-1.24,3.12,3.12,0,0,1,.52-1,2.58,2.58,0,0,1,.87-.72,2.65,2.65,0,0,1,1.23-.27,2.61,2.61,0,0,1,1.15.24,2.4,2.4,0,0,1,.83.65,2.92,2.92,0,0,1,.51,1,3.83,3.83,0,0,1,.17,1.17v.27Zm4.54-.4a3.69,3.69,0,0,0-.17-1,2.37,2.37,0,0,0-.43-.79,2.13,2.13,0,0,0-.69-.55,2,2,0,0,0-.92-.2,2.16,2.16,0,0,0-1,.21,2.21,2.21,0,0,0-.71.55,2.51,2.51,0,0,0-.45.8,3.75,3.75,0,0,0-.19.94Z" transform="translate(-0.4297 -0.25)" style="fill:#fff"/><path d="M72,105.48h0a2.41,2.41,0,0,1,.24-.5,2.1,2.1,0,0,1,.44-.51,2.36,2.36,0,0,1,1.56-.55,2.7,2.7,0,0,1,1.23.26,2.49,2.49,0,0,1,.86.71,3,3,0,0,1,.51,1,4.46,4.46,0,0,1,.17,1.24,4.65,4.65,0,0,1-.17,1.3,2.83,2.83,0,0,1-.51,1,2.34,2.34,0,0,1-.87.67,3,3,0,0,1-1.23.24,2.75,2.75,0,0,1-1.37-.34,2,2,0,0,1-.86-1.07h0v3.49h-.44v-8.38H72Zm2.27,4.5a2.23,2.23,0,0,0,1-.23,2.06,2.06,0,0,0,.72-.61,2.67,2.67,0,0,0,.42-.89,4.22,4.22,0,0,0,0-2.12,2.88,2.88,0,0,0-.41-.91,2.11,2.11,0,0,0-.72-.65,2.41,2.41,0,0,0-2.11,0,2,2,0,0,0-.7.64,2.69,2.69,0,0,0-.39.91,4.62,4.62,0,0,0-.12,1.06,5.1,5.1,0,0,0,.11,1.06,2.59,2.59,0,0,0,.37.9,1.88,1.88,0,0,0,.7.62,2.29,2.29,0,0,0,1.12.22Z" transform="translate(-0.4297 -0.25)" style="fill:#fff"/><path d="M80.7,104.06h.54l2.29,5.63,2.11-5.63h.52l-2.64,6.87c-.13.3-.25.57-.35.79a1.35,1.35,0,0,1-.37.49,1.13,1.13,0,0,1-.57.23,7.1307,7.1307,0,0,1-.87,0v-.4a3,3,0,0,0,.77-.08,1.19,1.19,0,0,0,.52-.32,1.53,1.53,0,0,0,.28-.49c.1-.24.22-.56.36-1Z" transform="translate(-0.4297 -0.25)" style="fill:#fff"/><path d="M86.48,107.15a4.06,4.06,0,0,1,.19-1.24,3.11,3.11,0,0,1,.55-1,2.6,2.6,0,0,1,.89-.7,3,3,0,0,1,2.42,0,2.59,2.59,0,0,1,.89.7,3.13,3.13,0,0,1,.55,1,4.06,4.06,0,0,1,.19,1.24,4.11,4.11,0,0,1-.19,1.25,3.06,3.06,0,0,1-.55,1,2.62,2.62,0,0,1-.89.7,3,3,0,0,1-2.42,0,2.63,2.63,0,0,1-.89-.7,3,3,0,0,1-.55-1A4.11,4.11,0,0,1,86.48,107.15Zm.46,0a3.59,3.59,0,0,0,.16,1.06,2.86,2.86,0,0,0,.46.91,2.21,2.21,0,0,0,.74.63,2.34,2.34,0,0,0,2,0,2.21,2.21,0,0,0,.74-.63,2.87,2.87,0,0,0,.46-.91,3.69,3.69,0,0,0,0-2.12,2.88,2.88,0,0,0-.46-.91,2.21,2.21,0,0,0-.74-.63,2.34,2.34,0,0,0-2,0,2.21,2.21,0,0,0-.74.63,2.86,2.86,0,0,0-.46.91A3.6,3.6,0,0,0,86.94,107.15Z" transform="translate(-0.4297 -0.25)" style="fill:#fff"/><path d="M98.1,110.23h-.46v-1.3h0a2,2,0,0,1-.34.62,2.28,2.28,0,0,1-1.16.75,2.63,2.63,0,0,1-.71.1,2.8,2.8,0,0,1-.92-.13,1.8,1.8,0,0,1-.62-.35,1.67,1.67,0,0,1-.38-.49,2.24,2.24,0,0,1-.2-.55,3.18,3.18,0,0,1-.07-.53v-4.27h.46v3.85a5.588,5.588,0,0,0,0,.58,1.75,1.75,0,0,0,.21.66,1.53,1.53,0,0,0,.52.55,1.78,1.78,0,0,0,1,.23,2.18,2.18,0,0,0,.93-.19,2,2,0,0,0,.7-.53,2.36,2.36,0,0,0,.44-.82,3.44,3.44,0,0,0,.15-1v-3.34h.46Z" transform="translate(-0.4297 -0.25)" style="fill:#fff"/><path d="M102.83,101.66h1.37v3.18h0a2,2,0,0,1,.75-.7,2.21,2.21,0,0,1,1.11-.28,2.32,2.32,0,0,1,1.61.53,2,2,0,0,1,.59,1.58v4.26h-1.37v-3.9a1.69,1.69,0,0,0-.31-1.06,1.14,1.14,0,0,0-.9-.33,1.48,1.48,0,0,0-.62.13,1.36,1.36,0,0,0-.47.35,1.63,1.63,0,0,0-.3.52,1.86,1.86,0,0,0-.11.64v3.66h-1.37Z" transform="translate(-0.4297 -0.25)" style="fill:#fff"/><path d="M109,104.03h1.5l1.62,4.63h0l1.57-4.63h1.43l-2.41,6.54-.33.8a2.9,2.9,0,0,1-.4.68,1.72,1.72,0,0,1-.58.47,2,2,0,0,1-.89.17,6.2394,6.2394,0,0,1-.95-.07v-1.15l.32.05a1.75,1.75,0,0,0,.32,0,1.12,1.12,0,0,0,.4-.06.65.65,0,0,0,.26-.17,1.07,1.07,0,0,0,.17-.27,2.7089,2.7089,0,0,0,.13-.36l.16-.48Z" transform="translate(-0.4297 -0.25)" style="fill:#fff"/><path d="M121.79,110.23h-1.3v-.84h0a1.63,1.63,0,0,1-.8.77,2.72,2.72,0,0,1-1.12.23,3,3,0,0,1-1.28-.26,2.55,2.55,0,0,1-.91-.7,3,3,0,0,1-.54-1,4.58,4.58,0,0,1-.18-1.3,4.15,4.15,0,0,1,.23-1.45,2.89,2.89,0,0,1,.61-1,2.33,2.33,0,0,1,.86-.58,2.75,2.75,0,0,1,1-.19,3.4005,3.4005,0,0,1,.59.05,2.62,2.62,0,0,1,.58.17,2.29,2.29,0,0,1,.51.31,1.68,1.68,0,0,1,.39.44h0v-3.17h1.37Zm-4.78-3a3.06,3.06,0,0,0,.1.78,2.13,2.13,0,0,0,.31.68,1.52,1.52,0,0,0,1.3.66,1.54,1.54,0,0,0,.79-.19,1.63,1.63,0,0,0,.54-.5,2.27,2.27,0,0,0,.31-.7,3.13,3.13,0,0,0,.1-.8,2.51,2.51,0,0,0-.46-1.61,1.52,1.52,0,0,0-1.25-.58,1.55,1.55,0,0,0-.81.2,1.67,1.67,0,0,0-.54.52,2.16,2.16,0,0,0-.3.72,3.78,3.78,0,0,0-.1.79Z" transform="translate(-0.4297 -0.25)" style="fill:#fff"/><path d="M123.27,104.03h1.28v1.2h0a1.38,1.38,0,0,1,.23-.49,2.27,2.27,0,0,1,.42-.44,2.12,2.12,0,0,1,.55-.32,1.64,1.64,0,0,1,.61-.12h.52v1.32h-.58a1.57,1.57,0,0,0-.65.14,1.51,1.51,0,0,0-.53.41,2,2,0,0,0-.36.67,2.89,2.89,0,0,0-.13.91v3h-1.37Z" transform="translate(-0.4297 -0.25)" style="fill:#fff"/><path d="M132.69,108.85a.72.72,0,0,0,.07.36.28.28,0,0,0,.26.11h.33v.95l-.19.05-.23.05h-.44a1.32,1.32,0,0,1-.7-.17.84.84,0,0,1-.36-.59,2.43,2.43,0,0,1-1,.58,4,4,0,0,1-1.15.18,2.8,2.8,0,0,1-.8-.11,2.08,2.08,0,0,1-.68-.34,1.61,1.61,0,0,1-.47-.56,1.75,1.75,0,0,1-.17-.8,1.85,1.85,0,0,1,.21-.94,1.55,1.55,0,0,1,.55-.56,2.48,2.48,0,0,1,.77-.29q.43-.09.86-.14a6.8608,6.8608,0,0,1,.71-.1,3.38,3.38,0,0,0,.59-.1.92.92,0,0,0,.41-.22.61.61,0,0,0,.15-.45.7.7,0,0,0-.13-.43.84.84,0,0,0-.31-.26,1.33,1.33,0,0,0-.41-.12h-.43a1.71,1.71,0,0,0-.95.24.93.93,0,0,0-.42.74h-1.37a2.05,2.05,0,0,1,.29-1,2,2,0,0,1,.64-.64,2.65,2.65,0,0,1,.88-.34,5.29,5.29,0,0,1,1-.1,4.28,4.28,0,0,1,.9.1,2.56,2.56,0,0,1,.8.31,1.73,1.73,0,0,1,.57.56,1.54,1.54,0,0,1,.22.83Zm-1.37-1.73a1.64,1.64,0,0,1-.77.25,3.2637,3.2637,0,0,0-.91.13,3.0006,3.0006,0,0,0-.42.1,1.25,1.25,0,0,0-.36.18.8.8,0,0,0-.25.3,1,1,0,0,0-.09.45.57.57,0,0,0,.13.38,1,1,0,0,0,.32.25,1.43,1.43,0,0,0,.41.13,2.4706,2.4706,0,0,0,.4,0,2.22,2.22,0,0,0,.49-.06,1.65,1.65,0,0,0,.5-.2,1.3,1.3,0,0,0,.39-.37.92.92,0,0,0,.16-.55Z" transform="translate(-0.4297 -0.25)" style="fill:#fff"/><path d="M133.54,104.03h1v-1.86h1.37v1.86h1.24v1h-1.24v3.31a3.37,3.37,0,0,0,0,.37.65.65,0,0,0,.08.26.4.4,0,0,0,.2.16,1,1,0,0,0,.36.05h.29a1.41,1.41,0,0,0,.29,0v1.06h-.88a3.06,3.06,0,0,1-.87-.1,1.17,1.17,0,0,1-.52-.3,1,1,0,0,1-.25-.5,3.739,3.739,0,0,1-.08-.68V105h-1Z" transform="translate(-0.4297 -0.25)" style="fill:#fff"/><path d="M139.23,107.48a2.4,2.4,0,0,0,.1.7,1.71,1.71,0,0,0,.31.59,1.48,1.48,0,0,0,.52.4,1.71,1.71,0,0,0,.74.15,1.65,1.65,0,0,0,1-.26,1.52,1.52,0,0,0,.55-.77h1.3a2.55,2.55,0,0,1-.37.9,2.58,2.58,0,0,1-.64.67,2.75,2.75,0,0,1-.83.41,3.36,3.36,0,0,1-1,.14,3.28,3.28,0,0,1-1.3-.24,2.68,2.68,0,0,1-1-.67,2.85,2.85,0,0,1-.59-1,4.19,4.19,0,0,1-.2-1.32,3.74,3.74,0,0,1,.21-1.25,3.18,3.18,0,0,1,.6-1,2.9065,2.9065,0,0,1,3.5-.69,2.89,2.89,0,0,1,1,.81,3.28,3.28,0,0,1,.56,1.16,3.53,3.53,0,0,1,.09,1.35Zm3.19-.9a2.2205,2.2205,0,0,0-.14-.62,1.68,1.68,0,0,0-.31-.52,1.55,1.55,0,0,0-.48-.36,1.41,1.41,0,0,0-.63-.14,1.65,1.65,0,0,0-.65.13,1.52,1.52,0,0,0-.5.35,1.73,1.73,0,0,0-.34.52,1.82,1.82,0,0,0-.14.65Z" transform="translate(-0.4297 -0.25)" style="fill:#fff"/><path d="M150.68,110.23h-1.3v-.84h0a1.63,1.63,0,0,1-.8.77,2.72,2.72,0,0,1-1.12.23,3,3,0,0,1-1.28-.26,2.55,2.55,0,0,1-.91-.7,3,3,0,0,1-.54-1,4.58,4.58,0,0,1-.18-1.3,4.15,4.15,0,0,1,.23-1.45,2.89,2.89,0,0,1,.61-1,2.33,2.33,0,0,1,.86-.58,2.75,2.75,0,0,1,1-.19,3.4006,3.4006,0,0,1,.59.05,2.62,2.62,0,0,1,.58.17,2.29,2.29,0,0,1,.51.31,1.68,1.68,0,0,1,.39.44h0v-3.17h1.37Zm-4.78-3a3.06,3.06,0,0,0,.1.78,2.13,2.13,0,0,0,.31.68,1.52,1.52,0,0,0,1.3.66,1.54,1.54,0,0,0,.79-.19,1.63,1.63,0,0,0,.54-.5,2.27,2.27,0,0,0,.31-.7,3.13,3.13,0,0,0,.1-.8,2.51,2.51,0,0,0-.46-1.61,1.52,1.52,0,0,0-1.25-.58,1.55,1.55,0,0,0-.81.2,1.67,1.67,0,0,0-.54.52,2.16,2.16,0,0,0-.3.72,3.78,3.78,0,0,0-.08.79Z" transform="translate(-0.4297 -0.25)" style="fill:#fff"/><path d="M152.81,109h.61v1.24h-.61Z" transform="translate(-0.4297 -0.25)" style="fill:#fff"/><g id="LOGO"><g id="AM" style="isolation:isolate"><g style="isolation:isolate"><path d="M.43,52.9639,20.576.5049h7.4788l21.47,52.459H41.6168l-6.119-15.888H13.5623L7.8011,52.9639ZM15.5662,31.4221H33.3508L27.8758,16.8938q-2.5049-6.62-3.7215-10.8783A66.873,66.873,0,0,1,21.3274,16.035Z" transform="translate(-0.4297 -0.25)" style="fill:#fff"/><path d="M59.4006,52.9639V.5049H69.8495l12.417,37.1436q1.7176,5.1886,2.5049,7.7651.8946-2.8627,2.7911-8.4092L100.1233.5049h9.34v52.459h-6.6916V9.0572L87.5267,52.9639H81.2645L66.0922,8.3057V52.9639Z" transform="translate(-0.4297 -0.25)" style="fill:#fff"/></g></g><circle id="Oval-2" cx="150.9366" cy="26.1337" r="25.6337" style="fill:#00cfff;stroke:#00d2ff"/><path id="Shape" d="M159.8258,26.6621l-6.85-11.5271a1.8732,1.8732,0,0,0-3.1932,0L143.5772,25.56l-.58.9621-.0368.0626a9.1186,9.1186,0,0,0-1.0378,4.1373,9.316,9.316,0,0,0,9.4446,9.1532,9.5031,9.5031,0,0,0,8.003-4.29,8.9136,8.9136,0,0,0,.4928-8.8573Z" transform="translate(-0.4297 -0.25)" style="fill:#fff"/></g></svg>