<svg xmlns="http://www.w3.org/2000/svg" viewBox="0 0 84.63 81.56"><defs><style>.cls-1{fill:#fff;}.cls-2{fill:#ad7681;}.cls-3{fill:#225d6b;}</style></defs><title>Asset 2</title><g id="Layer_2" data-name="Layer 2"><g id="Layer_1-2" data-name="Layer 1"><path class="cls-1" d="M74.47,44.32A37.2,37.2,0,0,1,38.4,81.54l-1.17,0c-.53,0-1,0-1.58,0A37.24,37.24,0,0,1,8.38,67.86c-.51-.62-1-1.25-1.45-1.9A37.24,37.24,0,0,1,37.23,7.08,37.3,37.3,0,0,1,53.85,11,37.26,37.26,0,0,1,74.34,41.18C74.43,42.21,74.47,43.26,74.47,44.32Z"/><path class="cls-2" d="M24,79a5.47,5.47,0,0,0-2-7.47L19.34,70l-6.8-3.93a5.39,5.39,0,0,0-3.15-.71,5.54,5.54,0,0,0-2.34.74c.43.59.86,1.17,1.33,1.74a37.32,37.32,0,0,0,8.3,7.51A36.65,36.65,0,0,0,24,79.12Z"/><path class="cls-2" d="M74.34,41.18A37.26,37.26,0,0,0,53.85,11,37.3,37.3,0,0,0,37.23,7.08,37.23,37.23,0,0,0,0,44.32a37.67,37.67,0,0,0,1.06,8.81L20.48,19.5A5.47,5.47,0,0,1,30,25L16,49.14a5.45,5.45,0,0,0,2,7.47l6.81,3.93,2.67,1.55a5.48,5.48,0,0,0,7.48-2l4.74-8.21,5.48-9.48,3.73-6.47a5.47,5.47,0,0,1,9.48,5.47L55.14,47,48.71,58.17,35.24,81.5l.41,0c.53,0,1.05,0,1.58,0l1.17,0A37.2,37.2,0,0,0,74.47,44.32C74.47,43.26,74.43,42.21,74.34,41.18Z"/><path class="cls-3" d="M83.9,24.62,74.34,41.18,53.06,78a37.08,37.08,0,0,1-14.66,3.5L49.52,62.27a5.43,5.43,0,0,0,.19-5.1,5.37,5.37,0,0,0-2.19-2.37l-6.81-3.93L38,49.32a5.48,5.48,0,0,0-7.48,2l-4.74,8.21L20.34,69l-3.66,6.35a37.32,37.32,0,0,1-8.3-7.51l2-3.48,6.42-11.13L43.19,7.56,46,2.73A5.47,5.47,0,0,1,55.46,8.2L53.85,11,41.51,32.37a5.46,5.46,0,0,0,2,7.47l2.68,1.55L53,45.32a5.39,5.39,0,0,0,3.15.71,5.46,5.46,0,0,0,4.33-2.72l9.58-16.59,4.37-7.57a5.47,5.47,0,0,1,9.48,5.47Z"/></g></g></svg>