<?xml version="1.0" encoding="UTF-8"?>
<svg width="700px" height="512px" viewBox="0 0 700 512" version="1.1" xmlns="http://www.w3.org/2000/svg" xmlns:xlink="http://www.w3.org/1999/xlink">
    <!-- Generator: Sketch 52.5 (67469) - http://www.bohemiancoding.com/sketch -->
    <title>Me</title>
    <desc>Created with Sketch.</desc>
    <defs>
        <path d="M4,-1.0658141e-13 L98,-1.0658141e-13 L95.6926809,124.985826 L0.610374369,122.834285 C2.27278665,105.941932 3.40266186,86.6724941 4,65.0259727 C4.59733814,43.3794512 4.59733814,21.704127 4,-1.0658141e-13 Z" id="path-1"></path>
        <rect id="path-3" x="0" y="0" width="49" height="153"></rect>
        <polygon id="path-5" points="0.691533257 7.53706399 2.94637994 21.851674 18.2903366 52.7064094 46.948888 37.0828884 28.1135854 0.39946597"></polygon>
        <polygon id="path-7" points="15.7645731 0.450122416 0.378710978 16.1112077 0.378710978 56.3159835 17.2315329 52.9704777 38.7477343 19.8766412 35.7816079 1.99144189"></polygon>
        <rect id="path-9" x="0.497012821" y="0.0392903281" width="5" height="57" rx="2"></rect>
    </defs>
    <g id="Me" stroke="none" stroke-width="1" fill="none" fill-rule="evenodd">
        <rect id="Rectangle" fill="#776565" fill-rule="nonzero" x="52" y="449" width="629" height="15" rx="7.5"></rect>
        <g id="books" transform="translate(343.000000, 415.000000)" fill-rule="nonzero">
            <rect id="Rectangle" fill="#ECE2D8" x="12" y="18" width="57" height="13"></rect>
            <rect id="Rectangle" fill="#DCB284" x="9" y="15" width="69" height="3" rx="1"></rect>
            <rect id="Rectangle-Copy-2" fill="#DCB284" x="9" y="31" width="69" height="3" rx="1"></rect>
            <rect id="Rectangle-Copy-5" fill="#85587C" x="0" y="0" width="69" height="15" rx="5"></rect>
            <rect id="Rectangle-Copy-3" fill="#ECE2D8" x="3" y="3" width="57" height="9" rx="2"></rect>
            <polygon id="Rectangle" fill="#CC7171" points="24 21 34 21 34 38.7917292 29 36.448774 24 38.7917292"></polygon>
        </g>
        <g id="paper" transform="translate(288.000000, 200.000000)">
            <rect id="Rectangle" fill="#D7D7D7" fill-rule="nonzero" x="1" y="0" width="94" height="121"></rect>
            <g id="Group-6">
                <mask id="mask-2" fill="white">
                    <use xlink:href="#path-1"></use>
                </mask>
                <use id="Rectangle" fill="#EFEFEF" fill-rule="nonzero" transform="translate(49.305187, 62.492913) scale(-1, 1) translate(-49.305187, -62.492913) " xlink:href="#path-1"></use>
                <g id="Group-5" mask="url(#mask-2)" fill-rule="nonzero" stroke="#B8CBBF">
                    <g transform="translate(24.000000, 13.000000)">
                        <path d="M20.2765141,3.98406704 C-18.5882416,21.0913278 11.3280112,57.0907244 40.6596202,34.570592 C61.6538232,18.4517276 23.6869236,-11.0572695 18.329333,5.75207427" id="Path-9"></path>
                        <path d="M18.8917729,6.22789366 C-0.0443178721,61.0030226 2.25028175,40.7428185 0.0346112511,64.4178764" id="Path-10"></path>
                        <path d="M19.2382548,6.05465268 C41.4047014,21.9970325 49.0532485,36.3630444 53.2753603,63.4436925" id="Path-11"></path>
                        <path d="M1.45376336,21.6665124 C1.28243906,54.3977442 0.228744081,40.468671 2.90139343,63.5481118" id="Path-12"></path>
                        <path d="M37.5614545,8.03268493 C53.4816502,21.7732334 56.9675702,45.0327408 52.0721662,65.0669368" id="Path-13"></path>
                        <path d="M18.1608383,21.3627474 C13.7873541,13.9809128 21.9843051,28.1850121 17.6363691,20.9225255" id="Path-14"></path>
                        <path d="M27.2951468,17.153941 C27.095801,19.251027 26.8964552,21.3481129 26.6971095,23.4451989" id="Path-15"></path>
                        <path d="M19.1575672,31.3324097 C28.833167,34.214023 25.0801694,35.6363448 30.9071025,28.7017573" id="Path-16"></path>
                        <path d="M25.5890083,42.4812563 C25.9749667,44.8864674 26.3609251,47.2916784 26.7468835,49.6968895" id="Path-17"></path>
                        <path d="M24.6199426,46.424975 C15.1799671,50.0178015 16.0604276,47.3966988 24.30225,54.7139785" id="Path-18"></path>
                        <path d="M23.8799205,54.7139785 C23.5683017,58.2596629 19.7082689,75.0800068 26.6874659,78.8926551 C28.7968397,80.0449796 26.1379137,74.0472045 26.5702222,71.6827979 C27.7281806,65.3496252 29.8059802,59.2196665 31.4238593,52.9881008" id="Path-19"></path>
                        <path d="M31.3393934,53.5705372 C37.6906807,49.8036645 43.9573374,46.7420224 30.8691579,47.2961083" id="Path-20"></path>
                        <path d="M22.2599404,64.707428 C24.1921502,64.4821857 26.12436,64.2569433 28.0565698,64.0317009" id="Path-21"></path>
                        <path d="M16.9310251,49.8716876 C17.1537461,52.5884637 17.3764671,55.3052397 17.5991881,58.0220158" id="Path-22"></path>
                        <path d="M17.0734825,58.0598363 C14.5029459,60.1866118 11.9324093,62.3133873 9.3618727,64.4401628" id="Path-23"></path>
                        <path d="M9.3618727,64.4401628 C11.5808856,74.719251 11.4865532,69.1447788 8.33063241,81.1341529" id="Path-24"></path>
                        <polyline id="Path-25" points="38.279464 49.0761954 38.279464 51.6580782 38.279464 53.9726957 38.279464 54.1567557 38.279464 55.9141505 38.279464 55.9973558 38.279464 56.1814158 38.279464 56.264621 38.279464 56.3478262 38.279464 56.6150914 38.279464 56.7815018 38.279464 56.9479122 38.279464 57.0311174 38.279464 57.1143226 38.279464 57.1975278 38.279464 57.280733"></polyline>
                        <path d="M38.279464,57.280733 C41.2324084,59.0625011 44.1853527,60.8442691 47.1382971,62.6260372" id="Path-26"></path>
                        <path d="M47.1382971,62.6260372 C52.0882814,75.2076593 51.9771067,68.3183476 41.6782706,82.5625089" id="Path-27"></path>
                        <path d="M7.94864487,80.98161 C9.01056183,82.0405854 10.0724788,83.0995607 11.1343957,84.1585361" id="Path-28"></path>
                        <path d="M11.1343957,84.1585361 C13.6769387,70.2754906 18.8706477,88.8883061 15.06269,72.862799" id="Path-29"></path>
                        <path d="M40.9546375,69.4513855 C32.1032995,91.9332809 39.2366645,69.9920191 42.1069035,82.6709279" id="Path-30"></path>
                        <path d="M12.4732431,81.1316315 C13.0455941,82.4213122 13.6179451,83.7109929 14.190296,85.0006736" id="Path-31"></path>
                        <path d="M39.9914742,80.4180839 C39.039657,82.2683491 38.0878399,84.1186144 37.1360228,85.9688797" id="Path-32"></path>
                        <path d="M12.6981274,86.366111 C13.9682258,84.7809331 15.2383241,83.1957553 16.5084224,81.6105775" id="Path-33"></path>
                        <path d="M33.3110063,83.5326526 C35.4593849,84.9595384 37.6077635,86.3864241 39.7561421,87.8133098" id="Path-34"></path>
                        <path d="M10.0760025,84.4522466 C10.1881299,89.1870972 9.21078991,94.075581 10.4123849,98.6567983 C10.6946214,99.732857 12.3127019,97.2364001 13.4250502,97.2208713 C21.9945748,97.1012374 30.5801652,99.0325513 39.1152796,98.2560947 C41.6759176,98.0231483 43.637491,97.3601382 45,96.2670644 C44.1763929,90.3076091 43.9343971,86.0173084 44.2740126,83.3961623" id="Path-35"></path>
                        <path d="M11.2445573,99.8652421 C11.7388275,104.974752 12.2330977,110.084261 12.7273679,115.193771" id="Path-36"></path>
                        <path d="M47.543679,97.039083 C47.6339192,104.191986 47.7241594,111.34489 47.8143996,118.497793" id="Path-37"></path>
                    </g>
                </g>
            </g>
            <circle id="Oval" fill="#B0B0B0" fill-rule="nonzero" cx="8" cy="7" r="2"></circle>
            <circle id="Oval-Copy" fill="#B0B0B0" fill-rule="nonzero" cx="87" cy="7" r="2"></circle>
            <path d="M54.4956535,106.762702 C54.1609765,111.289879 54.1535925,115.734686 54.4735013,120.097121 C54.7934101,124.459557 55.4466522,128.821993 56.4332277,133.184429 L83.5900448,130.323518 C82.3414252,125.323219 81.5094305,121.038585 81.0940607,117.469614 C80.6786909,113.900643 80.5966545,110.331672 80.8479514,106.762702 L54.4956535,106.762702 Z" id="Path-8" fill="#F7C3EE" fill-rule="nonzero"></path>
        </g>
        <g id="person" transform="translate(375.000000, 52.000000)">
            <path d="M180.341079,62 C184.485414,84.2427757 187.939365,128.866036 190.702933,195.869782 C193.466501,262.873528 191.813966,328.250267 185.745329,392 L45.6329927,392 L31,62 L180.341079,62 Z" id="Path-2" fill="#301D0E" fill-rule="nonzero"></path>
            <g id="Group-2" transform="translate(78.000000, 184.000000)">
                <mask id="mask-4" fill="white">
                    <use xlink:href="#path-3"></use>
                </mask>
                <use id="Rectangle" fill="#FFF2CC" fill-rule="nonzero" xlink:href="#path-3"></use>
                <rect id="Rectangle" fill="#DFD4B5" fill-rule="nonzero" mask="url(#mask-4)" x="-44" y="-200" width="172" height="221" rx="86"></rect>
            </g>
            <path d="M61,246.230936 C68.958909,253.526393 78.4383635,257.174121 89.4383635,257.174121 C100.438363,257.174121 112.958909,252.449414 127,243 L127,327 L61,327 L61,246.230936 Z" id="Rectangle" fill="#822121" fill-rule="nonzero"></path>
            <g id="Group-3" transform="translate(8.000000, 324.000000)">
                <mask id="mask-6" fill="white">
                    <use xlink:href="#path-5"></use>
                </mask>
                <use id="Path-5" fill="#FFF2CC" fill-rule="nonzero" xlink:href="#path-5"></use>
                <polygon id="Path-3" fill="#DFD4B5" fill-rule="nonzero" mask="url(#mask-6)" points="1.88600667 11.8626914 21 54.4881848 7.38796812 66.8319403"></polygon>
            </g>
            <g id="Group-4" transform="translate(153.000000, 324.000000)">
                <mask id="mask-8" fill="white">
                    <use xlink:href="#path-7"></use>
                </mask>
                <use id="Path-6" fill="#FFF2CC" fill-rule="nonzero" xlink:href="#path-7"></use>
                <polygon id="Path-3" fill="#DFD4B5" fill-rule="nonzero" mask="url(#mask-8)" points="11.1793399 63.7866761 40.0172014 6.30433162 41.7176259 24.7740097"></polygon>
            </g>
            <rect id="Rectangle" fill="#4A5B6B" fill-rule="nonzero" x="34" y="419" width="133" height="49"></rect>
            <polygon id="Path-38" fill="#374858" fill-rule="nonzero" points="90.1657097 448.934567 108.818202 471.271913 90.1657097 471.271913"></polygon>
            <polygon id="Path-4" fill="#000000" fill-rule="nonzero" points="78.4383463 191 53.4024854 204.018211 53.4024854 217.980407 55.8966995 226.041736 27.9577209 244.005679 19.8259214 253.28298 22.3941898 258.039763 9.99094437 303.312405 3.57028272 313.826885 7.68157262 320.406027 0 329.186828 11.5706702 346.58173 11.5706702 338.405454 27.9577209 332.186828 35.4907687 341.405454 37.5827631 361.494373 24.8079478 372.900592 19.8259214 395.126065 24.8079478 412.560693 30.8277874 415.874567 32.6950198 431 90.8855004 431 167.973195 427.107541 167.973195 415.874567 171.226903 412.560693 175.406315 395.126065 173.449927 374.454869 157.657563 359.734349 162.350236 341.182815 167.973195 332.396182 188.959616 338.405454 192.47683 346.58173 197.776709 332.396182 204 325.160266 197.776709 320.406027 204 313.826885 197.776709 253.28298 200.478926 249.523946 195.584288 244.005679 157.657563 226.041736 162.350236 204.018211 143.421938 191.618065 127.363784 191.618065 127.363784 214.048392 115.195289 217.980407 82.5133851 287.495924 78.4383463 234.860844"></polygon>
            <rect id="Rectangle" fill="#FFF2CC" fill-rule="nonzero" x="26" y="3" width="141" height="197" rx="70.5"></rect>
            <path d="M182,155.47561 L182,253.869505 L151.5,261 L151.5,217.840033 C151.495877,217.843244 151.491754,217.846454 151.487631,217.849664 L151.487631,93.855269 L119.79851,45.5177396 L36.4876306,93.855269 L36.4876306,127.317073 L36.5,127.317073 L36.5,261 L24,257.909517 L24,155.47561 L24,79 C24,35.3695048 59.3695048,8.01479195e-15 103,0 C146.630495,-8.01479195e-15 182,35.3695048 182,79 L182,155.47561 Z" id="Combined-Shape" fill="#624128" fill-rule="nonzero"></path>
            <g id="Group" transform="translate(27.000000, 94.000000)" fill="#2E1605" fill-rule="nonzero">
                <rect id="Rectangle" x="28" y="0" width="20" height="28" rx="10"></rect>
                <rect id="Rectangle-Copy" x="84" y="0" width="20" height="28" rx="10"></rect>
            </g>
            <path d="M66,157 L70.1750148,157 C75.5312915,165.485338 84.2076676,171 94,171 C103.792332,171 112.468709,165.485338 117.824985,157 L122,157 C116.194387,167.804483 105.825242,175 94,175 C82.1747579,175 71.8056127,167.804483 66,157 Z" id="Combined-Shape" fill="#72401C" fill-rule="nonzero"></path>
            <polygon id="Path-7" fill="#4E4E4E" fill-rule="nonzero" points="83 288 80.0550498 288 79 296 83 296"></polygon>
        </g>
        <g id="computer" transform="translate(130.000000, 364.000000)" fill-rule="nonzero">
            <path d="M13.0016868,1.77635684e-15 L141.548789,5.32907052e-15 C144.74515,4.74190857e-15 147.535539,2.16517336 148.329436,5.26137255 L164.739692,69.2613725 C165.69991,73.0062205 163.442521,76.8204296 159.697673,77.7806471 C159.129607,77.926305 158.545488,78 157.959045,78 L29.4119432,78 C26.2155824,78 23.4251934,75.8348266 22.6312961,72.7386275 L6.22103973,8.73862745 C5.2608223,4.99377949 7.51821137,1.17957036 11.2630593,0.219352938 C11.8311254,0.0736949838 12.4152439,5.43679833e-15 13.0016868,5.32907052e-15 Z" id="Rectangle" fill="#8D8D8D"></path>
            <path d="M25.3847106,7 L132.310095,7 C135.484727,7 138.261883,9.13641063 139.076005,12.2048786 L152.341932,62.2048786 C153.33335,65.9415876 151.107852,69.7744919 147.371143,70.7659101 C146.785424,70.9213122 146.182005,71 145.576021,71 L38.6506374,71 C35.4760052,71 32.6988487,68.8635894 31.8847273,65.7951214 L18.6188005,15.7951214 C17.6273823,12.0584124 19.8528802,8.22550807 23.5895892,7.23408991 C24.1753081,7.07868784 24.7787267,7 25.3847106,7 Z" id="Rectangle" fill="#E1E1E1"></path>
            <path d="M203.710121,80 C202.849572,82.8914889 200.171021,85 197,85 L35,85 C31.8289794,85 29.1504279,82.8914889 28.2898787,80 L203.710121,80 Z" id="Combined-Shape" fill="#8D8D8D"></path>
            <path d="M128,3.90199697 C128.425089,8.78752603 129.250936,13.3427617 130.477541,17.567704 C131.704147,21.7926462 133.403497,25.9352489 135.575593,29.995512 L164.943255,25.600099 C163.038112,21.713307 161.1491,17.6584615 159.276219,13.4355624 C157.403337,9.21266329 156.174416,4.73414249 155.589455,0 L128,3.90199697 Z" id="Path-8" fill="#F4F7C3"></path>
            <path d="M0.268056888,39 C-0.089352296,45.5711475 -0.089352296,50.94302 0.268056888,55.1156173 C0.625466072,59.2882147 1.39174955,62.5974872 2.56690734,65.0434348 L30.8412427,65.0434348 C29.8834026,62.9415959 29.1334781,59.6323233 28.5914693,55.1156173 C28.0494605,50.5989113 27.778456,45.6465507 27.778456,40.2585356 L0.268056888,39 Z" id="Path-8" fill="#C3F7DA"></path>
        </g>
        <g id="Group-9" transform="translate(588.000000, 372.000000)">
            <g id="Group-7" transform="translate(6.500000, 34.000000) rotate(-4.000000) translate(-6.500000, -34.000000) translate(4.000000, 5.000000)" fill-rule="nonzero">
                <rect id="Rectangle" fill="#D8D8D8" x="0.983187602" y="0.0700883799" width="4" height="57"></rect>
                <rect id="Rectangle" fill="#FDFFD5" x="0.983187602" y="3" width="4" height="3"></rect>
                <rect id="Rectangle" fill="#FFA7ED" x="0.983187602" y="0" width="4" height="3"></rect>
            </g>
            <rect id="Rectangle" fill="#799B9A" fill-rule="nonzero" transform="translate(28.886282, 33.693863) rotate(2.000000) translate(-28.886282, -33.693863) " x="22.8862821" y="8.19386307" width="12" height="51"></rect>
            <g id="Group-8" transform="translate(14.505663, 29.047940) rotate(1.000000) translate(-14.505663, -29.047940) translate(11.505663, 0.047940)">
                <mask id="mask-10" fill="white">
                    <use xlink:href="#path-9"></use>
                </mask>
                <use id="Rectangle" fill="#835353" fill-rule="nonzero" xlink:href="#path-9"></use>
                <rect id="Rectangle" fill="#653232" fill-rule="nonzero" mask="url(#mask-10)" x="-2" y="-3" width="12" height="25"></rect>
            </g>
            <polygon id="Rectangle" fill="#8DA8B7" fill-rule="nonzero" points="0 25 37 25 35 77 2 77"></polygon>
        </g>
    </g>
</svg>