<?xml version="1.0" encoding="UTF-8"?>
<svg width="700px" height="512px" viewBox="0 0 700 512" version="1.1" xmlns="http://www.w3.org/2000/svg" xmlns:xlink="http://www.w3.org/1999/xlink">
    <!-- Generator: Sketch 52.5 (67469) - http://www.bohemiancoding.com/sketch -->
    <title>Me</title>
    <desc>Created with Sketch.</desc>
    <defs>
        <path d="M5.87755102,-1.0658141e-13 L144,-1.0658141e-13 L140.609654,177.979817 L0.896876624,174.916022 C3.33960487,150.861311 4.99982967,123.421632 5.87755102,92.5969851 C6.75527237,61.7723385 6.75527237,30.9066768 5.87755102,-1.0658141e-13 Z" id="path-1"></path>
        <rect id="path-3" x="0" y="0" width="49" height="153"></rect>
        <polygon id="path-5" points="0.691533257 7.53706399 2.94637994 21.851674 18.2903366 52.7064094 46.948888 37.0828884 28.1135854 0.39946597"></polygon>
        <polygon id="path-7" points="15.7645731 0.450122416 0.378710978 16.1112077 0.378710978 56.3159835 17.2315329 52.9704777 38.7477343 19.8766412 35.7816079 1.99144189"></polygon>
        <rect id="path-9" x="0.497012821" y="0.0392903281" width="5" height="57" rx="2"></rect>
    </defs>
    <g id="Me" stroke="none" stroke-width="1" fill="none" fill-rule="evenodd">
        <rect id="Rectangle" fill="#776565" fill-rule="nonzero" x="36" y="449" width="629" height="15" rx="7.5"></rect>
        <g id="books" transform="translate(343.000000, 415.000000)" fill-rule="nonzero">
            <rect id="Rectangle" fill="#ECE2D8" x="12" y="18" width="57" height="13"></rect>
            <rect id="Rectangle" fill="#DCB284" x="9" y="15" width="69" height="3" rx="1"></rect>
            <rect id="Rectangle-Copy-2" fill="#DCB284" x="9" y="31" width="69" height="3" rx="1"></rect>
            <rect id="Rectangle-Copy-5" fill="#85587C" x="0" y="0" width="69" height="15" rx="5"></rect>
            <rect id="Rectangle-Copy-3" fill="#ECE2D8" x="3" y="3" width="57" height="9" rx="2"></rect>
            <polygon id="Rectangle" fill="#CC7171" points="24 21 34 21 34 38.7917292 29 36.448774 24 38.7917292"></polygon>
        </g>
        <g id="paper" transform="translate(242.000000, 147.000000)">
            <rect id="Rectangle" fill="#D7D7D7" fill-rule="nonzero" x="1" y="0" width="138" height="172"></rect>
            <g id="Group-6">
                <mask id="mask-2" fill="white">
                    <use xlink:href="#path-1"></use>
                </mask>
                <use id="Rectangle" fill="#EFEFEF" fill-rule="nonzero" transform="translate(72.448438, 88.989908) scale(-1, 1) translate(-72.448438, -88.989908) " xlink:href="#path-1"></use>
                <g id="Group-5" mask="url(#mask-2)" fill-rule="nonzero" stroke="#B8CBBF">
                    <g transform="translate(35.265306, 18.512000)">
                        <path d="M29.7940615,5.67331147 C-27.3133346,30.0340508 16.6452409,81.2971915 59.7447481,49.228523 C90.5933728,26.2752601 34.8052755,-15.7455517 26.9328974,8.19095375" id="Path-9"></path>
                        <path d="M27.7593397,8.86852057 C-0.0651201386,86.8683041 3.30653645,58.0177736 0.0508573486,91.731056" id="Path-10"></path>
                        <path d="M28.2684561,8.62182542 C60.8395613,31.3237743 72.0782427,51.7809752 78.2821621,90.3438182" id="Path-11"></path>
                        <path d="M2.13614208,30.8531137 C1.88440025,77.4623877 0.336113751,57.6273875 4.26327199,90.4925112" id="Path-12"></path>
                        <path d="M55.1923413,11.4385433 C78.585282,31.0050843 83.7074501,64.1266229 76.5142033,92.655318" id="Path-13"></path>
                        <path d="M26.6853135,30.4205524 C20.2589693,19.9088198 32.3034687,40.1354572 25.9146648,29.7936763" id="Path-14"></path>
                        <path d="M40.1071545,24.427212 C39.8142382,27.4134624 39.521322,30.3997128 39.2284057,33.3859632" id="Path-15"></path>
                        <path d="M28.1498947,44.6173514 C42.3671025,48.7207687 36.8524938,50.7461549 45.414518,40.8713024" id="Path-16"></path>
                        <path d="M37.6001754,60.4933089 C38.167298,63.9183295 38.7344205,67.3433501 39.3015431,70.7683707" id="Path-17"></path>
                        <path d="M36.1762422,66.1091643 C22.3052578,71.2253493 23.5989957,67.4928991 35.7094286,77.9127054" id="Path-18"></path>
                        <path d="M35.0888628,77.9127054 C34.6309739,82.96176 28.959089,106.91393 39.2142356,112.343141 C42.3137236,113.984051 38.4067303,105.443219 39.0419592,102.076304 C40.7434491,93.0578663 43.7965424,84.3288051 46.173834,75.4550555" id="Path-19"></path>
                        <path d="M46.0497209,76.284445 C55.3822247,70.9204182 64.5903733,66.5606399 45.3587626,67.3496582" id="Path-20"></path>
                        <path d="M32.7084838,92.1433775 C35.5476492,91.8226324 38.3868147,91.5018873 41.2259801,91.1811421" id="Path-21"></path>
                        <path d="M24.878241,71.0172831 C25.2055045,74.8859723 25.532768,78.7546614 25.8600316,82.6233505" id="Path-22"></path>
                        <path d="M25.0875661,82.6772069 C21.3104511,85.7057352 17.5333361,88.7342636 13.7562211,91.7627919" id="Path-23"></path>
                        <path d="M13.7562211,91.7627919 C17.0168115,106.400213 16.8782005,98.462165 12.2409293,115.535034" id="Path-24"></path>
                        <polyline id="Path-25" points="56.2473757 69.8845022 56.2473757 73.5611033 56.2473757 76.8571187 56.2473757 77.1192202 56.2473757 79.6217504 56.2473757 79.7402346 56.2473757 80.002336 56.2473757 80.1208203 56.2473757 80.2393045 56.2473757 80.6198901 56.2473757 80.8568586 56.2473757 81.093827 56.2473757 81.2123112 56.2473757 81.3307954 56.2473757 81.4492796 56.2473757 81.5677638"></polyline>
                        <path d="M56.2473757,81.5677638 C60.586396,84.1050015 64.9254163,86.6422393 69.2644366,89.179477" id="Path-26"></path>
                        <path d="M69.2644366,89.179477 C76.5378829,107.095707 76.3745241,97.285327 61.2415405,117.569013" id="Path-27"></path>
                        <path d="M11.6796414,115.317813 C13.2400092,116.825794 14.800377,118.333774 16.3607448,119.841755" id="Path-28"></path>
                        <path d="M16.3607448,119.841755 C20.0967263,100.072299 27.7282987,126.576948 22.1329323,103.756626" id="Path-29"></path>
                        <path d="M60.1782428,98.898773 C47.1721952,130.912992 57.6538743,99.6686353 61.8713684,117.723401" id="Path-30"></path>
                        <path d="M18.3280307,115.531443 C19.1690362,117.367949 20.0100417,119.204454 20.8510472,121.040959" id="Path-31"></path>
                        <path d="M58.7629824,114.515351 C57.364394,117.150129 55.9658056,119.784907 54.5672171,122.419685" id="Path-32"></path>
                        <path d="M18.6584729,122.985342 C20.5247399,120.728049 22.3910068,118.470756 24.2572737,116.213462" id="Path-33"></path>
                        <path d="M48.9467847,118.950497 C52.1035859,120.982383 55.2603872,123.014268 58.4171884,125.046153" id="Path-34"></path>
                        <path d="M14.8055546,120.259999 C14.9703134,127.002426 13.5342219,133.963627 15.2998309,140.487281 C15.7145457,142.019588 18.0921334,138.464634 19.7266043,138.442521 C32.3185589,138.272162 44.9341202,141.022353 57.4755129,139.916679 C61.238083,139.584963 64.120395,138.640837 66.122449,137.0843 C64.9122508,128.598035 64.5566652,122.488647 65.055692,118.756135" id="Path-35"></path>
                        <path d="M16.5226148,142.208105 C17.2488893,149.484047 17.9751639,156.759988 18.7014385,164.03593" id="Path-36"></path>
                        <path d="M69.8600998,138.183654 C69.9926976,148.369389 70.1252955,158.555123 70.2578933,168.740857" id="Path-37"></path>
                    </g>
                </g>
            </g>
            <circle id="Oval" fill="#B0B0B0" fill-rule="nonzero" cx="12" cy="10" r="2"></circle>
            <circle id="Oval-Copy" fill="#B0B0B0" fill-rule="nonzero" cx="128" cy="10" r="2"></circle>
            <path d="M100.495653,159.762702 C100.160977,164.289879 100.153592,168.734686 100.473501,173.097121 C100.79341,177.459557 101.446652,181.821993 102.433228,186.184429 L129.590045,183.323518 C128.341425,178.323219 127.50943,174.038585 127.094061,170.469614 C126.678691,166.900643 126.596654,163.331672 126.847951,159.762702 L100.495653,159.762702 Z" id="Path-8" fill="#F7C3EE" fill-rule="nonzero"></path>
        </g>
        <g id="person" transform="translate(375.000000, 52.000000)">
            <path d="M180.341079,62 C184.485414,84.2427757 187.939365,128.866036 190.702933,195.869782 C193.466501,262.873528 191.813966,328.250267 185.745329,392 L45.6329927,392 L31,62 L180.341079,62 Z" id="Path-2" fill="#301D0E" fill-rule="nonzero"></path>
            <g id="Group-2" transform="translate(78.000000, 184.000000)">
                <mask id="mask-4" fill="white">
                    <use xlink:href="#path-3"></use>
                </mask>
                <use id="Rectangle" fill="#FFF2CC" fill-rule="nonzero" xlink:href="#path-3"></use>
                <rect id="Rectangle" fill="#DFD4B5" fill-rule="nonzero" mask="url(#mask-4)" x="-44" y="-200" width="172" height="221" rx="86"></rect>
            </g>
            <path d="M61,246.230936 C68.958909,253.526393 78.4383635,257.174121 89.4383635,257.174121 C100.438363,257.174121 112.958909,252.449414 127,243 L127,327 L61,327 L61,246.230936 Z" id="Rectangle" fill="#822121" fill-rule="nonzero"></path>
            <g id="Group-3" transform="translate(8.000000, 324.000000)">
                <mask id="mask-6" fill="white">
                    <use xlink:href="#path-5"></use>
                </mask>
                <use id="Path-5" fill="#FFF2CC" fill-rule="nonzero" xlink:href="#path-5"></use>
                <polygon id="Path-3" fill="#DFD4B5" fill-rule="nonzero" mask="url(#mask-6)" points="1.88600667 11.8626914 21 54.4881848 7.38796812 66.8319403"></polygon>
            </g>
            <g id="Group-4" transform="translate(153.000000, 324.000000)">
                <mask id="mask-8" fill="white">
                    <use xlink:href="#path-7"></use>
                </mask>
                <use id="Path-6" fill="#FFF2CC" fill-rule="nonzero" xlink:href="#path-7"></use>
                <polygon id="Path-3" fill="#DFD4B5" fill-rule="nonzero" mask="url(#mask-8)" points="11.1793399 63.7866761 40.0172014 6.30433162 41.7176259 24.7740097"></polygon>
            </g>
            <rect id="Rectangle" fill="#4A5B6B" fill-rule="nonzero" x="34" y="419" width="133" height="49"></rect>
            <polygon id="Path-38" fill="#374858" fill-rule="nonzero" points="90.1657097 448.934567 108.818202 471.271913 90.1657097 471.271913"></polygon>
            <path d="M78.4383463,191 L53.4024854,204.018211 L53.4024854,217.980407 L55.8966995,226.041736 L27.9577209,244.005679 L19.8259214,253.28298 L22.3941898,258.039763 L9.99094437,303.312405 L3.57028272,313.826885 L7.68157262,320.406027 L0,329.186828 L11.5706702,346.58173 L11.5706702,338.405454 L27.9577209,332.186828 L35.4907687,341.405454 L37.5827631,361.494373 L24.8079478,372.900592 L19.8259214,395.126065 L24.8079478,412.560693 L30.8277874,415.874567 L32.6950198,431 L90.8855004,431 L167.973195,427.107541 L167.973195,415.874567 L171.226903,412.560693 L175.406315,395.126065 L173.449927,374.454869 L157.657563,359.734349 L162.350236,341.182815 L167.973195,332.396182 L188.959616,338.405454 L192.47683,346.58173 L197.776709,332.396182 L204,325.160266 L197.776709,320.406027 L204,313.826885 L197.776709,253.28298 L200.478926,249.523946 L195.584288,244.005679 L157.657563,226.041736 L162.350236,204.018211 L143.421938,191.618065 L127.001479,190 L127.001479,214 L115.195289,217.980407 C113.389617,230.229851 109.661559,242.363916 104.011115,254.382601 C98.3606719,266.401285 91.1947618,277.43906 82.5133851,287.495924 L78.4383463,234.860844 L78.4383463,191 Z" id="Path-4" fill="#000000" fill-rule="nonzero"></path>
            <rect id="Rectangle" fill="#FFF2CC" fill-rule="nonzero" x="26" y="3" width="141" height="197" rx="70.5"></rect>
            <path d="M182,155.47561 L182,253.869505 L151.5,261 L151.5,217.840033 C151.495877,217.843244 151.491754,217.846454 151.487631,217.849664 L151.487631,93.855269 L119.79851,45.5177396 L36.4876306,93.855269 L36.4876306,127.317073 L36.5,127.317073 L36.5,261 L24,257.909517 L24,155.47561 L24,79 C24,35.3695048 59.3695048,8.01479195e-15 103,0 C146.630495,-8.01479195e-15 182,35.3695048 182,79 L182,155.47561 Z" id="Combined-Shape" fill="#624128" fill-rule="nonzero"></path>
            <g id="Group" transform="translate(27.000000, 94.000000)" fill="#2E1605" fill-rule="nonzero">
                <rect id="Rectangle" x="28" y="0" width="20" height="28" rx="10"></rect>
                <rect id="Rectangle-Copy" x="84" y="0" width="20" height="28" rx="10"></rect>
            </g>
            <path d="M66,157 L70.1750148,157 C75.5312915,165.485338 84.2076676,171 94,171 C103.792332,171 112.468709,165.485338 117.824985,157 L122,157 C116.194387,167.804483 105.825242,175 94,175 C82.1747579,175 71.8056127,167.804483 66,157 Z" id="Combined-Shape" fill="#72401C" fill-rule="nonzero"></path>
            <polygon id="Path-7" fill="#4E4E4E" fill-rule="nonzero" points="83 288 80.0550498 288 79 296 83 296"></polygon>
        </g>
        <g id="computer" transform="translate(130.000000, 364.000000)" fill-rule="nonzero">
            <path d="M13.0016868,1.77635684e-15 L141.548789,-8.8817842e-16 C144.74515,-1.47534037e-15 147.535539,2.16517336 148.329436,5.26137255 L164.739692,69.2613725 C165.69991,73.0062205 163.442521,76.8204296 159.697673,77.7806471 C159.129607,77.926305 158.545488,78 157.959045,78 L29.4119432,78 C26.2155824,78 23.4251934,75.8348266 22.6312961,72.7386275 L6.22103973,8.73862745 C5.2608223,4.99377949 7.51821137,1.17957036 11.2630593,0.219352938 C11.8311254,0.0736949838 12.4152439,4.54861991e-15 13.0016868,4.4408921e-15 Z" id="Rectangle" fill="#8D8D8D"></path>
            <path d="M25.3847106,7 L132.310095,7 C135.484727,7 138.261883,9.13641063 139.076005,12.2048786 L152.341932,62.2048786 C153.33335,65.9415876 151.107852,69.7744919 147.371143,70.7659101 C146.785424,70.9213122 146.182005,71 145.576021,71 L38.6506374,71 C35.4760052,71 32.6988487,68.8635894 31.8847273,65.7951214 L18.6188005,15.7951214 C17.6273823,12.0584124 19.8528802,8.22550807 23.5895892,7.23408991 C24.1753081,7.07868784 24.7787267,7 25.3847106,7 Z" id="Rectangle" fill="#E1E1E1"></path>
            <path d="M203.710121,80 C202.849572,82.8914889 200.171021,85 197,85 L35,85 C31.8289794,85 29.1504279,82.8914889 28.2898787,80 L203.710121,80 Z" id="Combined-Shape" fill="#8D8D8D"></path>
            <path d="M128,3.90199697 C128.425089,8.78752603 129.250936,13.3427617 130.477541,17.567704 C131.704147,21.7926462 133.403497,25.9352489 135.575593,29.995512 L164.943255,25.600099 C163.038112,21.713307 161.1491,17.6584615 159.276219,13.4355624 C157.403337,9.21266329 156.174416,4.73414249 155.589455,0 L128,3.90199697 Z" id="Path-8" fill="#F4F7C3"></path>
            <path d="M0.268056888,39 C-0.089352296,45.5711475 -0.089352296,50.94302 0.268056888,55.1156173 C0.625466072,59.2882147 1.39174955,62.5974872 2.56690734,65.0434348 L30.8412427,65.0434348 C29.8834026,62.9415959 29.1334781,59.6323233 28.5914693,55.1156173 C28.0494605,50.5989113 27.778456,45.6465507 27.778456,40.2585356 L0.268056888,39 Z" id="Path-8" fill="#C3F7DA"></path>
        </g>
        <g id="Group-9" transform="translate(588.000000, 372.000000)">
            <g id="Group-7" transform="translate(6.500000, 34.000000) rotate(-4.000000) translate(-6.500000, -34.000000) translate(4.000000, 5.000000)" fill-rule="nonzero">
                <rect id="Rectangle" fill="#D8D8D8" x="0.983187602" y="0.0700883799" width="4" height="57"></rect>
                <rect id="Rectangle" fill="#FDFFD5" x="0.983187602" y="3" width="4" height="3"></rect>
                <rect id="Rectangle" fill="#FFA7ED" x="0.983187602" y="0" width="4" height="3"></rect>
            </g>
            <rect id="Rectangle" fill="#799B9A" fill-rule="nonzero" transform="translate(28.886282, 33.693863) rotate(2.000000) translate(-28.886282, -33.693863) " x="22.8862821" y="8.19386307" width="12" height="51"></rect>
            <g id="Group-8" transform="translate(14.505663, 29.047940) rotate(1.000000) translate(-14.505663, -29.047940) translate(11.505663, 0.047940)">
                <mask id="mask-10" fill="white">
                    <use xlink:href="#path-9"></use>
                </mask>
                <use id="Rectangle" fill="#835353" fill-rule="nonzero" xlink:href="#path-9"></use>
                <rect id="Rectangle" fill="#653232" fill-rule="nonzero" mask="url(#mask-10)" x="-2" y="-3" width="12" height="25"></rect>
            </g>
            <polygon id="Rectangle" fill="#8DA8B7" fill-rule="nonzero" points="0 25 37 25 35 77 2 77"></polygon>
        </g>
    </g>
</svg>