<?xml version="1.0" encoding="UTF-8"?>
<svg width="48px" height="48px" viewBox="0 0 48 48" version="1.1" xmlns="http://www.w3.org/2000/svg" xmlns:xlink="http://www.w3.org/1999/xlink">
    <!-- Generator: Sketch 51.3 (57544) - http://www.bohemiancoding.com/sketch -->
    <title>email</title>
    <desc>Created with Sketch.</desc>
    <defs></defs>
    <g id="email" stroke="none" stroke-width="1" fill="none" fill-rule="evenodd">
        <path d="M38.3848989,16.6436424 C38.3848989,15.491065 38.3848989,14.3775445 38.4021204,13.3145424 L38.3137264,13 L9.0436239,13 L9.0436239,16.9089301 C9.0436239,22.7865785 9.0436239,29.146488 9,34.0070094 L38.4029433,34.0058603 C38.3673512,28.7080419 38.3616116,22.2861232 38.3857188,16.6438746 L38.3848989,16.6436424 Z M36.5389646,15.2040888 C36.5091179,15.7034538 36.2129314,16.0444162 35.551696,16.4439199 C31.675093,18.80071 27.8222944,21.3020902 24.0811712,23.7266202 L23.9227509,23.8299375 L23.9227509,23.8287885 C23.8400965,23.8919262 23.745963,23.9401434 23.6460871,23.9699901 C23.5404746,23.9412925 23.4405986,23.8930752 23.3522047,23.8264932 L22.9699224,23.579679 C19.3169639,21.2045213 15.5355788,18.7479581 11.7324478,16.4495066 C11.0712124,16.0465645 10.77733,15.7056315 10.7543777,15.2062341 L36.5357995,15.2062341 L36.5389646,15.2040888 Z M36.2657451,31.7993352 L11.1032382,31.7994499 L11.1032382,18.9099461 L11.3971206,19.0924735 L12.6025088,19.8501318 C15.7558672,21.8281075 19.0059129,23.8704433 22.1766103,25.9240937 C23.2373495,26.6082814 24.1832689,26.6117198 25.2450367,25.9240937 C28.3399125,23.9369489 31.4165675,22.0128126 34.6492742,19.9729747 L36.2690659,18.9535553 L36.2679169,31.7994499 L36.2657451,31.7993352 Z" id="Fill-1" fill="#000000"></path>
    </g>
</svg>