<?xml version="1.0" encoding="UTF-8"?>
<svg width="48px" height="48px" viewBox="0 0 48 48" version="1.1" xmlns="http://www.w3.org/2000/svg" xmlns:xlink="http://www.w3.org/1999/xlink">
    <!-- Generator: Sketch 51.3 (57544) - http://www.bohemiancoding.com/sketch -->
    <title>Artboard 4</title>
    <desc>Created with Sketch.</desc>
    <defs></defs>
    <g id="Artboard-4" stroke="none" stroke-width="1" fill="none" fill-rule="evenodd">
        <g id="facebook" transform="translate(8.000000, 8.000000)" fill-rule="nonzero">
            <path d="M31.1666667,0 L1.83333333,0 C0.820811292,-6.19990939e-17 1.23998188e-16,0.820811292 0,1.83333333 L0,31.1666667 C1.23998188e-16,32.1791887 0.820811292,33 1.83333333,33 L17.6275,33 L17.6275,20.24 L13.3420833,20.24 L13.3420833,15.2441667 L17.6275,15.2441667 L17.6275,11.5775 C17.6275,7.315 20.2308333,4.99125 24.0441667,4.99125 C25.3270649,4.9875008 26.6092234,5.05329175 27.885,5.18833333 L27.885,9.625 L25.2541667,9.625 C23.1870833,9.625 22.78375,10.6104167 22.78375,12.0541667 L22.78375,15.235 L27.7291667,15.235 L27.0875,20.2308333 L22.78375,20.2308333 L22.78375,33 L31.1666667,33 C32.1791887,33 33,32.1791887 33,31.1666667 L33,1.83333333 C33,0.820811292 32.1791887,6.19990939e-17 31.1666667,0 Z" id="Shape" fill="#4267B2"></path>
            <path d="M22.0949227,33 L22.0949227,20.2482287 L26.2406181,20.2482287 L26.8587196,15.255617 L22.0949227,15.255617 L22.0949227,12.076835 C22.0949227,10.634016 22.4834437,9.64923481 24.4746137,9.64923481 L27,9.64923481 L27,5.19710775 C25.7710762,5.06215325 24.5360048,4.99640473 23.3002208,5.00015151 C19.6357616,5.00015151 17.1192053,7.32240297 17.1192053,11.5821542 L17.1192053,15.2464563 L13,15.2464563 L13,20.2390679 L17.1280353,20.2390679 L17.1280353,33 L22.0949227,33 Z" id="f" fill="#FFFFFF"></path>
        </g>
    </g>
</svg>