<?xml version="1.0" encoding="UTF-8"?>
<svg width="48px" height="48px" viewBox="0 0 48 48" version="1.1" xmlns="http://www.w3.org/2000/svg" xmlns:xlink="http://www.w3.org/1999/xlink">
    <!-- Generator: Sketch 51.3 (57544) - http://www.bohemiancoding.com/sketch -->
    <title>Artboard 3</title>
    <desc>Created with Sketch.</desc>
    <defs></defs>
    <g id="Artboard-3" stroke="none" stroke-width="1" fill="none" fill-rule="evenodd">
        <g id="google-plus" transform="translate(7.000000, 7.000000)" fill-rule="nonzero">
            <path d="M0,17 C0,7.62258065 7.62258065,0 17,0 C26.3774194,0 34,7.62258065 34,17 C34,26.3774194 26.3774194,34 17,34 C7.62258065,34 0,26.3774194 0,17 Z" id="Shape" fill="#DC4335"></path>
            <path d="M12.6326531,16.048 L12.6326531,18.456 L16.4,18.456 C16.2408163,19.464 15.2857143,21.48 12.6326531,21.48 C10.3510204,21.48 8.49387755,19.52 8.49387755,17.056 C8.49387755,14.592 10.3510204,12.632 12.6326531,12.632 C13.9061224,12.632 14.8081633,13.192 15.2857143,13.696 L17.0897959,11.848 C15.922449,10.728 14.4367347,10 12.6326531,10 C8.97142857,10 6,13.136 6,17 C6,20.864 8.97142857,24 12.6326531,24 C16.4530612,24 19,21.144 19,17.168 C19,16.776 18.9469388,16.384 18.8938776,15.992 L12.6326531,16.048 Z" id="Shape" fill="#F1F2F2"></path>
            <polygon id="Shape" fill="#F1F2F2" points="27.9444444 16 25.9444444 16 25.9444444 14 23.9444444 14 23.9444444 16 22 16 22 18 24 18 24 20 26 20 26 18 28 18"></polygon>
        </g>
    </g>
</svg>