<?xml version="1.0" encoding="utf-8"?>
<!-- Generator: Adobe Illustrator 23.0.3, SVG Export Plug-In . SVG Version: 6.00 Build 0)  -->
<svg version="1.1" id="Layer_1" focusable="false" xmlns="http://www.w3.org/2000/svg" xmlns:xlink="http://www.w3.org/1999/xlink"
	 x="0px" y="0px" viewBox="0 0 48 48" style="enable-background:new 0 0 48 48;" xml:space="preserve">
<style type="text/css">
	.st0{fill-rule:evenodd;clip-rule:evenodd;fill:#FFFFFF;}
	.st1{fill-rule:evenodd;clip-rule:evenodd;fill:#0077B5;}
</style>
<g>
	<g>
		<path class="st0" d="M9.8,6.8h28.5c1.7,0,3,1.3,3,3v28.5c0,1.7-1.3,3-3,3H9.8c-1.7,0-3-1.3-3-3V9.8C6.8,8.1,8.1,6.8,9.8,6.8z"/>
		<path class="st1" d="M6,9c0-1.7,1.3-3,3-3h30c1.7,0,3,1.3,3,3v30c0,1.7-1.3,3-3,3H9c-1.7,0-3-1.3-3-3V9z M20.2,19.7h4.9v2.4
			c0.7-1.4,2.5-2.7,5.2-2.7c5.2,0,6.4,2.8,6.4,7.9V37h-5.2v-8.4c0-2.9-0.7-4.6-2.5-4.6c-2.5,0-3.5,1.8-3.5,4.6V37h-5.2V19.7z
			 M11.2,36.8h5.2V19.5h-5.2V36.8z M17.2,13.9c0,1.9-1.5,3.4-3.4,3.4s-3.4-1.5-3.4-3.4s1.5-3.4,3.4-3.4S17.2,12,17.2,13.9z"/>
	</g>
</g>
</svg>
