<?xml version="1.0" encoding="UTF-8"?>
<svg width="110px" height="106px" viewBox="0 0 110 106" version="1.1" xmlns="http://www.w3.org/2000/svg" xmlns:xlink="http://www.w3.org/1999/xlink">
    <!-- Generator: Sketch 51.3 (57544) - http://www.bohemiancoding.com/sketch -->
    <title>Shape</title>
    <desc>Created with Sketch.</desc>
    <defs></defs>
    <g id="Page-1" stroke="none" stroke-width="1" fill="none" fill-rule="evenodd">
        <g id="star" transform="translate(7.000000, 7.000000)" fill="#9B616E" fill-rule="nonzero" stroke="#FFFFFF" stroke-width="7">
            <path d="M75.5788329,59.2202205 C75.4517487,59.3471797 75.3917539,59.5313623 75.4188061,59.7488131 L82.0905525,85.2466421 C83.7610064,91.913575 76.5026971,97.229581 70.6127638,93.5472646 L48.2147638,79.2462646 L48.1050823,79.173292 C47.991002,79.0942557 47.8200602,79.0942557 47.5892452,79.2425476 L25.2542298,93.5650856 C19.3933078,97.2290779 12.1410693,91.9154639 13.8128823,85.2144264 L20.5184281,59.4914321 C20.5543332,59.3575909 20.448366,59.0450723 20.2819321,58.9061199 L-0.2308442,42.0945983 C-5.58788986,37.6616592 -2.76405816,28.9722197 4.1877532,28.6075748 L30.6773174,27.0066212 C30.9405402,26.9899232 31.1559259,26.8347778 31.2426912,26.6186713 L40.9495195,1.90041359 C43.5206649,-4.53480453 52.5779351,-4.53480453 55.158253,1.92361071 L64.8504722,26.6931461 C64.9465851,26.9327892 65.16196,27.0879298 65.4155597,27.104024 L91.7849761,28.7040071 C98.7647473,29.0702025 101.588081,37.7638464 96.2262035,42.200744 L75.5788329,59.2202205 Z" id="Shape"></path>
        </g>
    </g>
</svg>