<?xml version="1.0" encoding="UTF-8"?>
<svg width="48px" height="48px" viewBox="0 0 48 48" version="1.1" xmlns="http://www.w3.org/2000/svg" xmlns:xlink="http://www.w3.org/1999/xlink">
    <!-- Generator: Sketch 51.3 (57544) - http://www.bohemiancoding.com/sketch -->
    <title>Wikipedia</title>
    <desc>Created with Sketch.</desc>
    <defs></defs>
    <g id="Wikipedia" stroke="none" stroke-width="1" fill="none" fill-rule="evenodd">
        <rect id="Rectangle" fill-rule="nonzero" x="0" y="0" width="48" height="48"></rect>
        <path d="M25.2476072,22.0866793 L28.218703,16.1603865 C28.7158222,15.0761651 28.6140382,14.804741 28.4089949,14.5539687 C28.2909845,14.4138312 27.8956493,14.186661 27.0356479,14.152733 L26.6978428,14.1158548 C26.6122852,14.1158548 26.5326281,14.0863521 26.4544462,14.028822 C26.3777394,13.9742422 26.339386,13.9034359 26.339386,13.8134529 L26.339386,13.0817878 L26.4441203,13.0065561 C28.5476573,12.9918048 33.2725023,13.0065561 33.2725023,13.0065561 L33.3565848,13.083263 L33.3565848,13.814928 C33.3565848,14.017021 33.2429997,14.1173299 33.0187798,14.1173299 C31.9183319,14.1689595 31.6926369,14.2781192 31.2899261,14.8578457 C31.0701315,15.1735238 30.636443,15.8535592 30.186528,16.6176772 L26.3246347,23.8399192 C26.3246347,23.8399192 26.2864817,23.9196342 26.2156654,24.0673021 L30.9358946,33.724773 L31.22207,33.8029549 L38.656731,16.1589114 C38.9148789,15.4478982 38.8750504,14.9434033 38.5431459,14.646902 C38.2097662,14.3592514 37.9752204,14.186661 37.1137438,14.1512579 L36.4160068,14.1173299 C36.3304492,14.1173299 36.249317,14.0863521 36.171135,14.0273469 C36.0944282,13.972767 36.0545996,13.9004856 36.0545996,13.8134529 L36.0545996,13.0788376 L36.1608091,13.0036059 C38.2554953,13.0036059 44.5602058,13.0036059 44.5602058,13.0036059 L44.6457634,13.0788376 L44.6457634,13.8134529 C44.6457634,14.0125956 44.5321783,14.1129045 44.3079584,14.1129045 C43.2075105,14.1615838 42.391763,14.4005551 41.8636661,14.826868 C41.334094,15.2561311 40.9210573,15.8461836 40.6245559,16.616202 C40.6245559,16.616202 33.7873231,32.2643932 31.4477651,37.4671807 C30.5523605,39.1724323 29.6717072,39.0160684 28.8972634,37.4185014 C27.927535,35.4213332 25.9138899,31.0165217 24.43468,27.7601984 C22.8528263,31.0235612 20.6869347,35.4462135 19.612788,37.4376781 C18.5683951,39.2535645 17.7083937,39.0160684 17.0239328,37.4848823 C14.6474966,31.8779088 9.76776275,22.0328836 7.47098357,16.5158931 C7.0461458,15.4995278 6.72604234,14.8475198 6.42364046,14.5893719 C6.11976345,14.3341742 5.48840732,14.1807605 4.52809695,14.1291309 C4.17554061,14.0907775 4,14.0052199 4,13.8665576 L4,13.0980143 L4.08555761,13.0227826 C5.64919661,13.0139318 13.2166194,13.0227826 13.2166194,13.0227826 L13.302177,13.0980143 L13.302177,13.8296793 C13.302177,14.0317723 13.1738406,14.1291309 12.9215931,14.1291309 L11.9686584,14.1689595 C11.1514358,14.2028875 10.7428244,14.4477593 10.7428244,14.9006245 C10.7428244,15.1115683 10.828382,15.4552738 11.018674,15.9155147 C12.8478366,20.373361 19.1658232,33.6952704 19.1658232,33.6952704 L19.3974188,33.7557507 L23.4699155,25.63255 C22.9720133,24.5325664 22.6545084,23.8281182 22.6545084,23.8281182 L19.8547095,18.325879 C19.8547095,18.325879 19.3133363,17.2254312 19.128945,16.8595987 C17.8986856,14.422682 17.9252379,14.2928705 16.6817024,14.1276558 C16.3335714,14.0819267 16.1536055,14.0376728 16.1536055,13.8650825 L16.1536055,13.0935889 L16.2583398,13.0183572 C18.5049645,13.0154069 23.5041839,13.0154069 23.5041839,13.0154069 L23.695951,13.0788376 L23.695951,13.8473809 C23.695951,14.0229215 23.5705648,14.1129045 23.3153671,14.1129045 L22.7902204,14.1881362 C21.4626024,14.2913954 21.6794467,14.8342436 22.5615751,16.5911248 L25.2476072,22.0866793 Z" id="Combined-Shape" fill="#000000" fill-rule="nonzero"></path>
    </g>
</svg>