<?xml version="1.0" encoding="UTF-8"?>
<svg width="512px" height="512px" viewBox="0 0 512 512" version="1.1" xmlns="http://www.w3.org/2000/svg" xmlns:xlink="http://www.w3.org/1999/xlink">
    <!-- Generator: Sketch 53.2 (72643) - https://sketchapp.com -->
    <title>area under curve</title>
    <desc>Created with Sketch.</desc>
    <g id="area-under-curve" stroke="none" stroke-width="1" fill="none" fill-rule="evenodd">
        <g id="Group" transform="translate(73.000000, 88.000000)">
            <path d="M0,366 C21.1370577,344.04499 36.290356,323.017787 45.4598949,302.91839 C59.2142032,272.769296 80.5683227,229.326488 97.7691494,224.192446 C114.969976,219.058404 148.656914,230.132528 183.475485,198.959008 C218.294055,167.785488 208.280093,140.165693 237.384908,106.129339 C266.489724,72.0929847 271.639648,86.6175978 292.362435,66.0179004 C306.177627,52.2847689 330.723482,30.2788021 366,0 L0,366 Z" id="Path-3" fill="#BFBFBF"></path>
            <path d="M0.506925208,365.493075 L365.051495,0.948504588" id="Line" stroke="#51FF2C" stroke-width="4" stroke-linecap="square"></path>
            <path d="M0,366 C21.1370577,344.04499 36.290356,323.017787 45.4598949,302.91839 C59.2142032,272.769296 80.5683227,229.326488 97.7691494,224.192446 C114.969976,219.058404 148.656914,230.132528 183.475485,198.959008 C218.294055,167.785488 208.280093,140.165693 237.384908,106.129339 C266.489724,72.0929847 271.639648,86.6175978 292.362435,66.0179004 C306.177627,52.2847689 330.723482,30.2788021 366,0" id="Shape" stroke="#000000" stroke-width="4"></path>
        </g>
    </g>
</svg>