<?xml version="1.0" encoding="UTF-8"?>
<svg width="48px" height="48px" viewBox="0 0 48 48" version="1.1" xmlns="http://www.w3.org/2000/svg" xmlns:xlink="http://www.w3.org/1999/xlink">
    <!-- Generator: Sketch 51.3 (57544) - http://www.bohemiancoding.com/sketch -->
    <title>Untitled 3</title>
    <desc>Created with Sketch.</desc>
    <defs></defs>
    <g id="Page-1" stroke="none" stroke-width="1" fill="none" fill-rule="evenodd">
        <rect id="Rectangle" fill="#333333" fill-rule="nonzero" x="0" y="0" width="48" height="48"></rect>
        <g id="old-logo" transform="translate(12.000000, 14.000000)" fill="#FFC0D4" fill-rule="nonzero">
            <path d="M12.23,10.84 C12.1607579,10.8545678 12.0892421,10.8545678 12.02,10.84 C11.8994054,10.7856983 11.8058828,10.6849535 11.7606852,10.5606599 C11.7154875,10.4363664 11.7224534,10.2990803 11.78,10.18 L16,1.28 C16.050342,1.1456427 16.1549508,1.03870584 16.2881676,0.985419105 C16.4213845,0.932132367 16.5708852,0.93742543 16.7,1 C16.8205946,1.05430171 16.9141172,1.15504648 16.9593148,1.27934006 C17.0045125,1.40363364 16.9975466,1.5409197 16.94,1.66 L12.69,10.56 C12.604318,10.7349867 12.4247911,10.844264 12.23,10.84 Z" id="Shape"></path>
            <path d="M12.23,10.84 C12.0245128,10.843076 11.8380709,10.7201036 11.76,10.53 L8.05,1.68 C7.98734285,1.55508595 7.98100277,1.40936189 8.0325743,1.27947803 C8.08414583,1.14959417 8.18872147,1.04791018 8.32,1 C8.4508931,0.945504486 8.59856417,0.947957939 8.72757472,1.00677157 C8.85658527,1.0655852 8.95528946,1.17544989 9,1.31 L12.7,10.16 C12.7525732,10.2817826 12.7535268,10.4196767 12.702643,10.5421748 C12.6517592,10.6646729 12.5533857,10.761308 12.43,10.81 C12.3659391,10.8329925 12.2979876,10.8431852 12.23,10.84 Z" id="Shape"></path>
            <path d="M12.23,20 C11.9577162,20.0000545 11.7354457,19.7822294 11.73,19.51 L11.73,10.1 C11.73,9.82385763 11.9538576,9.6 12.23,9.6 C12.5061424,9.6 12.73,9.82385763 12.73,10.1 L12.73,19.47 C12.7382787,19.6077252 12.6892781,19.7427498 12.5945977,19.843111 C12.4999173,19.9434723 12.3679736,20.0002486 12.23,20 Z" id="Shape"></path>
            <path d="M0.5,20 C0.227716193,20.0000545 0.0054456708,19.7822294 0,19.51 L0,1.49 C0.0054456708,1.21777065 0.227716193,0.999945538 0.5,1 C0.772283807,0.999945538 0.994554329,1.21777065 1,1.49 L1,19.49 C1.00268719,19.6243323 0.951197453,19.7540935 0.85713643,19.8500357 C0.763075407,19.945978 0.634359181,20.0000269 0.5,20 Z" id="Shape"></path>
            <path d="M8.37,20 C8.09771619,20.0000545 7.87544567,19.7822294 7.87,19.51 L7.87,1.49 C7.87,1.21385763 8.09385763,0.99 8.37,0.99 C8.64614237,0.99 8.87,1.21385763 8.87,1.49 L8.87,19.49 C8.87268719,19.6243323 8.82119745,19.7540935 8.72713643,19.8500357 C8.63307541,19.945978 8.50435918,20.0000269 8.37,20 Z" id="Shape"></path>
            <path d="M6.8,11 L2.07,11 C1.79385763,11 1.57,10.7761424 1.57,10.5 C1.57,10.2238576 1.79385763,10 2.07,10 L6.8,10 C7.07614237,10 7.3,10.2238576 7.3,10.5 C7.3,10.7761424 7.07614237,11 6.8,11 Z" id="Shape"></path>
            <path d="M16.63,20 C16.3577162,20.0000545 16.1354457,19.7822294 16.13,19.51 L16.13,1.49 C16.13,1.21385763 16.3538576,0.99 16.63,0.99 C16.9061424,0.99 17.13,1.21385763 17.13,1.49 L17.13,19.49 C17.1326872,19.6243323 17.0811975,19.7540935 16.9871364,19.8500357 C16.8930754,19.945978 16.7643592,20.0000269 16.63,20 Z" id="Shape"></path>
            <path d="M24.5,20 C24.2277162,20.0000545 24.0054457,19.7822294 24,19.51 L24,1.49 C24,1.21385763 24.2238576,0.99 24.5,0.99 C24.7761424,0.99 25,1.21385763 25,1.49 L25,19.49 C25.0026872,19.6243323 24.9511975,19.7540935 24.8571364,19.8500357 C24.7630754,19.945978 24.6343592,20.0000269 24.5,20 Z" id="Shape"></path>
            <path d="M22.93,11 L18.2,11 C17.9238576,11 17.7,10.7761424 17.7,10.5 C17.7,10.2238576 17.9238576,10 18.2,10 L22.92,10 C23.1961424,10 23.42,10.2238576 23.42,10.5 C23.42,10.7761424 23.1961424,11 22.92,11 L22.93,11 Z" id="Shape"></path>
        </g>
    </g>
</svg>