<?xml version="1.0" encoding="UTF-8" standalone="no"?>
<!-- Created with Inkscape (http://www.inkscape.org/) -->

<svg
   xmlns:dc="http://purl.org/dc/elements/1.1/"
   xmlns:cc="http://creativecommons.org/ns#"
   xmlns:rdf="http://www.w3.org/1999/02/22-rdf-syntax-ns#"
   xmlns:svg="http://www.w3.org/2000/svg"
   xmlns="http://www.w3.org/2000/svg"
   xmlns:inkscape="http://www.inkscape.org/namespaces/inkscape"
   version="1.1"
   width="2500"
   height="2500"
   id="svg2"
   xml:space="preserve"><metadata
     id="metadata8"><rdf:RDF><cc:Work
         rdf:about=""><dc:format>image/svg+xml</dc:format><dc:type
           rdf:resource="http://purl.org/dc/dcmitype/StillImage" /></cc:Work></rdf:RDF></metadata><defs
     id="defs6"><clipPath
       id="clipPath16"><path
         d="m 0,2000 2000,0 L 2000,0 0,0 0,2000 z"
         inkscape:connector-curvature="0"
         id="path18" /></clipPath><clipPath
       id="clipPath88"><path
         d="m 583.069,1322.978 c 0,-33.908 21.633,-61.396 48.317,-61.396 l 0,0 c 26.685,0 48.317,27.488 48.317,61.396 l 0,0 c 0,33.908 -21.632,61.396 -48.317,61.396 l 0,0 c -26.684,0 -48.317,-27.488 -48.317,-61.396"
         inkscape:connector-curvature="0"
         id="path90" /></clipPath><linearGradient
       x1="0"
       y1="0"
       x2="1"
       y2="0"
       id="linearGradient96"
       gradientUnits="userSpaceOnUse"
       gradientTransform="matrix(-5.4e-6,122.79199,122.79199,5.4e-6,631.38623,1261.582)"
       spreadMethod="pad"><stop
         id="stop98"
         style="stop-color:#00b0f0;stop-opacity:1"
         offset="0" /><stop
         id="stop100"
         style="stop-color:#0077bd;stop-opacity:1"
         offset="0.5" /><stop
         id="stop102"
         style="stop-color:#3f4096;stop-opacity:1"
         offset="1" /></linearGradient><clipPath
       id="clipPath110"><path
         d="m 0,2000 2000,0 L 2000,0 0,0 0,2000 z"
         inkscape:connector-curvature="0"
         id="path112" /></clipPath><linearGradient
       x1="0"
       y1="0"
       x2="1"
       y2="0"
       id="linearGradient176"
       gradientUnits="userSpaceOnUse"
       gradientTransform="matrix(5.4e-6,122.79199,-122.79199,5.4e-6,419.14844,1261.582)"
       spreadMethod="pad"><stop
         id="stop178"
         style="stop-color:#00b0f0;stop-opacity:1"
         offset="0" /><stop
         id="stop180"
         style="stop-color:#0077bd;stop-opacity:1"
         offset="0.5" /><stop
         id="stop182"
         style="stop-color:#3f4096;stop-opacity:1"
         offset="1" /></linearGradient><clipPath
       id="clipPath190"><path
         d="m 0,2000 2000,0 L 2000,0 0,0 0,2000 z"
         inkscape:connector-curvature="0"
         id="path192" /></clipPath></defs><g
     transform="matrix(1.25,0,0,-1.25,0,2500)"
     id="g10"><g
       id="g12"><g
         clip-path="url(#clipPath16)"
         id="g14"><g
           transform="translate(1733.0313,1006.7773)"
           id="g20"><path
             d="m 0,0 c 0,-160.308 -129.956,-290.265 -290.266,-290.265 -160.308,0 -290.264,129.957 -290.264,290.265 0,160.31 129.956,290.265 290.264,290.265 C -129.956,290.265 0,160.31 0,0"
             inkscape:connector-curvature="0"
             id="path22"
             style="fill:#f89734;fill-opacity:1;fill-rule:nonzero;stroke:none" /></g><g
           transform="translate(1245.791,1488.5029)"
           id="g24"><path
             d="m 0,0 c -78.308,53.896 -145.703,16.093 -145.703,16.093 -90.815,-37.468 -101.478,-154.348 -101.478,-154.348 -4.261,-68.22 27.715,-142.408 27.715,-142.408 50.742,-132.124 40.506,-198.689 40.506,-198.689 -5.113,-103.937 -106.595,-148.377 -106.595,-148.377 l 25.583,-37.516 c 70.779,28.992 106.595,98.066 106.595,98.066 30.698,64.807 12.793,151.785 12.793,151.785 -9.381,82.718 -40.932,167.139 -40.932,167.139 -23.023,52.018 -11.939,121.943 -11.939,121.943 13.643,59.693 60.547,81.864 60.547,81.864 10.58,4.96 20.066,7.862 28.492,9.328 -3.795,-8.887 -5.897,-18.666 -5.897,-28.939 0,-40.738 33.025,-73.763 73.759,-73.763 40.741,0 73.763,33.025 73.763,73.763 C 37.209,-36.626 22.223,-12.709 0,0"
             inkscape:connector-curvature="0"
             id="path26"
             style="fill:#935d29;fill-opacity:1;fill-rule:nonzero;stroke:none" /></g><g
           transform="translate(371.2979,1091.8496)"
           id="g28"><path
             d="m 0,0 c 0,0 -120.886,-242.766 -209.076,-294.292 l 185.295,0 c 0,0 93.144,135.751 101.07,226.911 L 36.662,9.91 0,0 z"
             inkscape:connector-curvature="0"
             id="path30"
             style="fill:#935d29;fill-opacity:1;fill-rule:nonzero;stroke:none" /></g><g
           transform="translate(389.6729,1089.4834)"
           id="g32"><path
             d="m 0,0 c 0,0 118.157,-140.45 100.321,-300.964 l 514.987,0 c 0,0 -183.822,333.058 -283.132,401.286 L 0,0 z"
             inkscape:connector-curvature="0"
             id="path34"
             style="fill:#f89734;fill-opacity:1;fill-rule:nonzero;stroke:none" /></g><g
           transform="translate(532.8115,981.8652)"
           id="g36"><path
             d="m 0,0 c 0,0 -132.778,69.36 -151.605,107.014 0,0 268.188,-30.384 356.052,88.849 C 204.447,195.863 163.495,30.718 0,0"
             inkscape:connector-curvature="0"
             id="path38"
             style="fill:#ee3338;fill-opacity:1;fill-rule:nonzero;stroke:none" /></g><g
           transform="translate(529.8379,976.9102)"
           id="g40"><path
             d="m 0,0 c 0,0 -65.397,52.517 -97.105,-102.062 0,0 108.004,26.752 97.105,102.062"
             inkscape:connector-curvature="0"
             id="path42"
             style="fill:#ee3338;fill-opacity:1;fill-rule:nonzero;stroke:none" /></g><g
           transform="translate(536.7725,974.9258)"
           id="g44"><path
             d="M 0,0 C 0,0 -6.161,-79.27 124.852,-95.125 124.852,-95.125 81.251,43.599 0,0"
             inkscape:connector-curvature="0"
             id="path46"
             style="fill:#ee3338;fill-opacity:1;fill-rule:nonzero;stroke:none" /></g><g
           transform="translate(697.3262,1120.5859)"
           id="g48"><path
             d="m 0,0 c 0,0 -6.966,-210.068 -236.85,-345.818 l 287.355,0 c 0,0 75.307,253.668 39.636,338.881 0,0 -6.938,23.782 -43.6,34.683 0,0 -27.685,0.988 -46.541,-27.746"
             inkscape:connector-curvature="0"
             id="path50"
             style="fill:#935d29;fill-opacity:1;fill-rule:nonzero;stroke:none" /></g><g
           transform="translate(250.333,1496.9775)"
           id="g52"><path
             d="M 0,0 C 0,71.329 123.092,129.152 274.934,129.152 426.776,129.152 549.867,71.329 549.867,0 549.867,-71.328 426.776,-129.152 274.934,-129.152 123.092,-129.152 0,-71.328 0,0"
             inkscape:connector-curvature="0"
             id="path54"
             style="fill:#935d29;fill-opacity:1;fill-rule:nonzero;stroke:none" /></g><g
           transform="translate(287.4512,1729.6162)"
           id="g56"><path
             d="m 0,0 c 0,0 -63.836,-69.875 -18.115,-120.772 0,0 27.604,-26.742 98.343,-6.902 0,0 -69.013,-62.11 -110.421,-38.819 0,0 -44.858,21.516 -35.369,80.633 0,0 9.49,52.216 65.562,85.86"
             inkscape:connector-curvature="0"
             id="path58"
             style="fill:#935d29;fill-opacity:1;fill-rule:nonzero;stroke:none" /></g><g
           transform="translate(390.1748,1604.0205)"
           id="g60"><path
             d="m 0,0 c 0,0 -45.722,0.861 -53.485,36.23 0,0 -9.704,38.389 53.485,106.108 0,0 -46.01,-23.004 -66.713,-58.373 0,0 -19.911,-25.305 -19.842,-59.236 0,0 0,-52.046 86.555,-24.729"
             inkscape:connector-curvature="0"
             id="path62"
             style="fill:#935d29;fill-opacity:1;fill-rule:nonzero;stroke:none" /></g><g
           transform="translate(976.0879,1280.8281)"
           id="g64"><path
             d="m 0,0 c 0,-83.816 -65.402,-151.763 -146.078,-151.763 -80.678,0 -146.079,67.947 -146.079,151.763 0,83.816 65.401,151.762 146.079,151.762 C -65.402,151.762 0,83.816 0,0"
             inkscape:connector-curvature="0"
             id="path66"
             style="fill:#935d29;fill-opacity:1;fill-rule:nonzero;stroke:none" /></g><g
           transform="translate(947.0996,1280.8281)"
           id="g68"><path
             d="m 0,0 c 0,-67.184 -52.423,-121.646 -117.09,-121.646 -64.667,0 -117.091,54.462 -117.091,121.646 0,67.184 52.424,121.646 117.091,121.646 C -52.423,121.646 0,67.184 0,0"
             inkscape:connector-curvature="0"
             id="path70"
             style="fill:#fff467;fill-opacity:1;fill-rule:nonzero;stroke:none" /></g><g
           transform="translate(525.3027,1443.6152)"
           id="g72"><path
             d="m 0,0 0,-374.005 c 0,0 252.601,-18.795 279.884,163.396 0,0 18.188,119.667 0,210.609 L 0,0 z"
             inkscape:connector-curvature="0"
             id="path74"
             style="fill:#fff467;fill-opacity:1;fill-rule:nonzero;stroke:none" /></g><g
           transform="translate(563.959,1353.0508)"
           id="g76"><path
             d="m 0,0 c 0,0 1.667,-59.413 14.551,-98.066 0,0 68.97,-4.238 101.558,6.976 0,0 40.17,55.172 30.318,102.162 0,0 -8.728,35.621 -58.554,43.2 0,0 -57.329,5.519 -87.873,-54.272"
             inkscape:connector-curvature="0"
             id="path78"
             style="fill:#ffffff;fill-opacity:1;fill-rule:nonzero;stroke:none" /></g><g
           transform="translate(844.5937,1473.7393)"
           id="g80"><path
             d="m 0,0 c 0,-19.148 -15.522,-34.671 -34.673,-34.671 -19.149,0 -34.672,15.523 -34.672,34.671 0,19.148 15.523,34.672 34.672,34.672 C -15.522,34.672 0,19.148 0,0"
             inkscape:connector-curvature="0"
             id="path82"
             style="fill:#f89734;fill-opacity:1;fill-rule:nonzero;stroke:none" /></g></g></g><g
       id="g84"><g
         clip-path="url(#clipPath88)"
         id="g86"><g
           id="g92"><g
             id="g94"><path
               d="m 583.069,1322.978 c 0,-33.908 21.633,-61.396 48.317,-61.396 l 0,0 c 26.685,0 48.317,27.488 48.317,61.396 l 0,0 c 0,33.908 -21.632,61.396 -48.317,61.396 l 0,0 c -26.684,0 -48.317,-27.488 -48.317,-61.396"
               inkscape:connector-curvature="0"
               id="path104"
               style="fill:url(#linearGradient96);stroke:none" /></g></g></g></g><g
       id="g106"><g
         clip-path="url(#clipPath110)"
         id="g108"><g
           transform="translate(743.417,1234.5947)"
           id="g114"><path
             d="m 0,0 c 0,-11.259 -20.229,-20.388 -45.183,-20.388 -24.954,0 -45.183,9.129 -45.183,20.388 0,11.262 20.229,20.39 45.183,20.39 C -20.229,20.39 0,11.262 0,0"
             inkscape:connector-curvature="0"
             id="path116"
             style="fill:#f7997e;fill-opacity:1;fill-rule:nonzero;stroke:none" /></g><g
           transform="translate(650.002,1318.5215)"
           id="g118"><path
             d="m 0,0 c 0,-13.464 -6.956,-24.378 -15.537,-24.378 -8.58,0 -15.537,10.914 -15.537,24.378 0,13.465 6.957,24.38 15.537,24.38 C -6.956,24.38 0,13.465 0,0"
             inkscape:connector-curvature="0"
             id="path120"
             style="fill:#373535;fill-opacity:1;fill-rule:nonzero;stroke:none" /></g><g
           transform="translate(642.5527,1352.6719)"
           id="g122"><path
             d="m 0,0 c 0,-13.049 -10.576,-23.626 -23.625,-23.626 -13.047,0 -23.625,10.577 -23.625,23.626 0,13.047 10.578,23.625 23.625,23.625 C -10.576,23.625 0,13.047 0,0"
             inkscape:connector-curvature="0"
             id="path124"
             style="fill:#ffffff;fill-opacity:1;fill-rule:nonzero;stroke:none" /></g><g
           transform="translate(563.959,1353.0508)"
           id="g126"><path
             d="m 0,0 c 0,0 33.109,55.186 87.873,49.424 0,0 28.236,3.333 58.554,-38.352 l 22.736,19.157 c 0,0 -15.916,-5.846 -29.558,6.612 0,0 -20.968,28.837 -57.676,28.801 0,0 -57.778,3.789 -81.929,-65.642"
             inkscape:connector-curvature="0"
             id="path128"
             style="fill:#373535;fill-opacity:1;fill-rule:nonzero;stroke:none" /></g><g
           transform="translate(813.2705,1361.0908)"
           id="g130"><path
             d="m 0,0 c 0,0 -144.88,209.939 -287.968,0 l 0,119.749 281.336,0 C -6.632,119.749 0.082,23.481 0,0"
             inkscape:connector-curvature="0"
             id="path132"
             style="fill:#935d29;fill-opacity:1;fill-rule:nonzero;stroke:none" /></g><path
           d="m 809.354,1439.068 -284.052,0 0,69.343 284.052,0 0,-69.343 z"
           inkscape:connector-curvature="0"
           id="path134"
           style="fill:#f89734;fill-opacity:1;fill-rule:nonzero;stroke:none" /><g
           transform="translate(525.5332,1439.373)"
           id="g136"><path
             d="M 0,0 42.465,66.056 64.877,27.129 c 0,0 8.257,-24.771 -11.796,-46.003 0,0 27.13,7.077 53.081,56.62 l 49.542,97.904 c 0,0 38.203,-16.414 44.755,22.412 0,0 2.884,25.66 -25.882,31.849 0,0 -21.041,3.774 -35.387,-22.412 L 84.929,70.773 47.184,147.445 0,68.415"
             inkscape:connector-curvature="0"
             id="path138"
             style="fill:#fff467;fill-opacity:1;fill-rule:nonzero;stroke:none" /></g><g
           transform="translate(560.9824,1410.0586)"
           id="g140"><path
             d="m 0,0 13.522,14.319 c 16.126,17.073 11.638,36.47 10.683,39.869 l -17.456,30.32 -37.445,-58.249 -9.506,6.109 47.483,73.864 27.327,-47.462 0.18,-0.541 c 0.269,-0.805 4.673,-14.535 -0.523,-30.774 8.999,7.921 20.316,20.985 31.442,42.226 l 51.902,102.569 4.876,-2.094 c 0.14,-0.059 15.327,-6.375 26.056,-0.492 5.628,3.085 9.283,9.297 10.866,18.464 0.229,2.593 0.986,20.669 -21.331,25.543 -1.232,0.176 -17.543,2.032 -29.38,-19.572 L 49.153,87.957 l -37.896,76.98 -41.856,-70.105 -9.702,5.793 52.513,87.958 37.594,-76.365 49.007,87.359 c 16.087,29.363 40.289,25.393 41.311,25.209 l 0.192,-0.038 c 26.706,-5.745 31.503,-27.37 30.309,-38.003 l -0.044,-0.308 c -2.175,-12.886 -7.783,-21.875 -16.671,-26.716 -10.97,-5.977 -23.865,-3.691 -30.83,-1.688 L 75.754,64.509 C 48.915,13.271 20.265,5.287 19.058,4.973 L 0,0 z"
             inkscape:connector-curvature="0"
             id="path142"
             style="fill:#935d29;fill-opacity:1;fill-rule:nonzero;stroke:none" /></g><g
           transform="translate(74.4473,1280.8281)"
           id="g144"><path
             d="m 0,0 c 0,-83.816 65.401,-151.763 146.077,-151.763 80.678,0 146.079,67.947 146.079,151.763 0,83.816 -65.401,151.762 -146.079,151.762 C 65.401,151.762 0,83.816 0,0"
             inkscape:connector-curvature="0"
             id="path146"
             style="fill:#935d29;fill-opacity:1;fill-rule:nonzero;stroke:none" /></g><g
           transform="translate(103.4355,1280.8281)"
           id="g148"><path
             d="m 0,0 c 0,-67.184 52.422,-121.646 117.089,-121.646 64.668,0 117.091,54.462 117.091,121.646 0,67.184 -52.423,121.646 -117.091,121.646 C 52.422,121.646 0,67.184 0,0"
             inkscape:connector-curvature="0"
             id="path150"
             style="fill:#fff467;fill-opacity:1;fill-rule:nonzero;stroke:none" /></g><g
           transform="translate(525.2314,1443.6152)"
           id="g152"><path
             d="m 0,0 0,-374.005 c 0,0 -252.601,-18.795 -279.883,163.396 0,0 -18.19,119.667 0,210.609 L 0,0 z"
             inkscape:connector-curvature="0"
             id="path154"
             style="fill:#fff467;fill-opacity:1;fill-rule:nonzero;stroke:none" /></g><g
           transform="translate(486.5752,1353.0508)"
           id="g156"><path
             d="m 0,0 c 0,0 -1.667,-59.413 -14.551,-98.066 0,0 -68.969,-4.238 -101.559,6.976 0,0 -40.168,55.172 -30.316,102.162 0,0 8.727,35.621 58.554,43.2 0,0 57.328,5.519 87.872,-54.272"
             inkscape:connector-curvature="0"
             id="path158"
             style="fill:#ffffff;fill-opacity:1;fill-rule:nonzero;stroke:none" /></g><g
           transform="translate(205.9414,1473.7393)"
           id="g160"><path
             d="m 0,0 c 0,-19.148 15.522,-34.671 34.672,-34.671 19.148,0 34.671,15.523 34.671,34.671 0,19.148 -15.523,34.672 -34.671,34.672 C 15.522,34.672 0,19.148 0,0"
             inkscape:connector-curvature="0"
             id="path162"
             style="fill:#f89734;fill-opacity:1;fill-rule:nonzero;stroke:none" /></g></g></g><g
       id="g164"><g
         id="g166"><g
           id="g172"><g
             id="g174"><path
               d="m 370.831,1322.978 c 0,-33.908 21.633,-61.396 48.316,-61.396 l 0,0 c 26.684,0 48.318,27.488 48.318,61.396 l 0,0 c 0,33.908 -21.634,61.396 -48.318,61.396 l 0,0 c -26.683,0 -48.316,-27.488 -48.316,-61.396"
               inkscape:connector-curvature="0"
               id="path184"
               style="fill:url(#linearGradient176);stroke:none" /></g></g></g></g><g
       id="g186"><g
         clip-path="url(#clipPath190)"
         id="g188"><g
           transform="translate(307.1172,1234.5947)"
           id="g194"><path
             d="m 0,0 c 0,-11.259 20.229,-20.388 45.184,-20.388 24.953,0 45.182,9.129 45.182,20.388 0,11.262 -20.229,20.39 -45.182,20.39 C 20.229,20.39 0,11.262 0,0"
             inkscape:connector-curvature="0"
             id="path196"
             style="fill:#f7997e;fill-opacity:1;fill-rule:nonzero;stroke:none" /></g><g
           transform="translate(400.5332,1318.5215)"
           id="g198"><path
             d="m 0,0 c 0,-13.464 6.956,-24.378 15.536,-24.378 8.581,0 15.538,10.914 15.538,24.378 0,13.465 -6.957,24.38 -15.538,24.38 C 6.956,24.38 0,13.465 0,0"
             inkscape:connector-curvature="0"
             id="path200"
             style="fill:#373535;fill-opacity:1;fill-rule:nonzero;stroke:none" /></g><g
           transform="translate(407.9805,1352.6719)"
           id="g202"><path
             d="m 0,0 c 0,-13.049 10.578,-23.626 23.627,-23.626 13.047,0 23.625,10.577 23.625,23.626 0,13.047 -10.578,23.625 -23.625,23.625 C 10.578,23.625 0,13.047 0,0"
             inkscape:connector-curvature="0"
             id="path204"
             style="fill:#ffffff;fill-opacity:1;fill-rule:nonzero;stroke:none" /></g><g
           transform="translate(486.5752,1353.0508)"
           id="g206"><path
             d="m 0,0 c 0,0 -33.108,55.186 -87.872,49.424 0,0 -28.238,3.333 -58.554,-38.352 l -22.737,19.157 c 0,0 15.916,-5.846 29.559,6.612 0,0 20.967,28.837 57.675,28.801 0,0 57.779,3.789 81.929,-65.642"
             inkscape:connector-curvature="0"
             id="path208"
             style="fill:#373535;fill-opacity:1;fill-rule:nonzero;stroke:none" /></g><g
           transform="translate(237.2637,1361.0908)"
           id="g210"><path
             d="m 0,0 c 0,0 144.879,209.939 287.968,0 l 0,119.749 -281.335,0 C 6.633,119.749 -0.083,23.481 0,0"
             inkscape:connector-curvature="0"
             id="path212"
             style="fill:#935d29;fill-opacity:1;fill-rule:nonzero;stroke:none" /></g><path
           d="m 241.18,1439.068 284.052,0 0,69.343 -284.052,0 0,-69.343 z"
           inkscape:connector-curvature="0"
           id="path214"
           style="fill:#f89734;fill-opacity:1;fill-rule:nonzero;stroke:none" /><g
           transform="translate(525.001,1507.7881)"
           id="g216"><path
             d="m 0,0 -47.183,79.03 -37.746,-76.672 -54.26,96.726 c -14.347,26.186 -35.388,22.412 -35.388,22.412 -28.766,-6.189 -25.882,-31.849 -25.882,-31.849 6.553,-38.826 44.755,-22.412 44.755,-22.412 l 49.543,-97.904 c 25.95,-49.543 53.081,-56.62 53.081,-56.62 -20.054,21.232 -11.797,46.003 -11.797,46.003 L -42.465,-2.359 0,-68.415"
             inkscape:connector-curvature="0"
             id="path218"
             style="fill:#fff467;fill-opacity:1;fill-rule:nonzero;stroke:none" /></g><g
           transform="translate(489.5527,1410.0586)"
           id="g220"><path
             d="m 0,0 -19.059,4.973 c -1.206,0.314 -29.857,8.298 -56.66,59.465 l -47.362,93.595 c -6.963,-2.004 -19.857,-4.292 -30.829,1.688 -8.888,4.841 -14.498,13.83 -16.671,26.716 l -0.045,0.308 c -1.193,10.633 3.603,32.258 30.309,38.003 l 0.191,0.038 c 1.02,0.184 25.226,4.154 41.34,-25.258 l 48.979,-87.31 37.594,76.365 52.513,-87.958 -9.703,-5.793 -41.854,70.105 -37.898,-76.98 -59.515,106.092 c -11.771,21.486 -27.928,19.822 -29.43,19.618 -22.224,-4.867 -21.54,-22.835 -21.306,-25.547 1.584,-9.163 5.238,-15.372 10.863,-18.456 10.73,-5.881 25.918,0.433 26.069,0.497 l 4.863,2.061 2.397,-4.706 49.542,-97.906 c 11.107,-21.203 22.409,-34.246 31.407,-42.16 -5.198,16.243 -0.792,29.974 -0.524,30.779 l 0.181,0.541 27.326,47.462 L 40.201,32.368 30.695,26.259 -6.751,84.508 -24.209,54.186 C -25.146,50.854 -29.676,31.42 -13.524,14.319 L 0,0 z"
             inkscape:connector-curvature="0"
             id="path222"
             style="fill:#935d29;fill-opacity:1;fill-rule:nonzero;stroke:none" /></g><g
           transform="translate(1170.5908,531.3105)"
           id="g224"><path
             d="m 0,0 c 0,0 -76.548,48.032 64.539,55.535 l 690.424,33.982 -831.521,25.238 c 0.002,0.273 0.01,0.546 0.01,0.816 0,90.356 -73.245,163.603 -163.6,163.603 -1.124,0 -2.246,-0.02 -3.365,-0.042 -25.371,57.48 -82.861,97.601 -149.728,97.601 -59.073,0 -110.827,-31.313 -139.586,-78.239 -28.76,46.926 -80.514,78.239 -139.587,78.239 -56.012,0 -105.44,-28.154 -134.93,-71.076 -23.928,13.706 -51.648,21.546 -81.203,21.546 -90.353,0 -163.6,-73.245 -163.6,-163.599 0,-36.319 11.841,-69.872 31.868,-97.015 -28.991,-29.519 -46.876,-69.977 -46.876,-114.615 0,-90.355 73.245,-163.603 163.599,-163.603 42.379,0 80.993,16.114 110.053,42.549 22.594,-63.289 83.057,-108.588 154.109,-108.588 55.997,0 105.411,28.137 134.903,71.038 29.991,-34.333 74.088,-56.03 123.256,-56.03 61.137,0 114.436,33.542 142.515,83.223 72.159,0.62 133.164,47.944 154.263,113.226 L 115.57,-48.026 0,0 z"
             inkscape:connector-curvature="0"
             id="path226"
             style="fill:#fff467;fill-opacity:1;fill-rule:nonzero;stroke:none" /></g><g
           transform="translate(777.3496,908.0439)"
           id="g228"><path
             d="M 0,0 C -59.073,0 -110.827,-31.313 -139.586,-78.239 -168.346,-31.313 -220.1,0 -279.173,0 c -56.012,0 -105.44,-28.154 -134.93,-71.076 -23.928,13.706 -51.648,21.546 -81.203,21.546 -90.353,0 -163.6,-73.245 -163.6,-163.6 0,-36.318 11.842,-69.871 31.868,-97.015 -28.99,-29.518 -46.876,-69.976 -46.876,-114.615 0,-90.354 73.245,-163.602 163.6,-163.602 42.378,0 80.992,16.114 110.052,42.549 22.594,-63.29 83.057,-108.588 154.11,-108.588 55.996,0 105.41,28.136 134.902,71.038 29.991,-34.333 74.088,-56.031 123.256,-56.031 61.138,0 114.436,33.542 142.515,83.223 72.16,0.62 133.165,47.944 154.263,113.227 l 200.028,18.184 -115.571,48.027 c 0,0 -76.548,48.032 64.539,55.535 l 690.424,33.981 -831.52,25.238 c 0.002,0.274 0.009,0.546 0.009,0.817 0,90.355 -73.245,163.602 -163.6,163.602 -1.124,0 -2.245,-0.019 -3.364,-0.042 C 124.357,-40.121 66.867,0 0,0 m 0,-16.951 c 58.075,0 110.761,-34.343 134.221,-87.496 2.716,-6.152 8.803,-10.105 15.505,-10.105 0.118,0 0.237,0 0.356,0.002 1.003,0.023 2.004,0.04 3.011,0.04 39.172,0 75.999,-15.256 103.697,-42.953 27.698,-27.698 42.953,-64.526 42.953,-103.689 l -0.003,-0.2 -0.008,-0.494 c -0.071,-9.213 7.228,-16.797 16.437,-17.077 l 405.621,-12.31 -264.844,-13.036 c -0.021,0 -0.045,-0.002 -0.067,-0.002 -30.59,-1.626 -53.246,-5.158 -69.261,-10.791 -17.478,-6.149 -27.946,-15.463 -31.114,-27.684 -6.566,-25.335 21.945,-44.716 27.726,-48.345 0.799,-0.501 1.637,-0.932 2.504,-1.295 l 52.229,-21.705 -131.713,-11.972 c -6.763,-0.615 -12.506,-5.208 -14.595,-11.668 -9.391,-29.062 -27.37,-54.127 -51.989,-72.489 -25.078,-18.703 -54.918,-28.732 -86.29,-29.001 -6.06,-0.053 -11.63,-3.335 -14.611,-8.61 -12.576,-22.247 -30.827,-40.929 -52.786,-54.023 -22.587,-13.468 -48.513,-20.588 -74.973,-20.588 -42.332,0 -82.605,18.307 -110.49,50.229 -3.228,3.697 -7.888,5.801 -12.765,5.801 -0.325,0 -0.653,-0.01 -0.98,-0.028 -5.228,-0.304 -10.022,-3.005 -12.989,-7.323 -27.417,-39.88 -72.625,-63.688 -120.934,-63.688 -30.855,0 -60.369,9.47 -85.348,27.385 -24.467,17.547 -42.725,41.735 -52.798,69.952 -1.906,5.339 -6.354,9.371 -11.854,10.746 -1.36,0.339 -2.74,0.505 -4.109,0.505 -4.17,0 -8.25,-1.54 -11.406,-4.411 -27.036,-24.592 -62.069,-38.137 -98.647,-38.137 -39.172,0 -75.998,15.255 -103.697,42.953 -27.699,27.698 -42.953,64.526 -42.953,103.698 0,38.659 14.922,75.149 42.019,102.739 5.835,5.94 6.491,15.238 1.547,21.939 -18.682,25.322 -28.557,55.39 -28.557,86.952 0,39.172 15.254,75.997 42.952,103.696 27.698,27.698 64.525,42.953 103.697,42.953 25.566,0 50.733,-6.676 72.778,-19.303 2.649,-1.519 5.548,-2.245 8.412,-2.245 5.418,0 10.716,2.598 13.984,7.354 27.415,39.903 72.633,63.724 120.959,63.724 25.554,0 50.708,-6.667 72.739,-19.281 21.389,-12.247 39.507,-29.836 52.396,-50.863 3.081,-5.03 8.555,-8.094 14.452,-8.094 5.898,0 11.371,3.064 14.452,8.094 12.888,21.027 31.005,38.616 52.396,50.863 22.032,12.614 47.183,19.281 72.738,19.281"
             inkscape:connector-curvature="0"
             id="path230"
             style="fill:#f89734;fill-opacity:1;fill-rule:nonzero;stroke:none" /></g><path
           d="m 525.734,1365.938 -0.66,0 0,76.278 0.66,0 0,-76.278 z"
           inkscape:connector-curvature="0"
           id="path232"
           style="fill:#935d29;fill-opacity:1;fill-rule:nonzero;stroke:none" /><path
           d="m 525.633,1362 -0.66,0 0,80.217 0.66,0 0,-80.217 z"
           inkscape:connector-curvature="0"
           id="path234"
           style="fill:#935d29;fill-opacity:1;fill-rule:nonzero;stroke:none" /><g
           transform="translate(518.3877,1507.9482)"
           id="g236"><path
             d="M 0,0 6.648,-12.431 6.613,6.215"
             inkscape:connector-curvature="0"
             id="path238"
             style="fill:#935d29;fill-opacity:1;fill-rule:nonzero;stroke:none" /></g><g
           transform="translate(533.2666,1509.6426)"
           id="g240"><path
             d="M 0,0 -8.223,-14.125 -8.188,4.521"
             inkscape:connector-curvature="0"
             id="path242"
             style="fill:#935d29;fill-opacity:1;fill-rule:nonzero;stroke:none" /></g><path
           d="m 525.6,1450.417 -0.736,0 0,45.101 0.736,0 0,-45.101 z"
           inkscape:connector-curvature="0"
           id="path244"
           style="fill:#fff467;fill-opacity:1;fill-rule:nonzero;stroke:none" /><path
           d="m 531.61,1069.333 -12.412,0 0,291.758 12.412,0 0,-291.758 z"
           inkscape:connector-curvature="0"
           id="path246"
           style="fill:#fff467;fill-opacity:1;fill-rule:nonzero;stroke:none" /><g
           transform="translate(563.9229,1232.3994)"
           id="g248"><path
             d="m 0,0 c 0,-16.326 -17.307,-29.562 -38.656,-29.562 -21.35,0 -38.657,13.236 -38.657,29.562 0,16.326 17.307,29.562 38.657,29.562 C -17.307,29.562 0,16.326 0,0"
             inkscape:connector-curvature="0"
             id="path250"
             style="fill:#373535;fill-opacity:1;fill-rule:nonzero;stroke:none" /></g><g
           transform="translate(522.9521,1243.6172)"
           id="g252"><path
             d="m 0,0 c 0,-5.861 -5.089,-10.611 -11.368,-10.611 -6.278,0 -11.368,4.75 -11.368,10.611 0,5.858 5.09,10.609 11.368,10.609 C -5.089,10.609 0,5.858 0,0"
             inkscape:connector-curvature="0"
             id="path254"
             style="fill:#96989b;fill-opacity:1;fill-rule:nonzero;stroke:none" /></g><g
           transform="translate(518.1191,1166.2402)"
           id="g256"><path
             d="m 0,0 c 21.868,-9.6 45.476,-14.762 69.277,-16.328 27.068,-1.784 55.844,3.099 76.684,21.567 5.765,5.11 5.196,14.781 0,19.977 -5.687,5.686 -14.219,5.101 -19.977,0 -0.666,-0.606 -1.346,-1.194 -2.041,-1.764 2.109,1.777 -1.316,-0.902 -1.463,-1.004 -2.227,-1.535 -4.609,-2.834 -7.017,-4.056 -0.132,-0.068 -4.205,-1.863 -1.62,-0.801 -1.278,-0.525 -2.584,-0.977 -3.89,-1.43 -2.65,-0.92 -5.371,-1.63 -8.099,-2.281 -6.73,-1.605 -8.293,-1.642 -14.841,-2.049 -5.905,-0.366 -11.834,-0.246 -17.736,0.092 -11.202,0.64 -19.406,2.06 -31.439,4.988 -4.855,1.183 -9.655,2.58 -14.404,4.131 -2.099,0.684 -4.177,1.43 -6.244,2.201 -0.952,0.356 -1.895,0.732 -2.84,1.108 -3.155,1.258 2.873,-1.258 -0.091,0.043 C 7.207,27.488 -0.847,26.531 -5.067,19.326 -8.618,13.266 -7.054,3.097 0,0"
             inkscape:connector-curvature="0"
             id="path258"
             style="fill:#373535;fill-opacity:1;fill-rule:nonzero;stroke:none" /></g><g
           transform="translate(517.3721,1190.6338)"
           id="g260"><path
             d="m 0,0 c -1.376,-0.599 -1.105,-0.491 0.81,0.326 -0.918,-0.385 -1.845,-0.745 -2.773,-1.107 -2.02,-0.789 -4.069,-1.507 -6.123,-2.208 -4.673,-1.595 -9.428,-2.944 -14.209,-4.171 -5.341,-1.371 -10.744,-2.481 -16.174,-3.429 -1.417,-0.247 -2.839,-0.464 -4.259,-0.682 -4.695,-0.716 2.733,0.314 -2.016,-0.269 -2.924,-0.358 -5.86,-0.615 -8.797,-0.834 -5.904,-0.439 -11.831,-0.499 -17.744,-0.263 -6.958,0.278 -8.531,0.492 -14.925,1.816 -2.758,0.57 -5.473,1.326 -8.163,2.156 -1.325,0.408 -2.627,0.886 -3.929,1.363 -4.184,1.538 2.35,-1.133 -1.676,0.708 -2.465,1.128 -4.819,2.479 -7.117,3.91 -1.143,0.713 -2.235,1.502 -3.325,2.292 2.244,-1.625 -1.183,1.105 -1.306,1.214 -5.756,5.102 -14.29,5.687 -19.976,0 -5.196,-5.196 -5.765,-14.867 0,-19.976 20.588,-18.246 48.479,-22.945 75.204,-21.653 24.216,1.17 48.556,6.667 70.757,16.413 7.053,3.097 8.618,13.266 5.067,19.327 C 15.105,2.138 7.051,3.095 0,0"
             inkscape:connector-curvature="0"
             id="path262"
             style="fill:#373535;fill-opacity:1;fill-rule:nonzero;stroke:none" /></g><path
           d="m 526.501,1438.75 -2.275,0 0,0.917 2.275,0 0,-0.917 z"
           inkscape:connector-curvature="0"
           id="path264"
           style="fill:#935d29;fill-opacity:1;fill-rule:nonzero;stroke:none" /><g
           transform="translate(524.2266,1451.0249)"
           id="g266"><path
             d="M 0,0 2.081,0 0.94,-1.692 0,0 z"
             inkscape:connector-curvature="0"
             id="path268"
             style="fill:#fff467;fill-opacity:1;fill-rule:nonzero;stroke:none" /></g><g
           transform="translate(525.6948,1496.6362)"
           id="g270"><path
             d="M 0,0 -0.659,-1.119 0,-1.119 0,0 z"
             inkscape:connector-curvature="0"
             id="path272"
             style="fill:#fff467;fill-opacity:1;fill-rule:nonzero;stroke:none" /></g><path
           d="m 524.975,1495.917 0.138,0 0,11.872 -0.138,0 0,-11.872 z"
           inkscape:connector-curvature="0"
           id="path274"
           style="fill:#935d29;fill-opacity:1;fill-rule:nonzero;stroke:none" /></g></g></g></svg>