<?xml version="1.0" encoding="utf-8"?>
<!-- Generator: Adobe Illustrator 21.1.0, SVG Export Plug-In . SVG Version: 6.00 Build 0)  -->
<svg version="1.1" id="Layer_1" xmlns="http://www.w3.org/2000/svg" xmlns:xlink="http://www.w3.org/1999/xlink" x="0px" y="0px"
	 viewBox="0 0 413 459.1" style="enable-background:new 0 0 413 459.1;" xml:space="preserve">
<style type="text/css">
	.st0{enable-background:new    ;}
	.st1{fill:#F2F2F2;}
</style>
<title>contact</title>
<g class="st0">
	<path class="st1" d="M70.6,144V156c0,2.6,0.7,3.8,3.1,3.8c2.9,0,3.5-1.3,3.5-3.8V144h2.3v13.2c0,2.3-1.7,4.9-5.6,4.9
		c-3.8,0-5.5-2.4-5.5-5v-13H70.6z"/>
	<path class="st1" d="M90.6,156.1c0.4,2.2,1.5,3.8,3.9,3.8c1.9,0,3.3-1,3.3-3c0-2.2-1.8-2.7-3.6-3.4c-2.6-1.1-5-1.8-5-5.1
		c0-3,2.4-4.7,5.2-4.7c3,0,4.7,1.7,5.4,4.5l-2.2,0.6c-0.4-1.7-1.3-3-3.3-3c-1.5,0-2.9,0.7-2.9,2.3c0,1.7,1,2.1,2.4,2.8l3.8,1.7
		c1.6,0.9,2.4,2.3,2.4,4.1c0,3.4-2.3,5.3-5.6,5.3c-3.3,0-5.4-2.1-5.9-5.3L90.6,156.1z"/>
	<path class="st1" d="M111.4,144V156c0,2.6,0.7,3.8,3.1,3.8c2.9,0,3.5-1.3,3.5-3.8V144h2.3v13.2c0,2.3-1.7,4.9-5.6,4.9
		c-3.8,0-5.5-2.4-5.5-5v-13H111.4z"/>
	<path class="st1" d="M132,156.9l-1.7,5.3l-2.2-0.8l5.6-17.3h2.9l5.6,17.3l-2.2,0.8l-1.6-5.3H132z M135.1,146.6l-2.5,8.2h5
		L135.1,146.6z"/>
	<path class="st1" d="M151.1,144h2.3v15.7h9.3v2h-11.6V144z"/>
	<path class="st1" d="M171.5,144h2.3v15.7h9.3v2h-11.6V144z"/>
	<path class="st1" d="M201,143.5l2.1,1.1l-5.7,10.2v6.8h-2.3v-6.8l-5.7-10.2l2.1-1.1l4.7,9.1L201,143.5z"/>
	<path class="st1" d="M233.5,159.6h2.5V146h-2.5v-2h7.3v2h-2.5v13.6h2.5v2h-7.3V159.6z"/>
	<path class="st1" d="M256.4,146h-4.9v-2h12v2h-4.8v15.7h-2.3V146z"/>
	<path class="st1" d="M294.7,159.6h2.5V146h-2.5v-2h7.3v2h-2.5v13.6h2.5v2h-7.3V159.6z"/>
	<path class="st1" d="M315,156.1c0.4,2.2,1.5,3.8,3.9,3.8c1.9,0,3.3-1,3.3-3c0-2.2-1.8-2.7-3.6-3.4c-2.6-1.1-5-1.8-5-5.1
		c0-3,2.4-4.7,5.2-4.7c3,0,4.7,1.7,5.4,4.5l-2.2,0.6c-0.4-1.7-1.3-3-3.3-3c-1.5,0-2.9,0.7-2.9,2.3c0,1.7,1,2.1,2.4,2.8l3.8,1.7
		c1.6,0.9,2.4,2.3,2.4,4.1c0,3.4-2.3,5.3-5.6,5.3c-3.3,0-5.4-2.1-5.9-5.3L315,156.1z"/>
	<path class="st1" d="M337.5,147h3.1v5h-3.1V147z M337.5,156.7h3.1v5h-3.1V156.7z"/>
</g>
<g class="st0">
	<path class="st1" d="M98.7,184.8h2.3v7.3h7v-7.3h2.3v17.7H108v-8.3h-7v8.3h-2.3V184.8z"/>
	<path class="st1" d="M129.6,184.3l2.1,1.1l-5.7,10.2v6.8h-2.3v-6.8l-5.7-10.2l2.1-1.1l4.7,9.1L129.6,184.3z"/>
	<path class="st1" d="M139.5,184.8h2.3v7.3h7v-7.3h2.3v17.7h-2.3v-8.3h-7v8.3h-2.3V184.8z"/>
	<path class="st1" d="M173.4,200.2c-2.5,1.6-5.4,2.6-8.4,2.6c-4.2,0-8.9-2.9-8.9-9.8c0-6.2,3.4-13.5,10.4-13.5
		c3.6,0,8.7,2.7,8.7,9.5c0,3.1-1.4,7.8-5.2,7.8c-1.4,0-1.9-0.4-2.8-1.4c-1,0.9-1.7,1.4-3.1,1.4c-1.8,0-3.1-1.3-3.1-3.1
		c0-1.8,0.7-4,1.8-5.4c1-1.3,2.5-2.2,7.2-2l-0.9,5.1c-0.1,0.4-0.2,1.4-0.2,1.8c0,0.7,0.3,1.4,1.2,1.4c2.2,0,2.8-3.8,2.8-5.4
		c0-4.5-2.6-7.5-6.5-7.5c-4,0-7.8,4.1-7.8,11.5c0,4.7,2.6,7.5,6.7,7.5c2.8,0,5.1-1.1,7.4-2.6L173.4,200.2z M167.4,188.4
		c-0.8,0.2-1.9,0.2-2.5,1c-0.8,1-1.5,2.8-1.5,4.1c0,0.5,0.2,1.1,0.9,1.1c1,0,2.1-1.1,3-5.3L167.4,188.4z"/>
	<path class="st1" d="M192.5,199.1c-1.4,2.2-3.1,3.7-5.9,3.7c-5.2,0-6.8-4.8-6.8-9.1c0-7.1,3.7-9.2,6.6-9.2c2.8,0,4.4,1.4,5.6,3.8
		l-2.1,1.1c-0.7-1.4-1.8-2.7-3.5-2.7c-3.5,0-4.2,4.3-4.2,7c0,2.8,0.6,7,4.2,7c2.1,0,3.1-1.3,4.2-2.9L192.5,199.1z"/>
	<path class="st1" d="M202.5,188.1L202.5,188.1l-0.5,14.3h-2.4l0.7-17.7h3l3.2,7.7l3.2-7.7h3l0.7,17.7H211l-0.4-14.3h-0.1l-4,9.3
		L202.5,188.1z"/>
	<path class="st1" d="M223.6,184.8v12.1c0,2.6,0.7,3.8,3.1,3.8c2.9,0,3.5-1.3,3.5-3.8v-12.1h2.3v13.2c0,2.3-1.7,4.9-5.6,4.9
		c-3.8,0-5.5-2.4-5.5-5v-13H223.6z"/>
	<path class="st1" d="M245.7,197.5h3.1v5h-3.1V197.5z"/>
	<path class="st1" d="M262.8,184.8h11v2h-8.8v5.3h7.2v2h-7.2v6.3h8.8v2h-11V184.8z"/>
	<path class="st1" d="M281.9,184.8h5.9c5,0,7.3,2.1,7.3,8.6c0,5.5-1,9.1-7.3,9.1h-5.9v-2h1.8v-13.6h-1.8V184.8z M286.1,200.5h2.4
		c3,0,4.3-1.7,4.3-6.8c0-5.4-1.6-6.8-4.4-6.8h-2.3V200.5z"/>
	<path class="st1" d="M305.2,184.8v12.1c0,2.6,0.7,3.8,3.1,3.8c2.9,0,3.5-1.3,3.5-3.8v-12.1h2.3v13.2c0,2.3-1.7,4.9-5.6,4.9
		c-3.8,0-5.5-2.4-5.5-5v-13H305.2z"/>
</g>
<g class="st0">
	<path class="st1" d="M90.7,282h2.5v-13.6h-2.5v-2h7.3v2h-2.5V282h2.5v2h-7.3V282z"/>
	<path class="st1" d="M110.5,266.4h11.2v2h-8.9v5.3h7.4v2h-7.4v8.3h-2.3V266.4z"/>
	<path class="st1" d="M160.2,265.9l2.1,1.1l-5.7,10.2v6.8h-2.3v-6.8l-5.7-10.2l2.1-1.1l4.7,9.1L160.2,265.9z"/>
	<path class="st1" d="M182.2,275.3c0,1.4-0.1,9.1-6.3,9.1c-2.9,0-6.3-2-6.3-9.1c0-7.1,3.4-9.2,6.3-9.2
		C178.7,266.1,182.2,268.1,182.2,275.3z M172,275.3c0,2.6,0.5,7,3.9,7c3.4,0,3.9-4.4,3.9-7c0-2.6-0.5-7-3.9-7
		C172.5,268.2,172,272.6,172,275.3z"/>
	<path class="st1" d="M193,266.4v12.1c0,2.6,0.7,3.8,3.1,3.8c2.9,0,3.5-1.3,3.5-3.8v-12.1h2.3v13.2c0,2.3-1.7,4.9-5.6,4.9
		c-3.8,0-5.5-2.4-5.5-5v-13H193z"/>
	<path class="st1" d="M232.9,277.5c-0.1,3.5,0.8,4.8,3.2,4.8c2.3,0,3.4-1.4,3.4-3.5v-12.3h2.3v12.8c0,2.5-1.8,5.2-5.7,5.2
		c-3.8,0-5.5-2.2-5.5-6.9H232.9z"/>
	<path class="st1" d="M254.2,266.4v12.1c0,2.6,0.7,3.8,3.1,3.8c2.9,0,3.5-1.3,3.5-3.8v-12.1h2.3v13.2c0,2.3-1.7,4.9-5.6,4.9
		c-3.8,0-5.5-2.4-5.5-5v-13H254.2z"/>
	<path class="st1" d="M274.2,278.5c0.4,2.2,1.5,3.8,3.9,3.8c1.9,0,3.3-1,3.3-3c0-2.2-1.8-2.7-3.6-3.4c-2.6-1.1-5-1.8-5-5.1
		c0-3,2.4-4.7,5.2-4.7c3,0,4.7,1.7,5.4,4.5l-2.2,0.6c-0.4-1.7-1.3-3-3.3-3c-1.5,0-2.9,0.7-2.9,2.3c0,1.7,1,2.1,2.4,2.8l3.8,1.7
		c1.6,0.9,2.4,2.3,2.4,4.1c0,3.4-2.3,5.3-5.6,5.3c-3.3,0-5.4-2.1-5.9-5.3L274.2,278.5z"/>
	<path class="st1" d="M297.2,268.4h-4.9v-2h12v2h-4.8v15.7h-2.3V268.4z"/>
</g>
<g class="st0">
	<path class="st1" d="M79.4,306.7l1.4,12.4h0.1l3-8.7h0.6l3,8.7h0.1l1.4-12.4l2.3,0.3l-2.5,18.3h-0.8l-3.7-10.9l-3.7,10.9h-0.8
		L77.1,307L79.4,306.7z"/>
	<path class="st1" d="M101.4,320.1l-1.7,5.3l-2.2-0.8l5.6-17.3h2.9l5.6,17.3l-2.2,0.8l-1.6-5.3H101.4z M104.5,309.8L102,318h5
		L104.5,309.8z"/>
	<path class="st1" d="M119,307.2h2.8l6.9,14.9l0.1-0.1l-0.2-4.6v-10.3h2.3v17.7H128l-6.9-14.9l-0.1,0.1l0.2,4.6v10.2H119V307.2z"/>
	<path class="st1" d="M144.2,309.2h-4.9v-2h12v2h-4.8v15.7h-2.3V309.2z"/>
	<path class="st1" d="M185,309.2h-4.9v-2h12v2h-4.8v15.7H185V309.2z"/>
	<path class="st1" d="M212.8,316.1c0,1.4-0.1,9.1-6.3,9.1c-2.9,0-6.3-2-6.3-9.1c0-7.1,3.4-9.2,6.3-9.2
		C209.3,306.9,212.8,308.9,212.8,316.1z M202.6,316.1c0,2.6,0.5,7,3.9,7c3.4,0,3.9-4.4,3.9-7c0-2.6-0.5-7-3.9-7
		C203.1,309,202.6,313.4,202.6,316.1z"/>
	<path class="st1" d="M253.7,321.5c-1.4,2.2-3.1,3.7-5.9,3.7c-5.2,0-6.8-4.8-6.8-9.1c0-7.1,3.7-9.2,6.6-9.2c2.8,0,4.4,1.4,5.6,3.8
		l-2.1,1.1c-0.7-1.4-1.8-2.7-3.5-2.7c-3.5,0-4.2,4.3-4.2,7c0,2.8,0.6,7,4.2,7c2.1,0,3.1-1.3,4.2-2.9L253.7,321.5z"/>
	<path class="st1" d="M261.9,307.2h2.3v7.3h7v-7.3h2.3v17.7h-2.3v-8.3h-7v8.3h-2.3V307.2z"/>
	<path class="st1" d="M285,320.1l-1.7,5.3l-2.2-0.8l5.6-17.3h2.9l5.6,17.3l-2.2,0.8l-1.6-5.3H285z M288.1,309.8l-2.5,8.2h5
		L288.1,309.8z"/>
	<path class="st1" d="M307.4,309.2h-4.9v-2h12v2h-4.8v15.7h-2.3V309.2z"/>
	<path class="st1" d="M327.3,310.2h3.1v5h-3.1V310.2z M327.3,319.9h3.1v5h-3.1V319.9z"/>
</g>
<g class="st0">
	<path class="st1" d="M58.4,341.2H60v5.2H65v-5.2h1.6v12.5H65v-5.9H60v5.9h-1.6V341.2z"/>
	<path class="st1" d="M72.8,341.2h1.6v5.2h4.9v-5.2H81v12.5h-1.6v-5.9h-4.9v5.9h-1.6V341.2z"/>
	<path class="st1" d="M89,341.2v8.5c0,1.8,0.5,2.7,2.2,2.7c2,0,2.4-0.9,2.4-2.7v-8.5h1.6v9.3c0,1.7-1.2,3.4-3.9,3.4
		c-2.7,0-3.9-1.7-3.9-3.5v-9.2H89z"/>
	<path class="st1" d="M103.5,350.3l-1.2,3.7l-1.6-0.6l3.9-12.2h2.1l3.9,12.2l-1.6,0.6l-1.2-3.7H103.5z M105.7,343.1l-1.8,5.8h3.6
		L105.7,343.1z"/>
	<path class="st1" d="M123.4,340.9l1.5,0.8l-4.1,7.2v4.8h-1.6v-4.8l-4-7.2l1.5-0.8l3.3,6.4L123.4,340.9z"/>
	<path class="st1" d="M132.2,341.2v8.5c0,1.8,0.5,2.7,2.2,2.7c2,0,2.4-0.9,2.4-2.7v-8.5h1.6v9.3c0,1.7-1.2,3.4-3.9,3.4
		c-2.7,0-3.9-1.7-3.9-3.5v-9.2H132.2z"/>
	<path class="st1" d="M144.7,341.2h2l4.8,10.5l0,0l-0.1-3.2v-7.2h1.6v12.5h-2l-4.8-10.5l0,0l0.1,3.3v7.2h-1.6V341.2z"/>
	<path class="st1" d="M167.8,345.7c0,2.6,0.4,8.2-4.5,8.2c-4.9,0-4.5-5.4-4.5-8.2c0-3.8-0.2-8.2,4.5-8.2
		C168.4,337.5,167.8,343.9,167.8,345.7z M160.5,345.7c0,6.3,1.2,6.7,2.8,6.7c1.8,0,2.8-0.7,2.8-6.7c0-6.2-1.1-6.7-2.8-6.7
		C160.3,339,160.5,342.5,160.5,345.7z"/>
	<path class="st1" d="M182.3,349.6c0,2.6-2,4.3-4.6,4.3c-2.5,0-4.6-1.7-4.6-4.3c0-2.2,1.4-3.3,3.2-4.2c-1.5-0.9-2.7-2-2.7-3.9
		c0-2.3,1.7-4.1,4.1-4.1c2.4,0,4.1,1.8,4.1,4.1c0,1.8-1.2,3-2.7,3.9C180.9,346.3,182.3,347.4,182.3,349.6z M174.8,349.7
		c0,1.7,1.3,2.7,2.9,2.7c1.6,0,2.9-1.1,2.9-2.7c0-1.9-1.5-2.6-2.9-3.5C176.3,347.1,174.8,347.8,174.8,349.7z M180.1,341.5
		c0-1.4-0.9-2.6-2.4-2.6c-1.5,0-2.4,1.1-2.4,2.6c0,1.6,1.2,2.2,2.4,3C178.9,343.8,180.1,343.2,180.1,341.5z"/>
	<path class="st1" d="M187.6,352.2l5.9-7.7c0.7-1,1.3-1.7,1.3-3c0-1.5-1-2.6-2.6-2.6c-1.9,0-2.9,1.5-3.1,3.2l-1.6-0.2
		c0.4-2.7,1.8-4.5,4.7-4.5c2.5,0,4.2,1.5,4.2,4.1c0,1.5-0.8,2.7-1.7,3.9l-5.2,6.8h6.9v1.4h-8.9V352.2z"/>
	<path class="st1" d="M211.1,349.6c0,2.6-2,4.3-4.6,4.3c-2.5,0-4.6-1.7-4.6-4.3c0-2.2,1.4-3.3,3.2-4.2c-1.5-0.9-2.7-2-2.7-3.9
		c0-2.3,1.7-4.1,4.1-4.1c2.4,0,4.1,1.8,4.1,4.1c0,1.8-1.2,3-2.7,3.9C209.7,346.3,211.1,347.4,211.1,349.6z M203.6,349.7
		c0,1.7,1.3,2.7,2.9,2.7c1.6,0,2.9-1.1,2.9-2.7c0-1.9-1.5-2.6-2.9-3.5C205.1,347.1,203.6,347.8,203.6,349.7z M208.9,341.5
		c0-1.4-0.9-2.6-2.4-2.6c-1.5,0-2.4,1.1-2.4,2.6c0,1.6,1.2,2.2,2.4,3C207.7,343.8,208.9,343.2,208.9,341.5z"/>
	<path class="st1" d="M226.3,352.1c-1.8,1.2-3.8,1.8-5.9,1.8c-3,0-6.3-2.1-6.3-6.9c0-4.4,2.4-9.6,7.3-9.6c2.5,0,6.1,1.9,6.1,6.7
		c0,2.2-1,5.5-3.6,5.5c-1,0-1.3-0.3-2-1c-0.7,0.6-1.2,1-2.2,1c-1.3,0-2.2-0.9-2.2-2.2c0-1.2,0.5-2.8,1.3-3.8
		c0.7-0.9,1.8-1.5,5.1-1.4l-0.6,3.6c0,0.3-0.2,1-0.2,1.3c0,0.5,0.2,1,0.8,1c1.5,0,1.9-2.7,1.9-3.8c0-3.2-1.8-5.3-4.6-5.3
		c-2.8,0-5.5,2.9-5.5,8.1c0,3.3,1.8,5.3,4.7,5.3c2,0,3.6-0.8,5.2-1.8L226.3,352.1z M222.1,343.7c-0.6,0.1-1.3,0.2-1.8,0.7
		c-0.6,0.7-1.1,2-1.1,2.9c0,0.4,0.2,0.8,0.6,0.8c0.7,0,1.5-0.7,2.1-3.7L222.1,343.7z"/>
	<path class="st1" d="M239.5,352.5c-1,0.8-2.6,1.4-3.8,1.4c-3.7,0-4.7-3.4-4.7-6.5c0-3,1.1-6.5,4.7-6.5c1.7,0,3.1,1,4,2.4l-1.4,0.9
		c-0.6-1-1.5-1.8-2.7-1.8c-2.5,0-2.9,3.1-2.9,5c0,1.9,0.4,4.9,3,4.9c0.8,0,1.6-0.2,2.3-0.6v-3.3h-3V347h4.6V352.5z"/>
	<path class="st1" d="M246.9,343.6L246.9,343.6l-0.4,10.1h-1.7l0.5-12.5h2.1l2.3,5.4l2.3-5.4h2.1l0.5,12.5h-1.7l-0.3-10.1h0
		l-2.8,6.6L246.9,343.6z"/>
	<path class="st1" d="M261.9,350.3l-1.2,3.7l-1.6-0.6l3.9-12.2h2.1l3.9,12.2l-1.6,0.6l-1.2-3.7H261.9z M264.1,343.1l-1.8,5.8h3.6
		L264.1,343.1z"/>
	<path class="st1" d="M275.9,352.2h1.8v-9.6h-1.8v-1.4h5.1v1.4h-1.8v9.6h1.8v1.4h-5.1V352.2z"/>
	<path class="st1" d="M289.8,341.2h1.6v11.1h6.6v1.4h-8.2V341.2z"/>
	<path class="st1" d="M306.2,350.1h2.2v3.6h-2.2V350.1z"/>
	<path class="st1" d="M326.2,351.3c-1,1.6-2.2,2.6-4.2,2.6c-3.6,0-4.8-3.4-4.8-6.5c0-5,2.6-6.5,4.7-6.5c1.9,0,3.1,1,4,2.7l-1.5,0.7
		c-0.5-1-1.2-1.9-2.5-1.9c-2.5,0-3,3-3,4.9c0,1.9,0.5,5,3,5c1.5,0,2.2-0.9,3-2L326.2,351.3z"/>
	<path class="st1" d="M340.5,347.5c0,1-0.1,6.5-4.4,6.5c-2,0-4.4-1.4-4.4-6.5c0-5,2.4-6.5,4.4-6.5
		C338.1,341,340.5,342.4,340.5,347.5z M333.3,347.5c0,1.8,0.3,4.9,2.8,4.9c2.4,0,2.8-3.1,2.8-4.9c0-1.8-0.3-5-2.8-5
		C333.7,342.5,333.3,345.6,333.3,347.5z"/>
	<path class="st1" d="M347.7,343.6L347.7,343.6l-0.4,10.1h-1.7l0.5-12.5h2.1l2.3,5.4l2.3-5.4h2.1l0.5,12.5h-1.7l-0.3-10.1h0
		l-2.8,6.6L347.7,343.6z"/>
</g>
<path class="st1" d="M413,459.1H0v-413h413V459.1z M4,455.1h405v-405H4V455.1z"/>
<rect x="77.3" y="7.8" transform="matrix(0.9445 -0.3285 0.3285 0.9445 -10.4486 28.0533)" class="st1" width="1" height="74.4"/>
<rect x="66.8" y="8.7" transform="matrix(0.4041 -0.9147 0.9147 0.4041 30.4867 67.8155)" class="st1" width="1" height="3.6"/>
<rect x="67.9" y="9.2" transform="matrix(0.4335 -0.9012 0.9012 0.4335 30.6775 68.2096)" class="st1" width="3.3" height="1"/>
<rect x="71.4" y="7.1" transform="matrix(0.404 -0.9148 0.9148 0.404 34.695 71.0716)" class="st1" width="1" height="3.6"/>
<rect x="72.5" y="7.6" transform="matrix(0.4366 -0.8996 0.8996 0.4366 34.5019 71.3059)" class="st1" width="3.3" height="1"/>
<rect x="75.9" y="5.6" transform="matrix(0.4048 -0.9144 0.9144 0.4048 38.7781 74.2814)" class="st1" width="1" height="3.5"/>
<rect x="77.1" y="6" transform="matrix(0.4366 -0.8996 0.8996 0.4366 38.4748 74.5102)" class="st1" width="3.3" height="1"/>
<rect x="80.5" y="4" transform="matrix(0.4059 -0.9139 0.9139 0.4059 42.9073 77.439)" class="st1" width="1" height="3.5"/>
<rect x="81.6" y="4.4" transform="matrix(0.4355 -0.9002 0.9002 0.4355 42.63 77.757)" class="st1" width="3.4" height="1"/>
<rect x="85.2" y="2.3" transform="matrix(0.404 -0.9148 0.9148 0.404 47.3043 80.8255)" class="st1" width="1" height="3.6"/>
<rect x="86.3" y="2.8" transform="matrix(0.4374 -0.8993 0.8993 0.4374 46.5219 80.9829)" class="st1" width="3.3" height="1"/>
<rect x="89.8" y="0.7" transform="matrix(0.404 -0.9148 0.9148 0.404 51.5095 84.0798)" class="st1" width="1" height="3.6"/>
<rect x="90.9" y="1.2" transform="matrix(0.4335 -0.9012 0.9012 0.4335 50.9016 84.4006)" class="st1" width="3.3" height="1"/>
<rect x="105" y="-1.9" transform="matrix(0.9445 -0.3285 0.3285 0.9445 -5.7393 36.6131)" class="st1" width="1" height="74.4"/>
<rect x="115.5" y="68" transform="matrix(0.404 -0.9148 0.9148 0.404 5.3574 147.7028)" class="st1" width="1" height="3.6"/>
<rect x="112.1" y="70" transform="matrix(0.4335 -0.9012 0.9012 0.4335 0.8658 142.4471)" class="st1" width="3.3" height="1"/>
<rect x="110.9" y="69.6" transform="matrix(0.4064 -0.9137 0.9137 0.4064 0.965 144.1553)" class="st1" width="1" height="3.6"/>
<rect x="107.5" y="71.6" transform="matrix(0.4366 -0.8996 0.8996 0.4366 -3.4125 138.8207)" class="st1" width="3.3" height="1"/>
<rect x="106.4" y="71.1" transform="matrix(0.4048 -0.9144 0.9144 0.4048 -3.0357 141.1062)" class="st1" width="1" height="3.5"/>
<rect x="102.9" y="73.2" transform="matrix(0.4355 -0.9002 0.9002 0.4355 -7.3093 135.7651)" class="st1" width="3.4" height="1"/>
<rect x="101.8" y="72.8" transform="matrix(0.4036 -0.9149 0.9149 0.4036 -7.1767 138.0506)" class="st1" width="1" height="3.5"/>
<rect x="98.3" y="74.8" transform="matrix(0.4355 -0.9002 0.9002 0.4355 -11.3708 132.568)" class="st1" width="3.4" height="1"/>
<rect x="97.1" y="74.3" transform="matrix(0.403 -0.9152 0.9152 0.403 -11.3865 134.8047)" class="st1" width="1" height="3.6"/>
<rect x="93.7" y="76.4" transform="matrix(0.4366 -0.8996 0.8996 0.4366 -15.5053 129.1098)" class="st1" width="3.3" height="1"/>
<rect x="92.5" y="75.9" transform="matrix(0.4042 -0.9147 0.9147 0.4042 -15.6629 131.4149)" class="st1" width="1" height="3.6"/>
<rect x="89.1" y="78" transform="matrix(0.4335 -0.9012 0.9012 0.4335 -19.3674 126.2616)" class="st1" width="3.3" height="1"/>
<rect x="269.9" y="39.9" transform="matrix(0.1161 -0.9932 0.9932 0.1161 231.2778 340.7581)" class="st1" width="74.4" height="1"/>
<rect x="312.1" y="3.1" transform="matrix(0.7623 -0.6472 0.6472 0.7623 71.183 203.5016)" class="st1" width="1" height="3.6"/>
<rect x="313.4" y="4.6" transform="matrix(0.7839 -0.6209 0.6209 0.7839 64.897 196.7224)" class="st1" width="3.3" height="1"/>
<rect x="317" y="3.6" transform="matrix(0.7637 -0.6456 0.6456 0.7637 71.5432 206.2528)" class="st1" width="1" height="3.6"/>
<rect x="318.2" y="5.2" transform="matrix(0.7839 -0.6209 0.6209 0.7839 65.5951 199.8484)" class="st1" width="3.3" height="1"/>
<rect x="321.8" y="4.2" transform="matrix(0.764 -0.6452 0.6452 0.764 72.1775 209.3378)" class="st1" width="1" height="3.5"/>
<rect x="323" y="5.8" transform="matrix(0.7839 -0.6209 0.6209 0.7839 66.2733 202.9365)" class="st1" width="3.4" height="1"/>
<rect x="326.6" y="4.8" transform="matrix(0.7628 -0.6466 0.6466 0.7628 73.3721 213.052)" class="st1" width="1" height="3.5"/>
<rect x="327.8" y="6.3" transform="matrix(0.7839 -0.6209 0.6209 0.7839 66.9942 206.0477)" class="st1" width="3.4" height="1"/>
<rect x="331.5" y="5.3" transform="matrix(0.7623 -0.6472 0.6472 0.7623 74.3108 216.5584)" class="st1" width="1" height="3.6"/>
<rect x="332.7" y="6.9" transform="matrix(0.7852 -0.6192 0.6192 0.7852 67.2434 208.6508)" class="st1" width="3.3" height="1"/>
<rect x="336.3" y="5.9" transform="matrix(0.7633 -0.646 0.646 0.7633 74.7653 219.4172)" class="st1" width="1" height="3.6"/>
<rect x="337.6" y="7.5" transform="matrix(0.7839 -0.6209 0.6209 0.7839 68.365 212.3469)" class="st1" width="3.3" height="1"/>
<rect x="299" y="43.3" transform="matrix(0.1161 -0.9932 0.9932 0.1161 253.669 372.679)" class="st1" width="74.4" height="1"/>
<rect x="330.2" y="77.6" transform="matrix(0.7621 -0.6474 0.6474 0.7621 27.2574 232.9839)" class="st1" width="1" height="3.6"/>
<rect x="326.6" y="78.6" transform="matrix(0.7839 -0.6209 0.6209 0.7839 21.8108 220.9065)" class="st1" width="3.3" height="1"/>
<rect x="325.3" y="77" transform="matrix(0.7636 -0.6457 0.6457 0.7636 26.1302 229.0298)" class="st1" width="1" height="3.6"/>
<rect x="321.8" y="78" transform="matrix(0.7839 -0.6209 0.6209 0.7839 21.1187 217.7784)" class="st1" width="3.3" height="1"/>
<rect x="320.6" y="76.5" transform="matrix(0.7628 -0.6466 0.6466 0.7628 25.5589 226.1668)" class="st1" width="1" height="3.5"/>
<rect x="317" y="77.5" transform="matrix(0.7856 -0.6187 0.6187 0.7856 20.0639 213.8735)" class="st1" width="3.3" height="1"/>
<rect x="315.7" y="76" transform="matrix(0.7628 -0.6466 0.6466 0.7628 24.7495 222.9202)" class="st1" width="1" height="3.5"/>
<rect x="312.1" y="77" transform="matrix(0.7839 -0.6209 0.6209 0.7839 19.7137 211.5815)" class="st1" width="3.4" height="1"/>
<rect x="310.8" y="75.3" transform="matrix(0.7633 -0.646 0.646 0.7633 23.8585 219.3902)" class="st1" width="1" height="3.6"/>
<rect x="307.3" y="76.3" transform="matrix(0.7852 -0.6192 0.6192 0.7852 18.7594 207.7853)" class="st1" width="3.3" height="1"/>
<rect x="306" y="74.8" transform="matrix(0.7622 -0.6474 0.6474 0.7622 23.325 216.6305)" class="st1" width="1" height="3.6"/>
<rect x="302.4" y="75.8" transform="matrix(0.7852 -0.6192 0.6192 0.7852 18.0708 204.6702)" class="st1" width="3.3" height="1"/>
</svg>
