<?xml version="1.0" encoding="utf-8"?>
<!-- Generator: Adobe Illustrator 21.1.0, SVG Export Plug-In . SVG Version: 6.00 Build 0)  -->
<svg version="1.1" id="Layer_1" xmlns="http://www.w3.org/2000/svg" xmlns:xlink="http://www.w3.org/1999/xlink" x="0px" y="0px"
	 viewBox="0 0 451.2 440.5" style="enable-background:new 0 0 451.2 440.5;" xml:space="preserve">
<style type="text/css">
	.st0{fill:#FFFFFF;}
	.st1{enable-background:new    ;}
	.st2{fill:#F2F2F2;}
	.st3{fill:#189066;}
	.st4{fill:#3FA9F5;}
</style>
<title>Untitled-6</title>
<path class="st0" d="M389.4,406.5h-320v-28.6l15.8,15.8l57.3-57.2l-57.3-57.3L69.4,295V118.1l1.6,0.2c1.4,0.1,2.8,0.2,4.2,0.2
	c0,0,0,0,0,0c18.8,0,35.3-12.7,40.1-30.9l0.3-1.1h215.2l23.8,23.8l23.8-23.8h11v60l-1.5,0c-8.9,0.1-17.3,3.5-23.7,9.7
	c-13.7,13.2-14.1,35.1-0.9,48.8l1,1.1l-1.1,1c-6.1,5.8-9.6,14-9.6,22.4c0,17.1,13.9,31,31,31c1,0,2,0,3-0.2l1.7-0.2V406.5z
	 M72.4,403.5h314v-140c-0.6,0-1.1,0-1.7,0c-9.1,0-17.6-3.5-24-10c-6.4-6.4-10-15-10-24c0-8.8,3.4-17.2,9.5-23.5
	c-13.3-14.9-12.6-37.9,1.9-51.9c6.6-6.4,15.1-10,24.2-10.5v-54h-6.8l-25,25l-25-25H117.9c-5.5,18.9-22.9,32-42.7,32c0,0,0,0,0,0
	c-0.9,0-1.9,0-2.8-0.1v166.3l12.8-12.8l61.5,61.6L85.1,398l-12.8-12.8V403.5z M345.7,376.5c-11.6,0-21-9.4-21-21s9.4-21,21-21
	s21,9.4,21,21S357.3,376.5,345.7,376.5z M345.7,337.5c-9.9,0-18,8.1-18,18s8.1,18,18,18s18-8.1,18-18S355.6,337.5,345.7,337.5z"/>
<g class="st1">
	<path class="st2" d="M145.5,196.9h-4.9v-2h12v2h-4.8v20.6h-2.3V196.9z"/>
	<path class="st2" d="M161.2,199.8h2.3v7.3h7v-7.3h2.3v17.7h-2.3v-8.3h-7v8.3h-2.3V199.8z"/>
	<path class="st2" d="M183.7,215.5h2.5v-13.6h-2.5v-2h7.3v2h-2.5v13.6h2.5v2h-7.3V215.5z"/>
	<path class="st2" d="M204.1,211.9c0.4,2.2,1.5,3.8,3.9,3.8c1.9,0,3.3-1,3.3-3c0-2.2-1.8-2.7-3.6-3.4c-2.6-1.1-5-1.8-5-5.1
		c0-3,2.4-4.7,5.2-4.7c3,0,4.7,1.7,5.4,4.5l-2.2,0.6c-0.4-1.7-1.3-3-3.3-3c-1.5,0-2.9,0.7-2.9,2.3c0,1.7,1,2.1,2.4,2.8l3.8,1.7
		c1.6,0.9,2.4,2.3,2.4,4.1c0,3.4-2.3,5.3-5.6,5.3c-3.3,0-5.4-2.1-5.9-5.3L204.1,211.9z"/>
	<path class="st2" d="M246.1,217.5h-2.3v-17.7h5.5c4.1,0,5.7,2.2,5.7,4.8c0,3.7-2.7,5.3-5.1,5.3h-3.8V217.5z M249.3,207.8
		c2.2,0,3.4-1,3.4-3.1c0-2.4-1.6-3-3.4-3h-3.1v6H249.3z"/>
	<path class="st2" d="M265.8,212.7l-1.7,5.3l-2.2-0.8l5.6-17.3h2.9l5.6,17.3l-2.2,0.8l-1.6-5.3H265.8z M269,202.4l-2.5,8.2h5
		L269,202.4z"/>
	<path class="st2" d="M295.3,215.9c-1.5,1.2-3.6,1.9-5.4,1.9c-5.2,0-6.7-4.8-6.7-9.2c0-4.3,1.6-9.1,6.6-9.1c2.4,0,4.5,1.4,5.7,3.4
		l-1.9,1.3c-0.9-1.4-2.1-2.5-3.9-2.5c-3.5,0-4.1,4.4-4.1,7.1c0,2.8,0.6,7,4.2,7c1.2,0,2.3-0.3,3.3-0.9v-4.7h-4.2v-2h6.5V215.9z"/>
	<path class="st2" d="M304.9,199.8h11v2h-8.8v5.3h7.2v2h-7.2v6.3h8.8v2h-11V199.8z"/>
</g>
<g class="st1">
	<path class="st2" d="M111.3,240.1l1.4,12.4h0.1l3-8.7h0.6l3,8.7h0.1l1.4-12.4l2.3,0.3l-2.5,18.3h-0.8l-3.7-10.9l-3.7,10.9h-0.8
		l-2.5-18.3L111.3,240.1z"/>
	<path class="st2" d="M142.6,249.5c0,1.4-0.1,9.1-6.3,9.1c-2.9,0-6.3-2-6.3-9.1c0-7.1,3.4-9.2,6.3-9.2
		C139.2,240.3,142.6,242.3,142.6,249.5z M132.4,249.5c0,2.6,0.5,7,3.9,7c3.4,0,3.9-4.4,3.9-7c0-2.6-0.5-7-3.9-7
		C132.9,242.4,132.4,246.8,132.4,249.5z"/>
	<path class="st2" d="M151.6,240.6h6c3,0,5.3,1.4,5.3,4.8c0,2.2-1.5,4.3-3.6,5l4.4,7.2l-2,1.2l-4.5-8h-3.3v7.6h-2.3V240.6z
		 M156.9,248.7c2.2,0,3.7-1.3,3.7-3.3c0-1.6-1-2.8-3-2.8h-3.7v6.1H156.9z"/>
	<path class="st2" d="M174.7,248.1h0.9l6.1-8l1.7,1.4l-5.9,7.4l6.9,8.3l-1.7,1.5l-7.2-8.7h-0.8v8.3h-2.3v-17.7h2.3V248.1z"/>
	<path class="st2" d="M193.9,252.7c0.4,2.2,1.5,3.8,3.9,3.8c1.9,0,3.3-1,3.3-3c0-2.2-1.8-2.7-3.6-3.4c-2.6-1.1-5-1.8-5-5.1
		c0-3,2.4-4.7,5.2-4.7c3,0,4.7,1.7,5.4,4.5l-2.2,0.6c-0.4-1.7-1.3-3-3.3-3c-1.5,0-2.9,0.7-2.9,2.3c0,1.7,1,2.1,2.4,2.8l3.8,1.7
		c1.6,0.9,2.4,2.3,2.4,4.1c0,3.4-2.3,5.3-5.6,5.3c-3.3,0-5.4-2.1-5.9-5.3L193.9,252.7z"/>
	<path class="st2" d="M232.3,258.3v-2h1.8v-13.6h-1.8v-2h5.6c4.5,0,6.4,1.7,6.4,4.7c0,1.5-0.6,2.9-2,3.6c1.9,0.6,3,2.3,3,4.3
		c0,3.2-2.1,5.1-5.8,5.1H232.3z M239,248.2c2,0,3-1.3,3-2.9c0-2.1-1.5-2.7-3.1-2.7h-2.4v5.5H239z M239.1,256.3c2,0,3.9-0.4,3.9-2.9
		c0-1.8-1.2-3.2-3.3-3.2h-3.2v6.1H239.1z"/>
	<path class="st2" d="M253.9,240.6h11v2h-8.8v5.3h7.2v2h-7.2v6.3h8.8v2h-11V240.6z"/>
	<path class="st2" d="M278.1,242.6h-4.9v-2h12v2h-4.8v15.7h-2.3V242.6z"/>
	<path class="st2" d="M298.5,242.6h-4.9v-2h12v2h-4.8v15.7h-2.3V242.6z"/>
	<path class="st2" d="M315.1,240.6h11v2h-8.8v5.3h7.2v2h-7.2v6.3h8.8v2h-11V240.6z"/>
	<path class="st2" d="M335.2,240.6h6c3,0,5.3,1.4,5.3,4.8c0,2.2-1.5,4.3-3.6,5l4.4,7.2l-2,1.2l-4.5-8h-3.3v7.6h-2.3V240.6z
		 M340.5,248.7c2.2,0,3.7-1.3,3.7-3.3c0-1.6-1-2.8-3-2.8h-3.7v6.1H340.5z"/>
</g>
<g class="st1">
	<path class="st2" d="M122.2,290.3c0,1.4-0.1,9.1-6.3,9.1c-2.9,0-6.3-2-6.3-9.1c0-7.1,3.4-9.2,6.3-9.2
		C118.8,281.1,122.2,283.1,122.2,290.3z M112,290.3c0,2.6,0.5,7,3.9,7c3.4,0,3.9-4.4,3.9-7c0-2.6-0.5-7-3.9-7
		C112.5,283.2,112,287.6,112,290.3z"/>
	<path class="st2" d="M130.4,281.4h2.8l6.9,14.9l0.1-0.1l-0.2-4.6v-10.3h2.3v17.7h-2.8l-6.9-14.9l-0.1,0.1l0.2,4.6v10.2h-2.3V281.4z
		"/>
	<path class="st2" d="M174,294.3l-1.7,5.3l-2.2-0.8l5.6-17.3h2.9l5.6,17.3l-2.2,0.8l-1.6-5.3H174z M177.2,284l-2.5,8.2h5L177.2,284z
		"/>
	<path class="st2" d="M211.8,281.4h5.9c5,0,7.3,2.1,7.3,8.6c0,5.5-1,9.1-7.3,9.1h-5.9v-2h1.8v-13.6h-1.8V281.4z M215.9,297.1h2.4
		c3,0,4.3-1.7,4.3-6.8c0-5.4-1.6-6.8-4.4-6.8h-2.3V297.1z"/>
	<path class="st2" d="M233.5,281.4h11v2h-8.8v5.3h7.2v2h-7.2v6.3h8.8v2h-11V281.4z"/>
	<path class="st2" d="M255.1,293.5c0.4,2.2,1.5,3.8,3.9,3.8c1.9,0,3.3-1,3.3-3c0-2.2-1.8-2.7-3.6-3.4c-2.6-1.1-5-1.8-5-5.1
		c0-3,2.4-4.7,5.2-4.7c3,0,4.7,1.7,5.4,4.5l-2.2,0.6c-0.4-1.7-1.3-3-3.3-3c-1.5,0-2.9,0.7-2.9,2.3c0,1.7,1,2.1,2.4,2.8l3.8,1.7
		c1.6,0.9,2.4,2.3,2.4,4.1c0,3.4-2.3,5.3-5.6,5.3c-3.3,0-5.4-2.1-5.9-5.3L255.1,293.5z"/>
	<path class="st2" d="M276.7,288.9h0.8l6.1-8l1.7,1.4l-5.9,7.4l6.9,8.3l-1.7,1.5l-7.2-8.7h-0.8v8.3h-2.3v-17.7h2.3V288.9z"/>
	<path class="st2" d="M298.5,283.4h-4.9v-2h12v2h-4.8v15.7h-2.3V283.4z"/>
	<path class="st2" d="M326.2,290.3c0,1.4-0.1,9.1-6.3,9.1c-2.9,0-6.3-2-6.3-9.1c0-7.1,3.4-9.2,6.3-9.2
		C322.8,281.1,326.2,283.1,326.2,290.3z M316,290.3c0,2.6,0.5,7,3.9,7s3.9-4.4,3.9-7c0-2.6-0.5-7-3.9-7S316,287.6,316,290.3z"/>
	<path class="st2" d="M337.9,299.1h-2.3v-17.7h5.5c4.1,0,5.7,2.2,5.7,4.8c0,3.7-2.7,5.3-5.1,5.3h-3.8V299.1z M341.1,289.4
		c2.2,0,3.4-1,3.4-3.1c0-2.4-1.6-3-3.4-3h-3.1v6H341.1z"/>
	<path class="st2" d="M359.2,294.1h3.1v5h-3.1V294.1z"/>
</g>
<path class="st0" d="M366.6,440.5H92.8L160,412h138.6l0.3,0.1L366.6,440.5z M107.6,437.5h244.2L298,415H160.7L107.6,437.5z"/>
<g>
	<path class="st3" d="M116.8,88c-5,18.9-22.1,32-41.6,32c-1.5,0-2.9-0.1-4.3-0.2V88H116.8z"/>
	<path class="st0" d="M75.2,120.5c-1.5,0-3-0.1-4.4-0.2l-0.5,0V87.5h47.1l-0.2,0.6C112.2,107.2,94.9,120.5,75.2,120.5z M71.4,119.3
		c1.3,0.1,2.6,0.1,3.8,0.2c19,0,35.8-12.7,40.9-31H71.4V119.3z"/>
</g>
<path class="st0" d="M71.9,120.9l-1.1-0.1c-11.7-1.2-22.2-6.8-29.7-15.9c-7.4-9.1-10.9-20.5-9.8-32.2C33.6,50,52.4,33,75.1,33
	c1.5,0,2.9,0.1,4.4,0.2c22.6,2.2,39.7,21,39.7,43.8v0c0,3.8-0.5,7.6-1.5,11.3l-0.2,0.7H71.9V120.9z M75.1,35
	c-21.7,0-39.7,16.3-41.8,37.9c-2.2,22.7,14.1,43,36.6,45.8V87H116c0.8-3.3,1.2-6.6,1.2-10v0c0-21.7-16.3-39.7-37.9-41.8
	C77.9,35.1,76.5,35,75.1,35z"/>
<path class="st0" d="M103.7,53c-14.6,0-26.5-11.9-26.5-26.5S89.1,0,103.7,0s26.5,11.9,26.5,26.5S118.3,53,103.7,53z M103.7,2
	C90.2,2,79.2,13,79.2,26.5S90.2,51,103.7,51s24.5-11,24.5-24.5S117.2,2,103.7,2z"/>
<g>
	<path class="st3" d="M387.9,217v44.8c-1.1,0.1-2.1,0.2-3.2,0.2c-17.9,0-32.5-14.6-32.5-32.5c0-8.9,3.6-17.4,10.1-23.5
		C369,213,378.2,216.9,387.9,217z"/>
	<path class="st0" d="M384.7,262.5C384.7,262.5,384.7,262.5,384.7,262.5c-18.2,0-33-14.8-33-33c0-9,3.7-17.7,10.2-23.9l0.4-0.3
		l0.3,0.4c6.6,6.8,15.8,10.8,25.2,10.8l0.5,0v45.8l-0.4,0C386.9,262.4,385.8,262.5,384.7,262.5z M362.3,206.7
		c-6.1,6-9.6,14.3-9.6,22.8c0,17.6,14.3,32,32,32c0.9,0,1.8,0,2.7-0.1v-43.9C378,217.3,368.9,213.4,362.3,206.7z"/>
</g>
<path class="st0" d="M386.9,262.9v-66.9l1.1,0.1c17.2,1.7,30.2,16,30.2,33.3l0,0c0,17.3-13,31.6-30.2,33.3L386.9,262.9z
	 M388.9,198.3v62.4c15.7-2.1,27.3-15.3,27.3-31.2C416.2,213.6,404.5,200.4,388.9,198.3z"/>
<g>
	<path class="st3" d="M387.9,145v52.2c-1.1-0.1-2.1-0.2-3.2-0.2c-8.4,0-16.4,3.2-22.4,9c-13.8-14.3-13.4-37.1,0.9-50.9
		C369.8,148.7,378.6,145.1,387.9,145L387.9,145z"/>
	<path class="st0" d="M362.3,206.7l-0.3-0.4c-14-14.5-13.6-37.6,0.9-51.6c6.8-6.5,15.6-10.2,25-10.2l0.5,0v53.2l-0.6-0.1
		c-1-0.1-2.1-0.2-3.1-0.2c0,0,0,0,0,0c-8.3,0-16.1,3.1-22.1,8.9L362.3,206.7z M387.4,145.5c-8.9,0.2-17.4,3.7-23.8,9.9
		c-14,13.5-14.5,35.7-1.2,49.8c6.1-5.7,14-8.8,22.4-8.8c0,0,0.1,0,0.1,0c0.9,0,1.7,0,2.6,0.1V145.5z"/>
</g>
<g>
	<path class="st4" d="M387.9,197.2V217c-9.7-0.1-18.9-4-25.6-11c6-5.8,14.1-9,22.4-9C385.7,197,386.8,197.1,387.9,197.2z"/>
	<path class="st0" d="M388.4,217.5l-0.5,0c-9.7-0.1-19.2-4.1-25.9-11.2l-0.3-0.4l0.4-0.3c6.1-5.9,14.2-9.1,22.7-9.1c0,0,0.1,0,0.1,0
		c1,0,2.1,0.1,3.2,0.2l0.4,0V217.5z M363,206c6.4,6.5,15.3,10.3,24.4,10.5v-18.9c-0.9-0.1-1.8-0.1-2.7-0.1
		C376.6,197.5,368.9,200.5,363,206z"/>
</g>
<path class="st0" d="M388.2,218h-1.3v-74h1.3c20.4,0,37,16.6,37,37S408.6,218,388.2,218z M388.9,146v70c19-0.4,34.3-15.9,34.3-35
	S407.9,146.4,388.9,146z"/>
<g>
	<circle class="st3" cx="345.7" cy="355.5" r="19.5"/>
	<path class="st0" d="M345.7,376c-11.3,0-20.5-9.2-20.5-20.5s9.2-20.5,20.5-20.5s20.5,9.2,20.5,20.5S357,376,345.7,376z M345.7,337
		c-10.2,0-18.5,8.3-18.5,18.5s8.3,18.5,18.5,18.5s18.5-8.3,18.5-18.5S355.9,337,345.7,337z"/>
</g>
<path class="st0" d="M435.2,131c-8.8,0-16-7.2-16-16s7.2-16,16-16s16,7.2,16,16S444,131,435.2,131z M435.2,101c-7.7,0-14,6.3-14,14
	s6.3,14,14,14s14-6.3,14-14S442.9,101,435.2,101z"/>
<g>
	<polygon class="st3" points="144.5,336.5 85.1,395.8 70.9,381.6 70.9,291.3 85.1,277 	"/>
	<path class="st0" d="M85.1,396.5l-14.8-14.8v-90.6l14.8-14.8l60.1,60.1L85.1,396.5z M71.4,381.4l13.8,13.8l58.7-58.7l-58.7-58.7
		l-13.8,13.8V381.4z"/>
</g>
<path class="st0" d="M71.9,384l-47.5-47.5l47.5-47.5V384z M27.2,336.5l42.7,42.7v-85.4L27.2,336.5z"/>
<g>
	<polygon class="st3" points="379,88 354.6,112.4 330.2,88 	"/>
	<path class="st0" d="M354.6,113.1L329,87.5h51.2L354.6,113.1z M331.4,88.5l23.2,23.2l23.2-23.2H331.4z"/>
</g>
<path class="st0" d="M379.4,89h-49.6l-15.5-15.5l40.3-40.3l40.3,40.3L379.4,89z M330.6,87h48l13.5-13.5L354.6,36l-37.5,37.5
	L330.6,87z"/>
<path class="st0" d="M64.8,330.8H0V266h64.8V330.8z M2,328.8h60.8V268H2V328.8z"/>
</svg>
