<svg id="Layer_1" data-name="Layer 1" xmlns="http://www.w3.org/2000/svg" viewBox="0 0 25 19"><title>logo</title><path d="M12.23,9.84a.51.51,0,0,1-.21,0,.49.49,0,0,1-.24-.66L16,.28A.51.51,0,0,1,16.7,0a.49.49,0,0,1,.24.66L12.69,9.56A.5.5,0,0,1,12.23,9.84Z" transform="translate(0)" style="fill:#ffc0d4"/><path d="M12.23,9.84a.5.5,0,0,1-.47-.31L8.05.68A.49.49,0,0,1,8.32,0,.51.51,0,0,1,9,.31L12.7,9.16a.49.49,0,0,1-.27.65A.52.52,0,0,1,12.23,9.84Z" transform="translate(0)" style="fill:#ffc0d4"/><path d="M12.23,19a.5.5,0,0,1-.5-.49V9.1a.5.5,0,0,1,1,0v9.37A.5.5,0,0,1,12.23,19Z" transform="translate(0)" style="fill:#ffc0d4"/><path d="M.5,19a.5.5,0,0,1-.5-.49V.49A.5.5,0,0,1,.5,0,.5.5,0,0,1,1,.49v18A.5.5,0,0,1,.5,19Z" transform="translate(0)" style="fill:#ffc0d4"/><path d="M8.37,19a.5.5,0,0,1-.5-.49V.49a.5.5,0,0,1,1,0v18A.5.5,0,0,1,8.37,19Z" transform="translate(0)" style="fill:#ffc0d4"/><path d="M6.8,10H2.07a.49.49,0,1,1,0-1H6.8a.49.49,0,1,1,0,1Z" transform="translate(0)" style="fill:#ffc0d4"/><path d="M16.63,19a.5.5,0,0,1-.5-.49V.49a.5.5,0,0,1,1,0v18A.5.5,0,0,1,16.63,19Z" transform="translate(0)" style="fill:#ffc0d4"/><path d="M24.5,19a.5.5,0,0,1-.5-.49V.49a.5.5,0,0,1,1,0v18A.5.5,0,0,1,24.5,19Z" transform="translate(0)" style="fill:#ffc0d4"/><path d="M22.93,10H18.2a.49.49,0,1,1,0-1h4.72a.49.49,0,1,1,0,1Z" transform="translate(0)" style="fill:#ffc0d4"/></svg>