<?xml version="1.0" encoding="utf-8"?>
<!-- Generator: Adobe Illustrator 21.1.0, SVG Export Plug-In . SVG Version: 6.00 Build 0)  -->
<svg version="1.1" id="Layer_1" xmlns="http://www.w3.org/2000/svg" xmlns:xlink="http://www.w3.org/1999/xlink" x="0px" y="0px"
	 viewBox="0 0 452.4 134.1" style="enable-background:new 0 0 452.4 134.1;" xml:space="preserve">
<style type="text/css">
	.st0{fill:none;stroke:#FFC0D4;stroke-width:3;stroke-linecap:round;stroke-miterlimit:10;}
</style>
<g id="Layer_2">
	<line class="st0" x1="1.5" y1="1.5" x2="1.5" y2="132.6"/>
	<line class="st0" x1="57.6" y1="1.5" x2="57.6" y2="132.6"/>
	<line class="st0" x1="12.7" y1="67" x2="46.4" y2="67"/>
	<line class="st0" x1="394.8" y1="1.5" x2="394.8" y2="132.6"/>
	<line class="st0" x1="450.9" y1="1.5" x2="450.9" y2="132.6"/>
	<line class="st0" x1="409.6" y1="35.2" x2="436.1" y2="98.9"/>
	<line class="st0" x1="78.2" y1="1.5" x2="78.2" y2="132.6"/>
	<line class="st0" x1="134.4" y1="1.5" x2="134.4" y2="132.6"/>
	<line class="st0" x1="78.2" y1="132.6" x2="134.4" y2="132.6"/>
	<line class="st0" x1="314.2" y1="1.5" x2="314.2" y2="132.6"/>
	<line class="st0" x1="370.4" y1="1.5" x2="370.4" y2="132.6"/>
	<line class="st0" x1="314.2" y1="132.6" x2="370.4" y2="132.6"/>
	<line class="st0" x1="186.9" y1="3.3" x2="156.9" y2="132.6"/>
	<line class="st0" x1="186.9" y1="3.3" x2="213.1" y2="132.6"/>
	<line class="st0" x1="261.8" y1="67" x2="291.8" y2="3.3"/>
	<line class="st0" x1="261.8" y1="67" x2="235.6" y2="3.3"/>
	<line class="st0" x1="261.8" y1="132.6" x2="261.8" y2="65.2"/>
</g>
</svg>
